G75*
%MOIN*%
%OFA0B0*%
%FSLAX24Y24*%
%IPPOS*%
%LPD*%
%AMOC8*
5,1,8,0,0,1.08239X$1,22.5*
%
%ADD10C,0.0030*%
%ADD11R,0.0033X0.0100*%
%ADD12R,0.0033X0.0134*%
%ADD13R,0.0033X0.0133*%
%ADD14R,0.0033X0.0434*%
%ADD15R,0.0033X0.0466*%
%ADD16R,0.0033X0.0700*%
%ADD17R,0.0033X0.0334*%
%ADD18R,0.0033X0.0133*%
%ADD19R,0.0033X0.0166*%
%ADD20R,0.0033X0.0433*%
%ADD21R,0.0033X0.0300*%
%ADD22R,0.0033X0.0167*%
%ADD23R,0.0033X0.0500*%
%ADD24R,0.0033X0.0267*%
%ADD25R,0.0033X0.0733*%
%ADD26R,0.0033X0.1066*%
%ADD27R,0.0033X0.0467*%
%ADD28R,0.0033X0.0400*%
%ADD29R,0.0033X0.0366*%
%ADD30R,0.0033X0.0534*%
%ADD31R,0.0033X0.0500*%
%ADD32R,0.0033X0.0733*%
%ADD33R,0.0033X0.1100*%
%ADD34R,0.0033X0.0166*%
%ADD35R,0.0033X0.0467*%
%ADD36R,0.0033X0.0167*%
%ADD37R,0.0033X0.0400*%
%ADD38R,0.0033X0.0567*%
%ADD39R,0.0033X0.0200*%
%ADD40R,0.0033X0.0233*%
%ADD41R,0.0033X0.0767*%
%ADD42R,0.0033X0.0433*%
%ADD43R,0.0033X0.0200*%
%ADD44R,0.0033X0.0367*%
%ADD45R,0.0033X0.0234*%
%ADD46R,0.0033X0.0700*%
%ADD47R,0.0033X0.0867*%
%ADD48R,0.0033X0.0266*%
%ADD49R,0.0033X0.0333*%
%ADD50R,0.0033X0.0333*%
%ADD51R,0.0033X0.0867*%
%ADD52R,0.0033X0.0267*%
%ADD53R,0.0033X0.0234*%
%ADD54R,0.0033X0.0366*%
%ADD55R,0.0033X0.0533*%
%ADD56R,0.0033X0.0233*%
%ADD57R,0.0033X0.1266*%
%ADD58R,0.0033X0.0833*%
%ADD59R,0.0033X0.0367*%
%ADD60R,0.0033X0.1233*%
%ADD61R,0.0033X0.0434*%
%ADD62R,0.0033X0.0334*%
%ADD63R,0.0033X0.0567*%
%ADD64R,0.0033X0.0534*%
%ADD65R,0.0033X0.0100*%
%ADD66R,0.0033X0.0066*%
%ADD67R,0.0033X0.0033*%
%ADD68R,0.0033X0.0033*%
%ADD69R,0.0033X0.0066*%
%ADD70R,0.0033X0.0067*%
%ADD71R,0.0033X0.0067*%
%ADD72R,0.0033X0.0034*%
%ADD73R,0.0033X0.0034*%
%ADD74R,0.0033X0.0134*%
%ADD75C,0.0513*%
%ADD76C,0.0010*%
%ADD77C,0.0020*%
%ADD78C,0.0600*%
%ADD79C,0.0740*%
%ADD80C,0.0820*%
%ADD81C,0.0730*%
%ADD82C,0.0720*%
%ADD83C,0.0680*%
%ADD84C,0.0674*%
%ADD85R,0.0730X0.0730*%
%ADD86C,0.1265*%
%ADD87R,0.0671X0.0671*%
%ADD88R,0.0790X0.0710*%
%ADD89R,0.0789X0.0710*%
%ADD90OC8,0.1080*%
%ADD91R,0.0710X0.0789*%
%ADD92R,0.0710X0.0790*%
%ADD93C,0.1346*%
%ADD94C,0.0907*%
%ADD95C,0.0631*%
%ADD96R,0.0476X0.0476*%
D10*
X017062Y008573D02*
X017110Y008525D01*
X017062Y008573D02*
X017062Y008670D01*
X017110Y008718D01*
X017158Y008718D01*
X017207Y008670D01*
X017207Y008622D01*
X017207Y008670D02*
X017255Y008718D01*
X017304Y008718D01*
X017352Y008670D01*
X017352Y008573D01*
X017304Y008525D01*
X017304Y008819D02*
X017352Y008868D01*
X017352Y008965D01*
X017304Y009013D01*
X017255Y009013D01*
X017062Y008819D01*
X017062Y009013D01*
X017110Y009114D02*
X017062Y009162D01*
X017062Y009259D01*
X017110Y009308D01*
X017158Y009308D01*
X017207Y009259D01*
X017207Y009162D01*
X017255Y009114D01*
X017304Y009114D01*
X017352Y009162D01*
X017352Y009259D01*
X017304Y009308D01*
X017255Y009308D01*
X017207Y009259D01*
X017207Y009162D02*
X017158Y009114D01*
X017110Y009114D01*
X017062Y009409D02*
X017062Y009554D01*
X017110Y009602D01*
X017207Y009602D01*
X017255Y009554D01*
X017255Y009409D01*
X016965Y009409D01*
X017013Y009703D02*
X017013Y009897D01*
X017062Y009998D02*
X017062Y010143D01*
X017110Y010192D01*
X017304Y010192D01*
X017352Y010143D01*
X017352Y009998D01*
X017062Y009998D01*
X017062Y010293D02*
X017062Y010389D01*
X017062Y010341D02*
X017352Y010341D01*
X017352Y010293D02*
X017352Y010389D01*
X017352Y010489D02*
X017352Y010634D01*
X017304Y010683D01*
X017207Y010683D01*
X017158Y010634D01*
X017158Y010489D01*
X017062Y010489D02*
X017352Y010489D01*
X017013Y010784D02*
X017013Y010977D01*
X017110Y011078D02*
X017062Y011127D01*
X017062Y011224D01*
X017110Y011272D01*
X017207Y011272D01*
X017207Y011175D01*
X017304Y011078D02*
X017110Y011078D01*
X017304Y011078D02*
X017352Y011127D01*
X017352Y011224D01*
X017304Y011272D01*
X017255Y011421D02*
X017255Y011518D01*
X017207Y011567D01*
X017062Y011567D01*
X017062Y011421D01*
X017110Y011373D01*
X017158Y011421D01*
X017158Y011567D01*
X017062Y011668D02*
X017062Y011765D01*
X017062Y011716D02*
X017352Y011716D01*
X017352Y011668D01*
X017255Y011864D02*
X017062Y011961D01*
X017255Y012058D01*
X017013Y012159D02*
X017013Y012352D01*
X017110Y012453D02*
X017062Y012502D01*
X017062Y012599D01*
X017110Y012647D01*
X017304Y012647D01*
X017110Y012453D01*
X017304Y012453D01*
X017352Y012502D01*
X017352Y012599D01*
X017304Y012647D01*
X017304Y012748D02*
X017110Y012748D01*
X017304Y012942D01*
X017110Y012942D01*
X017062Y012893D01*
X017062Y012797D01*
X017110Y012748D01*
X017304Y012748D02*
X017352Y012797D01*
X017352Y012893D01*
X017304Y012942D01*
X017304Y013043D02*
X017255Y013043D01*
X017207Y013091D01*
X017207Y013236D01*
X017110Y013236D02*
X017304Y013236D01*
X017352Y013188D01*
X017352Y013091D01*
X017304Y013043D01*
X017110Y013043D02*
X017062Y013091D01*
X017062Y013188D01*
X017110Y013236D01*
D11*
X014979Y007146D03*
X016279Y005546D03*
X016479Y005346D03*
X016779Y005813D03*
X016379Y004713D03*
X016279Y004413D03*
X016079Y004013D03*
X016679Y003680D03*
X016779Y003246D03*
X017279Y003613D03*
X017479Y003946D03*
X016079Y002613D03*
X014979Y002680D03*
X014979Y001880D03*
X014979Y003980D03*
X014979Y004846D03*
D12*
X014979Y003463D03*
X016979Y007263D03*
D13*
X014979Y005430D03*
X015055Y004969D03*
X015479Y004397D03*
X016379Y003430D03*
X016579Y003530D03*
X015979Y002897D03*
D14*
X015012Y001313D03*
D15*
X015012Y001963D03*
X015245Y001963D03*
X015245Y002763D03*
X015245Y004063D03*
X015012Y004063D03*
D16*
X015212Y003946D03*
X015012Y002646D03*
X015212Y001846D03*
X015212Y007913D03*
X015245Y007913D03*
X015145Y007913D03*
D17*
X015445Y007563D03*
X015512Y007563D03*
X015545Y007563D03*
X015445Y006863D03*
X015012Y003463D03*
D18*
X015012Y003730D03*
X015512Y004597D03*
X015088Y005169D03*
X016612Y003397D03*
D19*
X015345Y003213D03*
X015312Y004413D03*
X015245Y004413D03*
X015212Y004413D03*
X015145Y004413D03*
X015112Y004413D03*
X015045Y004413D03*
X015012Y004413D03*
X015212Y004713D03*
X015245Y004713D03*
X015312Y004713D03*
X015512Y006013D03*
X015312Y006113D03*
X015245Y006113D03*
X015212Y006113D03*
X015145Y006113D03*
X015112Y006113D03*
X015045Y006113D03*
X015012Y006113D03*
X015312Y007313D03*
X015345Y007313D03*
X015412Y007913D03*
X015412Y008113D03*
X015345Y008113D03*
X015312Y008113D03*
X015112Y008113D03*
X015045Y008113D03*
X015012Y008113D03*
X016812Y005913D03*
X015412Y001613D03*
X015312Y001613D03*
D20*
X015112Y002480D03*
X015645Y003480D03*
X015445Y004047D03*
X015412Y004047D03*
X015145Y003747D03*
X015012Y004947D03*
D21*
X015012Y005446D03*
X015512Y008046D03*
X015145Y001513D03*
D22*
X015145Y001780D03*
X015145Y002347D03*
X015212Y002347D03*
X015245Y002347D03*
X015312Y002347D03*
X015345Y002347D03*
X015512Y002347D03*
X015545Y002347D03*
X015612Y002347D03*
X015645Y002347D03*
X015145Y002580D03*
X015145Y001180D03*
X015212Y001180D03*
X015245Y001180D03*
X015312Y001180D03*
X015345Y001180D03*
X015412Y001180D03*
X015445Y001180D03*
X015512Y001180D03*
X017545Y004047D03*
X016345Y004780D03*
X015645Y005080D03*
X015612Y005080D03*
X015545Y005080D03*
X015512Y005080D03*
X015512Y004847D03*
X015088Y005419D03*
X015145Y005580D03*
X015145Y005780D03*
X015112Y005780D03*
X015045Y005780D03*
X015012Y005780D03*
X015345Y005580D03*
X015412Y006447D03*
X015445Y006447D03*
X015345Y006947D03*
X015312Y006947D03*
X015245Y006947D03*
X015212Y006947D03*
X015145Y006980D03*
X015212Y007280D03*
X015312Y007647D03*
X015345Y007647D03*
X015412Y007647D03*
X015312Y007847D03*
X015112Y007647D03*
X015045Y007647D03*
X015012Y007647D03*
X015445Y007280D03*
X015512Y006980D03*
X015645Y007647D03*
D23*
X015112Y006613D03*
X015045Y006613D03*
X015012Y006613D03*
X015112Y004913D03*
X015345Y003713D03*
X015612Y003480D03*
X015212Y002746D03*
X015045Y001946D03*
X015045Y001346D03*
X015645Y001346D03*
D24*
X015545Y003297D03*
X015145Y003297D03*
X015220Y003654D03*
X015245Y006597D03*
X015312Y006697D03*
X015012Y007130D03*
D25*
X015045Y002630D03*
D26*
X015045Y003763D03*
D27*
X015045Y004930D03*
X015112Y005430D03*
X015021Y005502D03*
X015412Y005430D03*
X015412Y005930D03*
X015445Y005930D03*
X015545Y006630D03*
X015112Y007130D03*
X015445Y004930D03*
D28*
X015345Y005163D03*
X015145Y005163D03*
X015045Y005430D03*
X015445Y005430D03*
X015612Y006630D03*
X015612Y007130D03*
D29*
X015045Y007113D03*
X016912Y006513D03*
X015345Y001713D03*
D30*
X015079Y001363D03*
D31*
X015079Y001946D03*
X015079Y004913D03*
X015079Y006613D03*
D32*
X015079Y002630D03*
D33*
X015079Y003746D03*
D34*
X015079Y004413D03*
X015179Y004413D03*
X015279Y004413D03*
X015279Y004713D03*
X015279Y006113D03*
X015179Y006113D03*
X015079Y006113D03*
X015379Y007313D03*
X015379Y008113D03*
X015079Y008113D03*
X015679Y008113D03*
X015179Y002913D03*
X015379Y002613D03*
X015179Y002113D03*
X015279Y001613D03*
D35*
X015079Y005430D03*
X015579Y006630D03*
D36*
X015279Y006947D03*
X015179Y007280D03*
X015079Y007647D03*
X015379Y007647D03*
X015379Y007880D03*
X015679Y007647D03*
X015479Y007280D03*
X015179Y005780D03*
X015079Y005780D03*
X015055Y005152D03*
X015579Y005080D03*
X015679Y005080D03*
X015479Y004580D03*
X015479Y003680D03*
X015579Y002347D03*
X015379Y002347D03*
X015279Y002347D03*
X015179Y002347D03*
X015179Y001180D03*
X015279Y001180D03*
X015379Y001180D03*
X015479Y001180D03*
X016679Y003380D03*
D37*
X015179Y003796D03*
X015079Y007130D03*
D38*
X015112Y001380D03*
X015545Y001380D03*
D39*
X015445Y001596D03*
X015245Y001596D03*
X015112Y001796D03*
X015145Y002096D03*
X015345Y002096D03*
X015345Y002596D03*
X015512Y002763D03*
X015345Y002896D03*
X015145Y002896D03*
X015245Y003230D03*
X015312Y003230D03*
X015412Y003230D03*
X015445Y003230D03*
X015512Y003663D03*
X015445Y003696D03*
X015120Y003587D03*
X015145Y004196D03*
X015345Y004196D03*
X015345Y004430D03*
X015345Y004730D03*
X015145Y004730D03*
X015512Y005430D03*
X015345Y005796D03*
X015345Y006096D03*
X015512Y006463D03*
X015512Y006763D03*
X015545Y006996D03*
X015512Y007263D03*
X015412Y007296D03*
X015245Y007296D03*
X015145Y007263D03*
X015345Y007863D03*
X015612Y007630D03*
X015645Y008096D03*
X015145Y006496D03*
X016545Y005230D03*
X016045Y003863D03*
D40*
X015545Y003647D03*
X015512Y003280D03*
X015212Y003247D03*
X015187Y003637D03*
X015512Y004047D03*
X015112Y004180D03*
X015112Y002880D03*
X015112Y002080D03*
X015512Y001947D03*
X016845Y006047D03*
X015545Y007247D03*
X015612Y008080D03*
D41*
X015112Y003580D03*
D42*
X015279Y004080D03*
X015479Y004947D03*
X015055Y005519D03*
X015279Y002780D03*
X015279Y001980D03*
X015179Y001680D03*
D43*
X015379Y002096D03*
X015479Y001596D03*
X015179Y002596D03*
X015379Y002896D03*
X015379Y003230D03*
X015279Y003230D03*
X015179Y003263D03*
X015179Y004196D03*
X015379Y004196D03*
X015179Y004730D03*
X015379Y005296D03*
X015479Y006463D03*
X015179Y006963D03*
X015279Y007296D03*
D44*
X015379Y006847D03*
X015479Y006880D03*
X015179Y005147D03*
X015479Y004047D03*
X015479Y002747D03*
X015479Y002347D03*
X015479Y001947D03*
D45*
X015379Y005813D03*
X015179Y006513D03*
X015679Y006613D03*
X015679Y007113D03*
X015579Y007613D03*
D46*
X015279Y007913D03*
X015179Y007913D03*
D47*
X015212Y005430D03*
X015245Y005430D03*
X015312Y005430D03*
D48*
X015212Y006563D03*
X015545Y008063D03*
X015312Y004163D03*
X016012Y003563D03*
X015312Y002863D03*
X015312Y002063D03*
X015512Y001563D03*
D49*
X015312Y003630D03*
X015245Y003630D03*
X015445Y004497D03*
X015021Y005069D03*
X015645Y006630D03*
X015645Y007130D03*
X015445Y008030D03*
D50*
X015479Y008030D03*
X015479Y005430D03*
X015279Y003630D03*
D51*
X015279Y005430D03*
D52*
X015279Y006630D03*
D53*
X015345Y006713D03*
X016612Y005013D03*
D54*
X015379Y001713D03*
D55*
X015379Y003730D03*
X015379Y004597D03*
D56*
X015379Y005047D03*
X015379Y005547D03*
X015379Y006080D03*
X015579Y008080D03*
X015154Y003604D03*
X015479Y003247D03*
D57*
X015412Y002363D03*
D58*
X015412Y004747D03*
D59*
X015412Y006847D03*
X016945Y006880D03*
D60*
X015445Y002347D03*
D61*
X015679Y001313D03*
X015479Y005913D03*
X015579Y007113D03*
X016879Y006313D03*
D62*
X015479Y007563D03*
X015679Y003463D03*
D63*
X015579Y003480D03*
X015254Y003837D03*
X015579Y001380D03*
D64*
X015612Y001363D03*
D65*
X016045Y002646D03*
X015912Y002780D03*
X015945Y002880D03*
X016012Y002946D03*
X016212Y002880D03*
X016245Y002913D03*
X016212Y003346D03*
X016412Y003480D03*
X016445Y003480D03*
X016545Y003546D03*
X016645Y003380D03*
X016745Y003280D03*
X016712Y003713D03*
X016745Y004213D03*
X016312Y004513D03*
X016245Y004380D03*
X016212Y004280D03*
X016145Y004146D03*
X016112Y004046D03*
X015712Y003480D03*
X016512Y005180D03*
X016312Y005580D03*
X017545Y005280D03*
D66*
X016879Y004363D03*
X016779Y004263D03*
X016479Y003963D03*
X016379Y003863D03*
X016079Y003763D03*
X016079Y003363D03*
X016179Y003263D03*
X016379Y003063D03*
X016279Y002963D03*
X015879Y002763D03*
X016879Y003663D03*
X016979Y003763D03*
X017079Y003863D03*
X016479Y004763D03*
X016479Y005063D03*
X016479Y005163D03*
X016579Y005263D03*
X016379Y005663D03*
D67*
X016379Y004947D03*
X016579Y004880D03*
X016979Y004480D03*
X017179Y004747D03*
X017279Y004280D03*
X017379Y004147D03*
X017379Y003747D03*
X017316Y003679D03*
X016779Y003747D03*
X016679Y004147D03*
X016179Y003747D03*
X015979Y003547D03*
X016179Y003347D03*
X016179Y003147D03*
X016479Y003180D03*
X016579Y003280D03*
X016879Y006580D03*
D68*
X016945Y006647D03*
X016912Y006280D03*
X016712Y005747D03*
X016445Y005380D03*
X016412Y005180D03*
X016512Y005080D03*
X016945Y004447D03*
X017178Y004224D03*
X017212Y004233D03*
X017245Y004247D03*
X017300Y004297D03*
X017336Y004312D03*
X017372Y004335D03*
X017445Y004380D03*
X017412Y004180D03*
X017345Y004147D03*
X017245Y004047D03*
X017145Y004180D03*
X017112Y004147D03*
X017045Y004080D03*
X017012Y004047D03*
X016945Y003980D03*
X016912Y003947D03*
X016812Y003847D03*
X016812Y003780D03*
X016712Y003480D03*
X016945Y003280D03*
X017045Y003347D03*
X016445Y003147D03*
X016312Y003280D03*
X016212Y003180D03*
X016112Y003147D03*
X016112Y003047D03*
X016045Y002980D03*
X016112Y003347D03*
X016145Y003347D03*
X016112Y003747D03*
X016245Y003780D03*
X016512Y003980D03*
X017312Y004947D03*
X017425Y005119D03*
X017492Y005186D03*
X017525Y005219D03*
X016145Y002647D03*
D69*
X016112Y002763D03*
X016045Y003063D03*
X016245Y003363D03*
X016545Y003263D03*
X016812Y003563D03*
X016912Y003263D03*
X017145Y003463D03*
X017245Y003563D03*
X017344Y003695D03*
X017445Y003863D03*
X017512Y003963D03*
X017412Y004363D03*
X017545Y004463D03*
X017212Y004763D03*
X017112Y004663D03*
X017045Y004563D03*
X017412Y005063D03*
X016745Y005763D03*
X016445Y005163D03*
X016312Y005463D03*
X016512Y004763D03*
X016612Y004063D03*
X016345Y003863D03*
X016212Y003763D03*
D70*
X016145Y003730D03*
X016045Y003397D03*
X016145Y003197D03*
X016145Y003097D03*
X016245Y003230D03*
X016345Y003330D03*
X016312Y003397D03*
X016345Y003430D03*
X016512Y003530D03*
X016612Y003630D03*
X016645Y003630D03*
X016745Y003730D03*
X016912Y003697D03*
X016945Y003730D03*
X017012Y003797D03*
X017212Y004030D03*
X017412Y003797D03*
X017445Y004197D03*
X017512Y004197D03*
X017545Y004197D03*
X017512Y004430D03*
X017145Y004697D03*
X017245Y004830D03*
X017345Y004997D03*
X017445Y005097D03*
X017012Y004530D03*
X016912Y004397D03*
X016845Y004330D03*
X016812Y004297D03*
X016712Y004197D03*
X016545Y004030D03*
X016445Y003930D03*
X016745Y003497D03*
X016712Y003297D03*
X016812Y003230D03*
X016845Y003230D03*
X017012Y003330D03*
X017112Y003430D03*
X016512Y003230D03*
X016412Y003130D03*
X016345Y003030D03*
X016312Y002997D03*
X016145Y002797D03*
X016112Y002630D03*
X016445Y004730D03*
X016412Y004997D03*
X016445Y005030D03*
X016512Y005330D03*
X016412Y005397D03*
X016345Y005430D03*
X016245Y005530D03*
X016345Y005630D03*
X016412Y005697D03*
X016445Y005697D03*
X016612Y005730D03*
X016645Y005730D03*
D71*
X016679Y005730D03*
X016579Y005730D03*
X016579Y005130D03*
X017079Y004597D03*
X017279Y004897D03*
X017379Y004997D03*
X017479Y004430D03*
X017479Y004197D03*
X017279Y004097D03*
X017179Y003497D03*
X017079Y003397D03*
X016979Y003297D03*
X016879Y003230D03*
X016779Y003530D03*
X016579Y004030D03*
X016279Y003797D03*
X016179Y004230D03*
X016279Y003397D03*
X016279Y003230D03*
X016179Y002830D03*
X016079Y002730D03*
X016979Y007397D03*
D72*
X016479Y005713D03*
X016379Y005413D03*
X016479Y004913D03*
X016979Y004013D03*
X017079Y004113D03*
X017179Y004013D03*
X017179Y004213D03*
X016879Y003913D03*
X016479Y003513D03*
X016079Y003113D03*
X016079Y003013D03*
X016079Y003913D03*
X017459Y005152D03*
X017479Y005313D03*
D73*
X017512Y005313D03*
X016545Y005713D03*
X016512Y005713D03*
X016412Y004713D03*
X016645Y004113D03*
X016412Y003913D03*
X016312Y003813D03*
X016845Y003813D03*
X016861Y003880D03*
X017045Y003813D03*
X017112Y003913D03*
X017151Y003952D03*
X017171Y003973D03*
X017312Y004113D03*
X017212Y003513D03*
X016845Y003613D03*
X016945Y007113D03*
D74*
X016345Y004563D03*
D75*
X010380Y001180D03*
X008380Y001180D03*
D76*
X015885Y005885D02*
X015985Y005885D01*
X015935Y005885D02*
X015985Y005935D01*
X015985Y005960D01*
X015960Y006008D02*
X015985Y006033D01*
X015985Y006083D01*
X015960Y006108D01*
X015935Y006108D01*
X015935Y006008D01*
X015910Y006008D02*
X015960Y006008D01*
X015910Y006008D02*
X015885Y006033D01*
X015885Y006083D01*
X015885Y006205D02*
X015985Y006255D01*
X015985Y006155D02*
X015885Y006205D01*
X015910Y006450D02*
X016010Y006550D01*
X015910Y006550D01*
X015885Y006525D01*
X015885Y006475D01*
X015910Y006450D01*
X016010Y006450D01*
X016035Y006475D01*
X016035Y006525D01*
X016010Y006550D01*
X015985Y006597D02*
X016035Y006647D01*
X015885Y006647D01*
X015885Y006597D02*
X015885Y006697D01*
X015935Y006892D02*
X015985Y006892D01*
X016035Y006942D01*
X016010Y006990D02*
X016035Y007015D01*
X016035Y007065D01*
X016010Y007090D01*
X015985Y007090D01*
X015885Y006990D01*
X015885Y007090D01*
X015910Y007137D02*
X016010Y007237D01*
X015910Y007237D01*
X015885Y007212D01*
X015885Y007162D01*
X015910Y007137D01*
X016010Y007137D01*
X016035Y007162D01*
X016035Y007212D01*
X016010Y007237D01*
X015985Y007285D02*
X016035Y007335D01*
X015885Y007335D01*
X015885Y007285D02*
X015885Y007385D01*
X015910Y007432D02*
X015885Y007457D01*
X015885Y007507D01*
X015910Y007532D01*
X015935Y007532D01*
X015960Y007507D01*
X015960Y007432D01*
X015910Y007432D01*
X015960Y007432D02*
X016010Y007482D01*
X016035Y007532D01*
X016035Y007579D02*
X015985Y007629D01*
X015935Y007629D01*
X015885Y007579D01*
X015885Y006942D02*
X015935Y006892D01*
D77*
X010670Y005907D02*
X010670Y005813D01*
X010647Y005790D01*
X010600Y005790D01*
X010577Y005813D01*
X010577Y005860D01*
X010623Y005860D01*
X010577Y005907D02*
X010600Y005930D01*
X010647Y005930D01*
X010670Y005907D01*
X010523Y005883D02*
X010523Y005790D01*
X010523Y005837D02*
X010476Y005883D01*
X010453Y005883D01*
X010400Y005860D02*
X010400Y005813D01*
X010377Y005790D01*
X010330Y005790D01*
X010306Y005813D01*
X010306Y005860D01*
X010330Y005883D01*
X010377Y005883D01*
X010400Y005860D01*
X010253Y005883D02*
X010253Y005813D01*
X010229Y005790D01*
X010159Y005790D01*
X010159Y005883D01*
X010105Y005883D02*
X010035Y005883D01*
X010012Y005860D01*
X010012Y005790D01*
X009958Y005813D02*
X009958Y005860D01*
X009935Y005883D01*
X009865Y005883D01*
X009865Y005930D02*
X009865Y005790D01*
X009935Y005790D01*
X009958Y005813D01*
X010105Y005790D02*
X010105Y005883D01*
X009663Y005930D02*
X009663Y005790D01*
X009570Y005790D01*
X009516Y005790D02*
X009469Y005790D01*
X009493Y005790D02*
X009493Y005883D01*
X009516Y005883D01*
X009493Y005930D02*
X009493Y005953D01*
X009394Y005907D02*
X009371Y005930D01*
X009394Y005907D02*
X009394Y005790D01*
X009371Y005860D02*
X009418Y005860D01*
X009320Y005883D02*
X009273Y005883D01*
X009296Y005907D02*
X009296Y005813D01*
X009273Y005790D01*
D78*
X004790Y005430D02*
X004270Y005430D01*
X004270Y006430D02*
X004790Y006430D01*
X004790Y007430D02*
X004270Y007430D01*
X004270Y008430D02*
X004790Y008430D01*
X004790Y009430D02*
X004270Y009430D01*
X004270Y010430D02*
X004790Y010430D01*
X004790Y011430D02*
X004270Y011430D01*
X004270Y012430D02*
X004790Y012430D01*
X004790Y013430D02*
X004270Y013430D01*
X004270Y014430D02*
X004790Y014430D01*
X004790Y015430D02*
X004270Y015430D01*
X004270Y016430D02*
X004790Y016430D01*
X004790Y017430D02*
X004270Y017430D01*
X004270Y018430D02*
X004790Y018430D01*
X001790Y018430D02*
X001270Y018430D01*
X001270Y017430D02*
X001790Y017430D01*
X001790Y016430D02*
X001270Y016430D01*
X001270Y015430D02*
X001790Y015430D01*
X001790Y014430D02*
X001270Y014430D01*
X001270Y013430D02*
X001790Y013430D01*
X001790Y012430D02*
X001270Y012430D01*
X001270Y011430D02*
X001790Y011430D01*
X001790Y010430D02*
X001270Y010430D01*
X001270Y009430D02*
X001790Y009430D01*
X001790Y008430D02*
X001270Y008430D01*
X001270Y007430D02*
X001790Y007430D01*
X001790Y006430D02*
X001270Y006430D01*
X001270Y005430D02*
X001790Y005430D01*
D79*
X012680Y014680D03*
X012680Y015680D03*
X012680Y016680D03*
X012680Y017680D03*
X015680Y017680D03*
X015680Y016680D03*
X015680Y015680D03*
X015680Y014680D03*
D80*
X014180Y010430D03*
X014180Y009430D03*
X012530Y008380D03*
X014180Y006180D03*
X014180Y003180D03*
X009180Y007680D03*
X009180Y008680D03*
X007530Y007680D03*
X006480Y007680D03*
X006480Y010680D03*
X006180Y012180D03*
X007430Y012180D03*
X007530Y010680D03*
X009180Y011180D03*
X009180Y012180D03*
X009180Y014680D03*
X009180Y015680D03*
X009180Y018180D03*
X009180Y019180D03*
X009180Y021680D03*
X009180Y022680D03*
X006180Y019180D03*
X006180Y016180D03*
X006180Y015180D03*
X007430Y015180D03*
X011630Y015680D03*
X011630Y012680D03*
X012530Y011380D03*
D81*
X014680Y012480D03*
X014680Y013480D03*
X016280Y012480D03*
X016680Y014680D03*
X016680Y015680D03*
X005580Y010380D03*
X005580Y009380D03*
X003030Y008480D03*
X003030Y010480D03*
D82*
X001680Y001680D03*
X001680Y002680D03*
X002680Y002680D03*
X002680Y001680D03*
X003680Y001680D03*
X003680Y002680D03*
D83*
X008630Y023680D02*
X008630Y024280D01*
X009730Y024280D02*
X009730Y023680D01*
D84*
X005149Y023477D02*
X005149Y022883D01*
X004164Y022883D02*
X004164Y023477D01*
X003180Y023477D02*
X003180Y022883D01*
X003180Y021016D02*
X003180Y020423D01*
X005141Y020423D02*
X005141Y021016D01*
D85*
X016280Y013480D03*
D86*
X017080Y019088D02*
X017080Y020273D01*
X017080Y022288D02*
X017080Y023473D01*
D87*
X009969Y016880D03*
X008591Y016880D03*
X008591Y013880D03*
X009969Y013880D03*
X009869Y009780D03*
X008491Y009780D03*
X008491Y003780D03*
X009869Y003780D03*
X016580Y009391D03*
X016580Y010769D03*
X009869Y020680D03*
X008491Y020680D03*
X002778Y007680D03*
X002778Y006302D03*
D88*
X006480Y008720D03*
X006480Y009840D03*
X007580Y009740D03*
X007580Y008620D03*
X007480Y013120D03*
X007480Y014240D03*
X006180Y014240D03*
X006180Y013120D03*
X006180Y017120D03*
X006180Y018240D03*
X011680Y014740D03*
X011680Y013620D03*
X012580Y010440D03*
X012580Y009320D03*
X014180Y005240D03*
X014180Y004120D03*
D89*
X013580Y012329D03*
X013580Y013431D03*
X014780Y014629D03*
X014780Y015731D03*
X005580Y008531D03*
X005580Y007429D03*
D90*
X004580Y004180D03*
X010480Y005180D03*
D91*
X003531Y004580D03*
X002429Y004580D03*
D92*
X002420Y003680D03*
X003540Y003680D03*
D93*
X013647Y019730D02*
X014913Y019730D01*
X014913Y022080D02*
X013647Y022080D01*
X013683Y024138D02*
X014949Y024138D01*
D94*
X011334Y006193D03*
X012306Y005197D03*
X009361Y005201D03*
X007397Y006189D03*
X006397Y005197D03*
D95*
X007400Y001268D03*
X011334Y001268D03*
D96*
X010680Y012680D03*
X010680Y013280D03*
X009280Y013280D03*
X003280Y012930D03*
X002780Y013930D03*
X003280Y011430D03*
X002880Y005594D03*
M02*
