%
M48
M72
T01C0.0236
T02C0.0276
T03C0.0320
T04C0.0354
T05C0.0394
T06C0.0400
T07C0.0433
T08C0.0440
T09C0.0551
T10C0.0790
T11C0.0866
%
T01
X2880Y5594
X3280Y11430
X3280Y12930
X2780Y13930
X9280Y13280
X10680Y13280
X10680Y12680
T02
X14680Y12480
X14680Y13480
X16280Y13480
X16280Y12480
X16680Y14680
X16680Y15680
X5580Y10380
X5580Y9380
X3030Y8480
X3030Y10480
T03
X1530Y10430
X1530Y9430
X1530Y8430
X1530Y7430
X1530Y6430
X1530Y5430
X4530Y5430
X4530Y6430
X4530Y7430
X4530Y8430
X4530Y9430
X4530Y10430
X4530Y11430
X4530Y12430
X4530Y13430
X4530Y14430
X4530Y15430
X4530Y16430
X4530Y17430
X4530Y18430
X1530Y18430
X1530Y17430
X1530Y16430
X1530Y15430
X1530Y14430
X1530Y13430
X1530Y12430
X1530Y11430
X9180Y11180
X9180Y12180
X9180Y14680
X9180Y15680
X9180Y18180
X9180Y19180
X9180Y21680
X9180Y22680
X12680Y17680
X12680Y16680
X12680Y15680
X12680Y14680
X15680Y14680
X15680Y15680
X15680Y16680
X15680Y17680
X14180Y10430
X14180Y9430
X9180Y8680
X9180Y7680
T04
X1680Y1680
X1680Y2680
X2680Y2680
X2680Y1680
X3680Y1680
X3680Y2680
X6480Y7680
X7530Y7680
X7530Y10680
X7430Y12180
X6480Y10680
X6180Y12180
X6180Y15180
X6180Y16180
X7430Y15180
X6180Y19180
X11630Y15680
X11630Y12680
X12530Y11380
X12530Y8380
X14180Y6180
X14180Y3180
T05
X5141Y20719
X5149Y23180
X4164Y23180
X3180Y23180
X3180Y20719
T06
X8630Y23980
X9730Y23980
T07
X10380Y1180
X8380Y1180
T08
X10480Y5180
X4580Y4180
T09
X6397Y5197
X7397Y6189
X9361Y5201
X11334Y6193
X12306Y5197
X11334Y1268
X7400Y1268
T10
X17080Y19680
X17080Y22880
T11
X14280Y22080
X14316Y24138
X14280Y19730
M30
