G75*
%MOIN*%
%OFA0B0*%
%FSLAX24Y24*%
%IPPOS*%
%LPD*%
%AMOC8*
5,1,8,0,0,1.08239X$1,22.5*
%
%ADD10C,0.0520*%
%ADD11C,0.0660*%
%ADD12C,0.0740*%
%ADD13C,0.0650*%
%ADD14C,0.0640*%
%ADD15C,0.0600*%
%ADD16C,0.0594*%
%ADD17R,0.0650X0.0650*%
%ADD18C,0.1185*%
%ADD19R,0.0591X0.0591*%
%ADD20R,0.0710X0.0630*%
%ADD21R,0.0709X0.0630*%
%ADD22OC8,0.1000*%
%ADD23R,0.0630X0.0709*%
%ADD24R,0.0630X0.0710*%
%ADD25C,0.1266*%
%ADD26C,0.0827*%
%ADD27R,0.0396X0.0396*%
%ADD28C,0.0160*%
%ADD29C,0.0120*%
D10*
X001270Y005430D02*
X001790Y005430D01*
X001790Y006430D02*
X001270Y006430D01*
X001270Y007430D02*
X001790Y007430D01*
X001790Y008430D02*
X001270Y008430D01*
X001270Y009430D02*
X001790Y009430D01*
X001790Y010430D02*
X001270Y010430D01*
X001270Y011430D02*
X001790Y011430D01*
X001790Y012430D02*
X001270Y012430D01*
X001270Y013430D02*
X001790Y013430D01*
X001790Y014430D02*
X001270Y014430D01*
X001270Y015430D02*
X001790Y015430D01*
X001790Y016430D02*
X001270Y016430D01*
X001270Y017430D02*
X001790Y017430D01*
X001790Y018430D02*
X001270Y018430D01*
X004270Y018430D02*
X004790Y018430D01*
X004790Y017430D02*
X004270Y017430D01*
X004270Y016430D02*
X004790Y016430D01*
X004790Y015430D02*
X004270Y015430D01*
X004270Y014430D02*
X004790Y014430D01*
X004790Y013430D02*
X004270Y013430D01*
X004270Y012430D02*
X004790Y012430D01*
X004790Y011430D02*
X004270Y011430D01*
X004270Y010430D02*
X004790Y010430D01*
X004790Y009430D02*
X004270Y009430D01*
X004270Y008430D02*
X004790Y008430D01*
X004790Y007430D02*
X004270Y007430D01*
X004270Y006430D02*
X004790Y006430D01*
X004790Y005430D02*
X004270Y005430D01*
D11*
X012680Y014680D03*
X012680Y015680D03*
X012680Y016680D03*
X012680Y017680D03*
X015680Y017680D03*
X015680Y016680D03*
X015680Y015680D03*
X015680Y014680D03*
D12*
X014180Y010430D03*
X014180Y009430D03*
X012530Y008380D03*
X014180Y006180D03*
X014180Y003180D03*
X009180Y007680D03*
X009180Y008680D03*
X007530Y007680D03*
X006480Y007680D03*
X006480Y010680D03*
X006180Y012180D03*
X007430Y012180D03*
X007530Y010680D03*
X009180Y011180D03*
X009180Y012180D03*
X009180Y014680D03*
X009180Y015680D03*
X009180Y018180D03*
X009180Y019180D03*
X009180Y021680D03*
X009180Y022680D03*
X006180Y019180D03*
X006180Y016180D03*
X006180Y015180D03*
X007430Y015180D03*
X011630Y015680D03*
X011630Y012680D03*
X012530Y011380D03*
D13*
X014680Y012480D03*
X014680Y013480D03*
X016280Y012480D03*
X016680Y014680D03*
X016680Y015680D03*
X005580Y010380D03*
X005580Y009380D03*
X003030Y008480D03*
X003030Y010480D03*
D14*
X002680Y002680D03*
X002680Y001680D03*
X001680Y001680D03*
X001680Y002680D03*
X003680Y002680D03*
X003680Y001680D03*
D15*
X008630Y023680D02*
X008630Y024280D01*
X009730Y024280D02*
X009730Y023680D01*
D16*
X005149Y023477D02*
X005149Y022883D01*
X004164Y022883D02*
X004164Y023477D01*
X003180Y023477D02*
X003180Y022883D01*
X003180Y021016D02*
X003180Y020423D01*
X005141Y020423D02*
X005141Y021016D01*
D17*
X016280Y013480D03*
D18*
X017080Y019088D02*
X017080Y020273D01*
X017080Y022288D02*
X017080Y023473D01*
D19*
X009969Y016880D03*
X008591Y016880D03*
X008591Y013880D03*
X009969Y013880D03*
X009869Y009780D03*
X008491Y009780D03*
X008491Y003780D03*
X009869Y003780D03*
X016580Y009391D03*
X016580Y010769D03*
X009869Y020680D03*
X008491Y020680D03*
X002778Y007680D03*
X002778Y006302D03*
D20*
X006480Y008720D03*
X006480Y009840D03*
X007580Y009740D03*
X007580Y008620D03*
X007480Y013120D03*
X007480Y014240D03*
X006180Y014240D03*
X006180Y013120D03*
X006180Y017120D03*
X006180Y018240D03*
X011680Y014740D03*
X011680Y013620D03*
X012580Y010440D03*
X012580Y009320D03*
X014180Y005240D03*
X014180Y004120D03*
D21*
X013580Y012329D03*
X013580Y013431D03*
X014780Y014629D03*
X014780Y015731D03*
X005580Y008531D03*
X005580Y007429D03*
D22*
X004580Y004180D03*
X010480Y005180D03*
D23*
X003531Y004580D03*
X002429Y004580D03*
D24*
X002420Y003680D03*
X003540Y003680D03*
D25*
X013647Y019730D02*
X014913Y019730D01*
X014913Y022080D02*
X013647Y022080D01*
X013683Y024138D02*
X014949Y024138D01*
D26*
X011334Y006193D03*
X012306Y005197D03*
X009361Y005201D03*
X007397Y006189D03*
X006397Y005197D03*
D27*
X002880Y005594D03*
X003280Y011430D03*
X003280Y012930D03*
X002780Y013930D03*
X009280Y013280D03*
X010680Y013280D03*
X010680Y012680D03*
D28*
X018180Y000180D02*
X000180Y000180D01*
X000180Y025180D01*
X018180Y025180D01*
X018180Y000180D01*
X017620Y000740D02*
X011874Y000740D01*
X011974Y000840D01*
X012089Y001118D01*
X012089Y001418D01*
X011974Y001696D01*
X011762Y001909D01*
X011484Y002024D01*
X011183Y002024D01*
X010906Y001909D01*
X010769Y001773D01*
X010519Y001877D01*
X010241Y001877D01*
X009985Y001770D01*
X009790Y001575D01*
X009683Y001319D01*
X009683Y001041D01*
X009790Y000785D01*
X009835Y000740D01*
X008925Y000740D01*
X008970Y000785D01*
X009077Y001041D01*
X009077Y001319D01*
X008970Y001575D01*
X008775Y001770D01*
X008519Y001877D01*
X008241Y001877D01*
X007985Y001770D01*
X007976Y001761D01*
X007828Y001909D01*
X007551Y002024D01*
X007250Y002024D01*
X006972Y001909D01*
X006760Y001696D01*
X006645Y001418D01*
X006645Y001118D01*
X006760Y000840D01*
X006860Y000740D01*
X000740Y000740D01*
X000740Y007190D01*
X000916Y007190D01*
X001032Y007074D01*
X001186Y007010D01*
X001874Y007010D01*
X002028Y007074D01*
X002146Y007192D01*
X002210Y007346D01*
X002210Y007514D01*
X002146Y007668D01*
X002028Y007786D01*
X001874Y007850D01*
X001186Y007850D01*
X001032Y007786D01*
X001020Y007774D01*
X001020Y008086D01*
X001032Y008074D01*
X001186Y008010D01*
X001874Y008010D01*
X002028Y008074D01*
X002146Y008192D01*
X002210Y008346D01*
X002210Y008514D01*
X002146Y008668D01*
X002028Y008786D01*
X001874Y008850D01*
X001186Y008850D01*
X001032Y008786D01*
X001020Y008774D01*
X001020Y009086D01*
X001032Y009074D01*
X001186Y009010D01*
X001874Y009010D01*
X002028Y009074D01*
X002144Y009190D01*
X002782Y009190D01*
X002785Y008904D01*
X002755Y008891D01*
X002619Y008755D01*
X002545Y008576D01*
X002545Y008384D01*
X002564Y008338D01*
X002538Y008276D01*
X002538Y008135D01*
X002417Y008135D01*
X002323Y008042D01*
X002323Y007318D01*
X002417Y007225D01*
X003140Y007225D01*
X003234Y007318D01*
X003234Y008039D01*
X003305Y008069D01*
X003321Y008085D01*
X003321Y006638D01*
X003253Y006542D01*
X003234Y006542D01*
X003234Y006664D01*
X003140Y006757D01*
X002417Y006757D01*
X002323Y006664D01*
X002323Y005940D01*
X002417Y005847D01*
X002522Y005847D01*
X002522Y005329D01*
X002616Y005236D01*
X003144Y005236D01*
X003238Y005329D01*
X003238Y005540D01*
X003828Y005540D01*
X003868Y005557D01*
X003850Y005514D01*
X003850Y005346D01*
X003914Y005192D01*
X004032Y005074D01*
X004186Y005010D01*
X004874Y005010D01*
X005028Y005074D01*
X005146Y005192D01*
X005210Y005346D01*
X005210Y005514D01*
X005146Y005668D01*
X005028Y005786D01*
X004874Y005850D01*
X004186Y005850D01*
X004032Y005786D01*
X004020Y005774D01*
X004020Y006086D01*
X004032Y006074D01*
X004186Y006010D01*
X004874Y006010D01*
X005028Y006074D01*
X005146Y006192D01*
X005210Y006346D01*
X005210Y006514D01*
X005146Y006668D01*
X005028Y006786D01*
X004874Y006850D01*
X004186Y006850D01*
X004032Y006786D01*
X004020Y006774D01*
X004020Y007086D01*
X004032Y007074D01*
X004186Y007010D01*
X004874Y007010D01*
X005028Y007074D01*
X005046Y007092D01*
X005046Y007090D01*
X005058Y007044D01*
X005082Y007003D01*
X005115Y006970D01*
X005156Y006946D01*
X005202Y006934D01*
X005503Y006934D01*
X005503Y007351D01*
X005657Y007351D01*
X005657Y006934D01*
X005958Y006934D01*
X006004Y006946D01*
X006045Y006970D01*
X006078Y007003D01*
X006102Y007044D01*
X006114Y007090D01*
X006114Y007296D01*
X006180Y007231D01*
X006375Y007150D01*
X006585Y007150D01*
X006780Y007231D01*
X006929Y007380D01*
X007005Y007563D01*
X007081Y007380D01*
X007230Y007231D01*
X007425Y007150D01*
X007635Y007150D01*
X007830Y007231D01*
X007979Y007380D01*
X008060Y007575D01*
X008060Y007785D01*
X007979Y007980D01*
X007830Y008129D01*
X007792Y008145D01*
X008001Y008145D01*
X008095Y008239D01*
X008095Y009001D01*
X008001Y009095D01*
X007159Y009095D01*
X007065Y009001D01*
X007065Y008239D01*
X007159Y008145D01*
X007268Y008145D01*
X007230Y008129D01*
X007081Y007980D01*
X007005Y007797D01*
X006929Y007980D01*
X006780Y008129D01*
X006720Y008154D01*
X006720Y008245D01*
X006901Y008245D01*
X006995Y008339D01*
X006995Y009101D01*
X006901Y009195D01*
X006059Y009195D01*
X006007Y009143D01*
X006065Y009284D01*
X006065Y009365D01*
X006901Y009365D01*
X006995Y009459D01*
X006995Y010221D01*
X006901Y010315D01*
X006864Y010315D01*
X006929Y010380D01*
X007005Y010563D01*
X007081Y010380D01*
X007230Y010231D01*
X007268Y010215D01*
X007159Y010215D01*
X007065Y010121D01*
X007065Y009359D01*
X007159Y009265D01*
X008001Y009265D01*
X008095Y009359D01*
X008129Y009325D01*
X008853Y009325D01*
X008946Y009418D01*
X008946Y010142D01*
X008853Y010235D01*
X008129Y010235D01*
X008055Y010161D01*
X008001Y010215D01*
X007792Y010215D01*
X007830Y010231D01*
X007979Y010380D01*
X008060Y010575D01*
X008060Y010785D01*
X007979Y010980D01*
X007830Y011129D01*
X007635Y011210D01*
X007526Y011210D01*
X007566Y011227D01*
X007633Y011294D01*
X007670Y011382D01*
X007670Y011706D01*
X007730Y011731D01*
X007879Y011880D01*
X007960Y012075D01*
X007960Y012285D01*
X007879Y012480D01*
X007730Y012629D01*
X007692Y012645D01*
X007901Y012645D01*
X007938Y012682D01*
X007944Y012677D01*
X008032Y012640D01*
X008877Y012640D01*
X008822Y012600D01*
X008760Y012538D01*
X008710Y012468D01*
X008670Y012391D01*
X008644Y012309D01*
X008630Y012223D01*
X008630Y012180D01*
X009180Y012180D01*
X009730Y012180D01*
X009730Y012223D01*
X009716Y012309D01*
X009690Y012391D01*
X009650Y012468D01*
X009600Y012538D01*
X009538Y012600D01*
X009483Y012640D01*
X010322Y012640D01*
X010322Y012416D01*
X010416Y012322D01*
X010944Y012322D01*
X011038Y012416D01*
X011038Y012944D01*
X011002Y012980D01*
X011038Y013016D01*
X011038Y013544D01*
X010944Y013638D01*
X010444Y013638D01*
X010444Y013812D01*
X010037Y013812D01*
X010037Y013948D01*
X010444Y013948D01*
X010444Y014199D01*
X010432Y014245D01*
X010408Y014286D01*
X010375Y014319D01*
X010334Y014343D01*
X010288Y014355D01*
X010037Y014355D01*
X010037Y013948D01*
X009901Y013948D01*
X009901Y014355D01*
X009650Y014355D01*
X009604Y014343D01*
X009577Y014327D01*
X009629Y014380D01*
X009710Y014575D01*
X009710Y014785D01*
X009629Y014980D01*
X009480Y015129D01*
X009386Y015169D01*
X009391Y015170D01*
X009468Y015210D01*
X009538Y015260D01*
X009600Y015322D01*
X009650Y015392D01*
X009690Y015469D01*
X009716Y015551D01*
X009730Y015637D01*
X009730Y015680D01*
X009730Y015723D01*
X009716Y015809D01*
X009690Y015891D01*
X009650Y015968D01*
X009600Y016038D01*
X009538Y016100D01*
X009468Y016150D01*
X009391Y016190D01*
X009309Y016216D01*
X009223Y016230D01*
X009180Y016230D01*
X009180Y015680D01*
X009180Y015680D01*
X009730Y015680D01*
X009180Y015680D01*
X009180Y015680D01*
X009180Y015680D01*
X008630Y015680D01*
X008630Y015723D01*
X008644Y015809D01*
X008670Y015891D01*
X008710Y015968D01*
X008760Y016038D01*
X008822Y016100D01*
X008892Y016150D01*
X008969Y016190D01*
X009051Y016216D01*
X009137Y016230D01*
X009180Y016230D01*
X009180Y015680D01*
X008630Y015680D01*
X008630Y015637D01*
X008644Y015551D01*
X008670Y015469D01*
X008710Y015392D01*
X008760Y015322D01*
X008822Y015260D01*
X008892Y015210D01*
X008969Y015170D01*
X008974Y015169D01*
X008880Y015129D01*
X008731Y014980D01*
X008650Y014785D01*
X008650Y014575D01*
X008731Y014380D01*
X008775Y014335D01*
X008714Y014335D01*
X008709Y014350D01*
X008700Y014362D01*
X008694Y014376D01*
X008671Y014399D01*
X008651Y014425D01*
X008638Y014433D01*
X008627Y014443D01*
X008596Y014456D01*
X008568Y014472D01*
X008553Y014474D01*
X008539Y014480D01*
X008506Y014480D01*
X008473Y014484D01*
X008458Y014480D01*
X007995Y014480D01*
X007995Y014621D01*
X007901Y014715D01*
X007692Y014715D01*
X007730Y014731D01*
X007879Y014880D01*
X007960Y015075D01*
X007960Y015285D01*
X007879Y015480D01*
X007730Y015629D01*
X007535Y015710D01*
X007325Y015710D01*
X007130Y015629D01*
X006981Y015480D01*
X006900Y015285D01*
X006900Y015075D01*
X006981Y014880D01*
X007130Y014731D01*
X007168Y014715D01*
X007059Y014715D01*
X006965Y014621D01*
X006965Y013920D01*
X006695Y013920D01*
X006695Y014621D01*
X006601Y014715D01*
X006442Y014715D01*
X006480Y014731D01*
X006629Y014880D01*
X006710Y015075D01*
X006710Y015285D01*
X006685Y015346D01*
X007083Y015744D01*
X007120Y015832D01*
X007120Y016981D01*
X008079Y017940D01*
X008706Y017940D01*
X008731Y017880D01*
X008880Y017731D01*
X008940Y017706D01*
X008940Y017335D01*
X008229Y017335D01*
X008136Y017242D01*
X008136Y016518D01*
X008229Y016425D01*
X008953Y016425D01*
X009046Y016518D01*
X009046Y016640D01*
X009228Y016640D01*
X009316Y016677D01*
X009383Y016744D01*
X009420Y016832D01*
X009420Y017706D01*
X009480Y017731D01*
X009629Y017880D01*
X009710Y018075D01*
X009710Y018285D01*
X009629Y018480D01*
X009480Y018629D01*
X009386Y018669D01*
X009391Y018670D01*
X009468Y018710D01*
X009538Y018760D01*
X009600Y018822D01*
X009650Y018892D01*
X009690Y018969D01*
X009716Y019051D01*
X009730Y019137D01*
X009730Y019180D01*
X009730Y019223D01*
X009716Y019309D01*
X009690Y019391D01*
X009650Y019468D01*
X009600Y019538D01*
X009538Y019600D01*
X009468Y019650D01*
X009391Y019690D01*
X009309Y019716D01*
X009223Y019730D01*
X009180Y019730D01*
X009180Y019180D01*
X009180Y019180D01*
X009730Y019180D01*
X009180Y019180D01*
X009180Y019180D01*
X009180Y019180D01*
X008630Y019180D01*
X008630Y019223D01*
X008644Y019309D01*
X008670Y019391D01*
X008710Y019468D01*
X008760Y019538D01*
X008822Y019600D01*
X008892Y019650D01*
X008969Y019690D01*
X009051Y019716D01*
X009137Y019730D01*
X009180Y019730D01*
X009180Y019180D01*
X008630Y019180D01*
X008630Y019137D01*
X008644Y019051D01*
X008670Y018969D01*
X008710Y018892D01*
X008760Y018822D01*
X008822Y018760D01*
X008892Y018710D01*
X008969Y018670D01*
X008974Y018669D01*
X008880Y018629D01*
X008731Y018480D01*
X008706Y018420D01*
X007932Y018420D01*
X007844Y018383D01*
X006744Y017283D01*
X006695Y017234D01*
X006695Y017501D01*
X006601Y017595D01*
X005759Y017595D01*
X005665Y017501D01*
X005665Y016739D01*
X005759Y016645D01*
X005918Y016645D01*
X005880Y016629D01*
X005731Y016480D01*
X005650Y016285D01*
X005650Y016075D01*
X005731Y015880D01*
X005880Y015731D01*
X006002Y015680D01*
X005880Y015629D01*
X005731Y015480D01*
X005650Y015285D01*
X005650Y015075D01*
X005731Y014880D01*
X005880Y014731D01*
X005918Y014715D01*
X005759Y014715D01*
X005665Y014621D01*
X005665Y013920D01*
X005570Y013920D01*
X005570Y019728D01*
X005533Y019816D01*
X005466Y019883D01*
X005378Y019920D01*
X004420Y019920D01*
X004420Y022495D01*
X004423Y022496D01*
X004552Y022624D01*
X004621Y022792D01*
X004621Y023568D01*
X004552Y023736D01*
X004423Y023864D01*
X004255Y023934D01*
X004073Y023934D01*
X003905Y023864D01*
X003777Y023736D01*
X003707Y023568D01*
X003707Y022792D01*
X003777Y022624D01*
X003905Y022496D01*
X003940Y022482D01*
X003940Y019632D01*
X003977Y019544D01*
X004044Y019477D01*
X004132Y019440D01*
X005090Y019440D01*
X005090Y018724D01*
X005028Y018786D01*
X004874Y018850D01*
X004186Y018850D01*
X004032Y018786D01*
X003914Y018668D01*
X003850Y018514D01*
X003850Y018346D01*
X003914Y018192D01*
X004032Y018074D01*
X004186Y018010D01*
X004874Y018010D01*
X005028Y018074D01*
X005090Y018136D01*
X005090Y017724D01*
X005028Y017786D01*
X004874Y017850D01*
X004186Y017850D01*
X004032Y017786D01*
X003914Y017668D01*
X003850Y017514D01*
X003850Y017346D01*
X003914Y017192D01*
X004032Y017074D01*
X004186Y017010D01*
X004874Y017010D01*
X005028Y017074D01*
X005090Y017136D01*
X005090Y016724D01*
X005028Y016786D01*
X004874Y016850D01*
X004186Y016850D01*
X004032Y016786D01*
X003914Y016668D01*
X003850Y016514D01*
X003850Y016346D01*
X003914Y016192D01*
X004032Y016074D01*
X004186Y016010D01*
X004874Y016010D01*
X005028Y016074D01*
X005090Y016136D01*
X005090Y015724D01*
X005028Y015786D01*
X004874Y015850D01*
X004186Y015850D01*
X004032Y015786D01*
X003914Y015668D01*
X003850Y015514D01*
X003850Y015346D01*
X003914Y015192D01*
X004032Y015074D01*
X004186Y015010D01*
X004874Y015010D01*
X005028Y015074D01*
X005090Y015136D01*
X005090Y014724D01*
X005028Y014786D01*
X004874Y014850D01*
X004186Y014850D01*
X004032Y014786D01*
X003914Y014668D01*
X003850Y014514D01*
X003850Y014346D01*
X003914Y014192D01*
X004032Y014074D01*
X004186Y014010D01*
X004874Y014010D01*
X005028Y014074D01*
X005090Y014136D01*
X005090Y013724D01*
X005028Y013786D01*
X004874Y013850D01*
X004186Y013850D01*
X004032Y013786D01*
X003914Y013668D01*
X003850Y013514D01*
X003850Y013346D01*
X003914Y013192D01*
X003936Y013170D01*
X003638Y013170D01*
X003638Y013194D01*
X003544Y013288D01*
X003016Y013288D01*
X002922Y013194D01*
X002922Y012666D01*
X003016Y012572D01*
X003040Y012572D01*
X003040Y011788D01*
X003016Y011788D01*
X002922Y011694D01*
X002922Y011250D01*
X002192Y011250D01*
X002198Y011261D01*
X002219Y011327D01*
X002230Y011395D01*
X002230Y011430D01*
X002230Y011465D01*
X002219Y011533D01*
X002198Y011599D01*
X002166Y011661D01*
X002126Y011717D01*
X002077Y011766D01*
X002021Y011806D01*
X001959Y011838D01*
X001893Y011859D01*
X001825Y011870D01*
X001530Y011870D01*
X001530Y011430D01*
X001530Y011430D01*
X002230Y011430D01*
X001530Y011430D01*
X001530Y011430D01*
X001530Y011430D01*
X000830Y011430D01*
X000830Y011465D01*
X000841Y011533D01*
X000862Y011599D01*
X000894Y011661D01*
X000934Y011717D01*
X000983Y011766D01*
X001039Y011806D01*
X001101Y011838D01*
X001167Y011859D01*
X001235Y011870D01*
X001530Y011870D01*
X001530Y011430D01*
X000830Y011430D01*
X000830Y011395D01*
X000841Y011327D01*
X000862Y011261D01*
X000866Y011254D01*
X000828Y011270D01*
X000740Y011270D01*
X000740Y024620D01*
X008319Y024620D01*
X008240Y024541D01*
X008170Y024371D01*
X008170Y023588D01*
X008240Y023419D01*
X008369Y023290D01*
X008538Y023220D01*
X008721Y023220D01*
X008891Y023290D01*
X009020Y023419D01*
X009090Y023588D01*
X009090Y024371D01*
X009020Y024541D01*
X008941Y024620D01*
X009391Y024620D01*
X009364Y024593D01*
X009319Y024532D01*
X009285Y024464D01*
X009262Y024392D01*
X009250Y024318D01*
X009250Y024000D01*
X009710Y024000D01*
X009710Y023960D01*
X009750Y023960D01*
X009750Y024000D01*
X010210Y024000D01*
X010210Y024318D01*
X010198Y024392D01*
X010175Y024464D01*
X010141Y024532D01*
X010096Y024593D01*
X010069Y024620D01*
X013043Y024620D01*
X013010Y024587D01*
X012890Y024296D01*
X012890Y023980D01*
X013010Y023689D01*
X013233Y023466D01*
X013525Y023345D01*
X015107Y023345D01*
X015398Y023466D01*
X015621Y023689D01*
X015742Y023980D01*
X015742Y024296D01*
X015621Y024587D01*
X015588Y024620D01*
X017620Y024620D01*
X017620Y023997D01*
X017506Y024110D01*
X017230Y024225D01*
X016930Y024225D01*
X016654Y024110D01*
X016442Y023899D01*
X016328Y023622D01*
X016328Y022138D01*
X016442Y021861D01*
X016654Y021650D01*
X016930Y021535D01*
X017230Y021535D01*
X017506Y021650D01*
X017620Y021763D01*
X017620Y020797D01*
X017506Y020910D01*
X017230Y021025D01*
X016930Y021025D01*
X016654Y020910D01*
X016442Y020699D01*
X016328Y020422D01*
X016328Y018938D01*
X016442Y018661D01*
X016654Y018450D01*
X016930Y018335D01*
X017230Y018335D01*
X017506Y018450D01*
X017620Y018563D01*
X017620Y000740D01*
X017620Y000814D02*
X011948Y000814D01*
X012029Y000973D02*
X017620Y000973D01*
X017620Y001131D02*
X012089Y001131D01*
X012089Y001290D02*
X017620Y001290D01*
X017620Y001448D02*
X012077Y001448D01*
X012011Y001607D02*
X017620Y001607D01*
X017620Y001765D02*
X011905Y001765D01*
X011726Y001924D02*
X017620Y001924D01*
X017620Y002082D02*
X003957Y002082D01*
X003952Y002087D02*
X003775Y002160D01*
X003585Y002160D01*
X003408Y002087D01*
X003273Y001952D01*
X003200Y001775D01*
X003200Y001585D01*
X003273Y001408D01*
X003408Y001273D01*
X003585Y001200D01*
X003775Y001200D01*
X003952Y001273D01*
X004087Y001408D01*
X004160Y001585D01*
X004160Y001775D01*
X004087Y001952D01*
X003952Y002087D01*
X003872Y002217D02*
X003797Y002192D01*
X003719Y002180D01*
X003689Y002180D01*
X003689Y002671D01*
X003689Y002689D01*
X004180Y002689D01*
X004180Y002719D01*
X004168Y002797D01*
X004143Y002872D01*
X004108Y002942D01*
X004061Y003006D01*
X004006Y003061D01*
X003942Y003108D01*
X003872Y003143D01*
X003805Y003165D01*
X003921Y003165D01*
X004015Y003259D01*
X004015Y003812D01*
X004307Y003520D01*
X004853Y003520D01*
X005240Y003907D01*
X005240Y004453D01*
X004853Y004840D01*
X004307Y004840D01*
X004006Y004540D01*
X004006Y005001D01*
X003912Y005094D01*
X003150Y005094D01*
X003056Y005001D01*
X003056Y004159D01*
X003090Y004126D01*
X003065Y004101D01*
X003065Y003259D01*
X003159Y003165D01*
X003555Y003165D01*
X003488Y003143D01*
X003418Y003108D01*
X003354Y003061D01*
X003299Y003006D01*
X003252Y002942D01*
X003217Y002872D01*
X003192Y002797D01*
X003180Y002719D01*
X003180Y002689D01*
X003671Y002689D01*
X003671Y002671D01*
X003689Y002671D01*
X004180Y002671D01*
X004180Y002641D01*
X004168Y002563D01*
X004143Y002488D01*
X004108Y002418D01*
X004061Y002354D01*
X004006Y002299D01*
X003942Y002252D01*
X003872Y002217D01*
X003919Y002241D02*
X017620Y002241D01*
X017620Y002399D02*
X004094Y002399D01*
X004166Y002558D02*
X017620Y002558D01*
X017620Y002716D02*
X014445Y002716D01*
X014480Y002731D02*
X014629Y002880D01*
X014710Y003075D01*
X014710Y003285D01*
X014629Y003480D01*
X014480Y003629D01*
X014442Y003645D01*
X014601Y003645D01*
X014695Y003739D01*
X014695Y004501D01*
X014601Y004595D01*
X013759Y004595D01*
X013665Y004501D01*
X013665Y003739D01*
X013759Y003645D01*
X013918Y003645D01*
X013880Y003629D01*
X013731Y003480D01*
X013650Y003285D01*
X013650Y003075D01*
X013731Y002880D01*
X013880Y002731D01*
X014075Y002650D01*
X014285Y002650D01*
X014480Y002731D01*
X014624Y002875D02*
X017620Y002875D01*
X017620Y003033D02*
X014693Y003033D01*
X014710Y003192D02*
X017620Y003192D01*
X017620Y003350D02*
X014683Y003350D01*
X014601Y003509D02*
X017620Y003509D01*
X017620Y003667D02*
X014623Y003667D01*
X014695Y003826D02*
X017620Y003826D01*
X017620Y003984D02*
X014695Y003984D01*
X014695Y004143D02*
X017620Y004143D01*
X017620Y004301D02*
X014695Y004301D01*
X014695Y004460D02*
X017620Y004460D01*
X017620Y004618D02*
X010880Y004618D01*
X010762Y004500D02*
X011160Y004898D01*
X011160Y005150D01*
X010510Y005150D01*
X010510Y005210D01*
X011160Y005210D01*
X011160Y005462D01*
X010762Y005860D01*
X010510Y005860D01*
X010510Y005210D01*
X010450Y005210D01*
X010450Y005860D01*
X010198Y005860D01*
X009852Y005514D01*
X009847Y005526D01*
X009686Y005687D01*
X009475Y005775D01*
X009247Y005775D01*
X009036Y005687D01*
X008875Y005526D01*
X008788Y005315D01*
X008788Y005087D01*
X008875Y004876D01*
X009036Y004715D01*
X009247Y004628D01*
X009475Y004628D01*
X009686Y004715D01*
X009835Y004864D01*
X010198Y004500D01*
X010450Y004500D01*
X010450Y005150D01*
X010510Y005150D01*
X010510Y004500D01*
X010762Y004500D01*
X010510Y004618D02*
X010450Y004618D01*
X010450Y004777D02*
X010510Y004777D01*
X010510Y004935D02*
X010450Y004935D01*
X010450Y005094D02*
X010510Y005094D01*
X010510Y005252D02*
X010450Y005252D01*
X010450Y005411D02*
X010510Y005411D01*
X010510Y005569D02*
X010450Y005569D01*
X010450Y005728D02*
X010510Y005728D01*
X010847Y005869D02*
X010760Y006079D01*
X010760Y006307D01*
X010847Y006518D01*
X011009Y006679D01*
X011219Y006767D01*
X011448Y006767D01*
X011658Y006679D01*
X011820Y006518D01*
X011907Y006307D01*
X011907Y006079D01*
X011820Y005869D01*
X011658Y005707D01*
X011448Y005620D01*
X011219Y005620D01*
X011009Y005707D01*
X010847Y005869D01*
X010840Y005886D02*
X008725Y005886D01*
X008726Y005728D02*
X009133Y005728D01*
X008918Y005569D02*
X008726Y005569D01*
X008726Y005411D02*
X008827Y005411D01*
X008788Y005252D02*
X008727Y005252D01*
X008727Y005094D02*
X008788Y005094D01*
X008728Y004935D02*
X008851Y004935D01*
X008728Y004777D02*
X008975Y004777D01*
X008729Y004618D02*
X010080Y004618D01*
X009922Y004777D02*
X009747Y004777D01*
X009801Y004255D02*
X009550Y004255D01*
X009504Y004243D01*
X009463Y004219D01*
X009430Y004186D01*
X009406Y004145D01*
X009394Y004099D01*
X009394Y003848D01*
X009801Y003848D01*
X009801Y004255D01*
X009801Y004143D02*
X009937Y004143D01*
X009937Y004255D02*
X009937Y003848D01*
X010344Y003848D01*
X010344Y004099D01*
X010332Y004145D01*
X010308Y004186D01*
X010275Y004219D01*
X010234Y004243D01*
X010188Y004255D01*
X009937Y004255D01*
X009937Y003984D02*
X009801Y003984D01*
X009801Y003848D02*
X009937Y003848D01*
X009937Y003712D01*
X010344Y003712D01*
X010344Y003461D01*
X010332Y003415D01*
X010308Y003374D01*
X010275Y003341D01*
X010234Y003317D01*
X010188Y003305D01*
X009937Y003305D01*
X009937Y003712D01*
X009801Y003712D01*
X009394Y003712D01*
X009394Y003461D01*
X009406Y003415D01*
X009430Y003374D01*
X009463Y003341D01*
X009504Y003317D01*
X009550Y003305D01*
X009801Y003305D01*
X009801Y003712D01*
X009801Y003848D01*
X009801Y003826D02*
X008946Y003826D01*
X008946Y003984D02*
X009394Y003984D01*
X009405Y004143D02*
X008945Y004143D01*
X008946Y004142D02*
X008853Y004235D01*
X008730Y004235D01*
X008721Y007404D01*
X008731Y007380D01*
X008880Y007231D01*
X009075Y007150D01*
X009285Y007150D01*
X009480Y007231D01*
X009629Y007380D01*
X009710Y007575D01*
X009710Y007785D01*
X009629Y007980D01*
X009480Y008129D01*
X009386Y008169D01*
X009391Y008170D01*
X009468Y008210D01*
X009538Y008260D01*
X009600Y008322D01*
X009650Y008392D01*
X009690Y008469D01*
X009716Y008551D01*
X009730Y008637D01*
X009730Y008680D01*
X009730Y008723D01*
X009716Y008809D01*
X009690Y008891D01*
X009650Y008968D01*
X009600Y009038D01*
X009538Y009100D01*
X009468Y009150D01*
X009391Y009190D01*
X009309Y009216D01*
X009223Y009230D01*
X009180Y009230D01*
X009180Y008680D01*
X009180Y008680D01*
X009730Y008680D01*
X009180Y008680D01*
X009180Y008680D01*
X009180Y008680D01*
X008630Y008680D01*
X008630Y008723D01*
X008644Y008809D01*
X008670Y008891D01*
X008710Y008968D01*
X008760Y009038D01*
X008822Y009100D01*
X008892Y009150D01*
X008969Y009190D01*
X009051Y009216D01*
X009137Y009230D01*
X009180Y009230D01*
X009180Y008680D01*
X008630Y008680D01*
X008630Y008637D01*
X008644Y008551D01*
X008670Y008469D01*
X008710Y008392D01*
X008760Y008322D01*
X008822Y008260D01*
X008892Y008210D01*
X008969Y008170D01*
X008974Y008169D01*
X008880Y008129D01*
X008731Y007980D01*
X008706Y007920D01*
X008527Y007920D01*
X008480Y007920D01*
X008432Y007920D01*
X008432Y007920D01*
X008432Y007920D01*
X008388Y007902D01*
X008344Y007883D01*
X008343Y007883D01*
X008310Y007849D01*
X008277Y007816D01*
X008276Y007816D01*
X008276Y007815D01*
X008258Y007771D01*
X008240Y007728D01*
X008240Y007727D01*
X008240Y007680D01*
X008240Y007632D01*
X008250Y004235D01*
X008129Y004235D01*
X008036Y004142D01*
X008036Y003418D01*
X008129Y003325D01*
X008853Y003325D01*
X008946Y003418D01*
X008946Y004142D01*
X008730Y004301D02*
X013665Y004301D01*
X013665Y004143D02*
X010333Y004143D01*
X010344Y003984D02*
X013665Y003984D01*
X013665Y003826D02*
X009937Y003826D01*
X009937Y003667D02*
X009801Y003667D01*
X009801Y003509D02*
X009937Y003509D01*
X009937Y003350D02*
X009801Y003350D01*
X009454Y003350D02*
X008878Y003350D01*
X008946Y003509D02*
X009394Y003509D01*
X009394Y003667D02*
X008946Y003667D01*
X008491Y003780D02*
X008480Y007680D01*
X009180Y007680D01*
X009667Y007471D02*
X017620Y007471D01*
X017620Y007313D02*
X009562Y007313D01*
X009710Y007630D02*
X017620Y007630D01*
X017620Y007788D02*
X009709Y007788D01*
X009643Y007947D02*
X012214Y007947D01*
X012230Y007931D02*
X012425Y007850D01*
X012635Y007850D01*
X012830Y007931D01*
X012979Y008080D01*
X013060Y008275D01*
X013060Y008485D01*
X012979Y008680D01*
X012830Y008829D01*
X012792Y008845D01*
X013001Y008845D01*
X013095Y008939D01*
X013095Y009096D01*
X013745Y009115D01*
X013880Y008981D01*
X014075Y008900D01*
X014285Y008900D01*
X014480Y008981D01*
X014629Y009130D01*
X014634Y009142D01*
X015879Y009180D01*
X016125Y009170D01*
X016125Y009029D01*
X016218Y008936D01*
X016942Y008936D01*
X017035Y009029D01*
X017035Y009753D01*
X016942Y009846D01*
X016218Y009846D01*
X016125Y009753D01*
X016125Y009650D01*
X015933Y009658D01*
X015928Y009660D01*
X015924Y009660D01*
X015920Y009661D01*
X015881Y009660D01*
X015842Y009662D01*
X015837Y009660D01*
X014658Y009660D01*
X014629Y009730D01*
X014480Y009879D01*
X014386Y009919D01*
X014391Y009920D01*
X014468Y009960D01*
X014538Y010010D01*
X014600Y010072D01*
X014650Y010142D01*
X014690Y010219D01*
X014716Y010301D01*
X014730Y010387D01*
X014730Y010430D01*
X014730Y010473D01*
X014716Y010559D01*
X014690Y010641D01*
X016105Y010641D01*
X016105Y010701D02*
X016105Y010450D01*
X016117Y010404D01*
X016141Y010363D01*
X016174Y010330D01*
X016215Y010306D01*
X016261Y010294D01*
X016512Y010294D01*
X016512Y010701D01*
X016648Y010701D01*
X016648Y010837D01*
X016512Y010837D01*
X016512Y011244D01*
X016261Y011244D01*
X016215Y011232D01*
X016174Y011208D01*
X016141Y011175D01*
X016117Y011134D01*
X016105Y011088D01*
X016105Y010837D01*
X016512Y010837D01*
X016512Y010701D01*
X016105Y010701D01*
X016105Y010483D02*
X014729Y010483D01*
X014730Y010430D02*
X014180Y010430D01*
X014180Y010430D01*
X014180Y010980D01*
X014223Y010980D01*
X014309Y010966D01*
X014391Y010940D01*
X014468Y010900D01*
X014538Y010850D01*
X014600Y010788D01*
X014650Y010718D01*
X014690Y010641D01*
X014588Y010800D02*
X016512Y010800D01*
X016648Y010800D02*
X017620Y010800D01*
X017620Y010958D02*
X017055Y010958D01*
X017055Y010837D02*
X017055Y011088D01*
X017043Y011134D01*
X017019Y011175D01*
X016986Y011208D01*
X016945Y011232D01*
X016899Y011244D01*
X016648Y011244D01*
X016648Y010837D01*
X017055Y010837D01*
X017055Y010701D02*
X017055Y010450D01*
X017043Y010404D01*
X017019Y010363D01*
X016986Y010330D01*
X016945Y010306D01*
X016899Y010294D01*
X016648Y010294D01*
X016648Y010701D01*
X017055Y010701D01*
X017055Y010641D02*
X017620Y010641D01*
X017620Y010483D02*
X017055Y010483D01*
X016976Y010324D02*
X017620Y010324D01*
X017620Y010166D02*
X014663Y010166D01*
X014720Y010324D02*
X016184Y010324D01*
X016512Y010324D02*
X016648Y010324D01*
X016648Y010483D02*
X016512Y010483D01*
X016512Y010641D02*
X016648Y010641D01*
X016648Y010958D02*
X016512Y010958D01*
X016512Y011117D02*
X016648Y011117D01*
X017048Y011117D02*
X017620Y011117D01*
X017620Y011275D02*
X013060Y011275D01*
X012979Y011080D01*
X012830Y010931D01*
X012792Y010915D01*
X013001Y010915D01*
X013095Y010821D01*
X013095Y010059D01*
X013001Y009965D01*
X012159Y009965D01*
X012065Y010059D01*
X012065Y010821D01*
X012159Y010915D01*
X012268Y010915D01*
X012230Y010931D01*
X012081Y011080D01*
X012000Y011275D01*
X009710Y011275D01*
X009710Y011285D02*
X009629Y011480D01*
X009480Y011629D01*
X009386Y011669D01*
X009391Y011670D01*
X009468Y011710D01*
X009538Y011760D01*
X009600Y011822D01*
X009650Y011892D01*
X009690Y011969D01*
X009716Y012051D01*
X009730Y012137D01*
X009730Y012180D01*
X009180Y012180D01*
X009180Y012180D01*
X009180Y012180D01*
X008630Y012180D01*
X008630Y012137D01*
X008644Y012051D01*
X008670Y011969D01*
X008710Y011892D01*
X008760Y011822D01*
X008822Y011760D01*
X008892Y011710D01*
X008969Y011670D01*
X008974Y011669D01*
X008880Y011629D01*
X008731Y011480D01*
X008650Y011285D01*
X008650Y011075D01*
X008731Y010880D01*
X008880Y010731D01*
X009075Y010650D01*
X009285Y010650D01*
X009480Y010731D01*
X009629Y010880D01*
X009710Y011075D01*
X009710Y011285D01*
X009649Y011434D02*
X012000Y011434D01*
X012000Y011485D02*
X012000Y011275D01*
X012065Y011117D02*
X009710Y011117D01*
X009662Y010958D02*
X012202Y010958D01*
X012065Y010800D02*
X009549Y010800D01*
X009550Y010255D02*
X009504Y010243D01*
X009463Y010219D01*
X009430Y010186D01*
X009406Y010145D01*
X009394Y010099D01*
X009394Y009848D01*
X009801Y009848D01*
X009801Y010255D01*
X009550Y010255D01*
X009418Y010166D02*
X008922Y010166D01*
X008946Y010007D02*
X009394Y010007D01*
X009394Y009849D02*
X008946Y009849D01*
X008946Y009690D02*
X009394Y009690D01*
X009394Y009712D02*
X009394Y009461D01*
X009406Y009415D01*
X009430Y009374D01*
X009463Y009341D01*
X009504Y009317D01*
X009550Y009305D01*
X009801Y009305D01*
X009801Y009712D01*
X009394Y009712D01*
X009394Y009532D02*
X008946Y009532D01*
X008901Y009373D02*
X009431Y009373D01*
X009315Y009215D02*
X012065Y009215D01*
X012065Y009373D02*
X010307Y009373D01*
X010308Y009374D02*
X010332Y009415D01*
X010344Y009461D01*
X010344Y009712D01*
X009937Y009712D01*
X009937Y009848D01*
X010344Y009848D01*
X010344Y010099D01*
X010332Y010145D01*
X010308Y010186D01*
X010275Y010219D01*
X010234Y010243D01*
X010188Y010255D01*
X009937Y010255D01*
X009937Y009848D01*
X009801Y009848D01*
X009801Y009712D01*
X009937Y009712D01*
X009937Y009305D01*
X010188Y009305D01*
X010234Y009317D01*
X010275Y009341D01*
X010308Y009374D01*
X010344Y009532D02*
X012065Y009532D01*
X012065Y009690D02*
X010344Y009690D01*
X010344Y009849D02*
X013849Y009849D01*
X013880Y009879D02*
X013731Y009730D01*
X013674Y009593D01*
X013095Y009576D01*
X013095Y009701D01*
X013001Y009795D01*
X012159Y009795D01*
X012065Y009701D01*
X012065Y008939D01*
X012159Y008845D01*
X012268Y008845D01*
X012230Y008829D01*
X012081Y008680D01*
X012000Y008485D01*
X012000Y008275D01*
X012081Y008080D01*
X012230Y007931D01*
X012070Y008105D02*
X009505Y008105D01*
X009541Y008264D02*
X012005Y008264D01*
X012000Y008422D02*
X009666Y008422D01*
X009721Y008581D02*
X012039Y008581D01*
X012139Y008739D02*
X009728Y008739D01*
X009686Y008898D02*
X012106Y008898D01*
X012065Y009056D02*
X009582Y009056D01*
X009801Y009373D02*
X009937Y009373D01*
X009937Y009532D02*
X009801Y009532D01*
X009801Y009690D02*
X009937Y009690D01*
X009937Y009849D02*
X009801Y009849D01*
X009801Y010007D02*
X009937Y010007D01*
X009937Y010166D02*
X009801Y010166D01*
X010320Y010166D02*
X012065Y010166D01*
X012065Y010324D02*
X007924Y010324D01*
X008022Y010483D02*
X012065Y010483D01*
X012065Y010641D02*
X008060Y010641D01*
X008054Y010800D02*
X008811Y010800D01*
X008698Y010958D02*
X007989Y010958D01*
X007843Y011117D02*
X008650Y011117D01*
X008650Y011275D02*
X007614Y011275D01*
X007670Y011434D02*
X008711Y011434D01*
X008842Y011592D02*
X007670Y011592D01*
X007750Y011751D02*
X008835Y011751D01*
X008701Y011909D02*
X007891Y011909D01*
X007957Y012068D02*
X008641Y012068D01*
X008630Y012226D02*
X007960Y012226D01*
X007919Y012385D02*
X008668Y012385D01*
X008765Y012543D02*
X007817Y012543D01*
X008080Y012880D02*
X008080Y013580D01*
X007980Y013680D01*
X005580Y013680D01*
X005580Y012930D01*
X003280Y012930D01*
X003280Y011430D01*
X002978Y011751D02*
X002092Y011751D01*
X002200Y011592D02*
X002922Y011592D01*
X002922Y011434D02*
X002230Y011434D01*
X002202Y011275D02*
X002922Y011275D01*
X003040Y011909D02*
X000740Y011909D01*
X000740Y011751D02*
X000968Y011751D01*
X000860Y011592D02*
X000740Y011592D01*
X000740Y011434D02*
X000830Y011434D01*
X000858Y011275D02*
X000740Y011275D01*
X000780Y011030D02*
X000780Y007430D01*
X001530Y007430D01*
X001037Y007788D02*
X001020Y007788D01*
X001020Y007947D02*
X002323Y007947D01*
X002323Y007788D02*
X002023Y007788D01*
X002162Y007630D02*
X002323Y007630D01*
X002323Y007471D02*
X002210Y007471D01*
X002196Y007313D02*
X002329Y007313D01*
X002108Y007154D02*
X003321Y007154D01*
X003321Y006996D02*
X000740Y006996D01*
X000740Y007154D02*
X000952Y007154D01*
X001155Y006837D02*
X000740Y006837D01*
X000740Y006679D02*
X000925Y006679D01*
X000914Y006668D02*
X001032Y006786D01*
X001186Y006850D01*
X001874Y006850D01*
X002028Y006786D01*
X002146Y006668D01*
X002210Y006514D01*
X002210Y006346D01*
X002146Y006192D01*
X002028Y006074D01*
X001874Y006010D01*
X001186Y006010D01*
X001032Y006074D01*
X000914Y006192D01*
X000850Y006346D01*
X000850Y006514D01*
X000914Y006668D01*
X000853Y006520D02*
X000740Y006520D01*
X000740Y006362D02*
X000850Y006362D01*
X000909Y006203D02*
X000740Y006203D01*
X000740Y006045D02*
X001103Y006045D01*
X001186Y005850D02*
X001032Y005786D01*
X000914Y005668D01*
X000850Y005514D01*
X000850Y005346D01*
X000914Y005192D01*
X001032Y005074D01*
X001186Y005010D01*
X001874Y005010D01*
X001978Y005053D01*
X001970Y005045D01*
X001946Y005004D01*
X001934Y004958D01*
X001934Y004657D01*
X002351Y004657D01*
X002351Y004503D01*
X001934Y004503D01*
X001934Y004202D01*
X001946Y004156D01*
X001966Y004122D01*
X001945Y004101D01*
X001945Y003259D01*
X002039Y003165D01*
X002440Y003165D01*
X002440Y003100D01*
X002408Y003087D01*
X002273Y002952D01*
X002200Y002775D01*
X002200Y002585D01*
X002273Y002408D01*
X002408Y002273D01*
X002585Y002200D01*
X002775Y002200D01*
X002952Y002273D01*
X003087Y002408D01*
X003160Y002585D01*
X003160Y002775D01*
X003087Y002952D01*
X002952Y003087D01*
X002920Y003100D01*
X002920Y003728D01*
X002895Y003788D01*
X002895Y004101D01*
X002884Y004112D01*
X002888Y004115D01*
X002912Y004156D01*
X002924Y004202D01*
X002924Y004503D01*
X002506Y004503D01*
X002506Y004657D01*
X002924Y004657D01*
X002924Y004958D01*
X002912Y005004D01*
X002888Y005045D01*
X002854Y005078D01*
X002813Y005102D01*
X002767Y005114D01*
X002506Y005114D01*
X002506Y004657D01*
X002351Y004657D01*
X002351Y005114D01*
X002090Y005114D01*
X002060Y005106D01*
X002146Y005192D01*
X002210Y005346D01*
X002210Y005514D01*
X002146Y005668D01*
X002028Y005786D01*
X001874Y005850D01*
X001186Y005850D01*
X000974Y005728D02*
X000740Y005728D01*
X000740Y005886D02*
X002378Y005886D01*
X002323Y006045D02*
X001957Y006045D01*
X002151Y006203D02*
X002323Y006203D01*
X002323Y006362D02*
X002210Y006362D01*
X002207Y006520D02*
X002323Y006520D01*
X002338Y006679D02*
X002135Y006679D01*
X001905Y006837D02*
X003321Y006837D01*
X003321Y006679D02*
X003219Y006679D01*
X003353Y006302D02*
X002778Y006302D01*
X003066Y005780D02*
X002880Y005594D01*
X002919Y005623D01*
X003066Y005780D02*
X003780Y005780D01*
X003780Y008380D01*
X004380Y008380D01*
X004530Y008230D01*
X004530Y008430D01*
X004626Y008010D02*
X004578Y007990D01*
X004482Y007990D01*
X004434Y008010D01*
X004186Y008010D01*
X004032Y008074D01*
X004020Y008086D01*
X004020Y007774D01*
X004032Y007786D01*
X004186Y007850D01*
X004874Y007850D01*
X005028Y007786D01*
X005046Y007768D01*
X005058Y007813D01*
X005082Y007854D01*
X005115Y007888D01*
X005156Y007912D01*
X005202Y007924D01*
X005503Y007924D01*
X005503Y007506D01*
X005657Y007506D01*
X005657Y007924D01*
X005958Y007924D01*
X006002Y007912D01*
X006031Y007980D01*
X006180Y008129D01*
X006240Y008154D01*
X006240Y008245D01*
X006094Y008245D01*
X006094Y008150D01*
X006001Y008056D01*
X005159Y008056D01*
X005085Y008131D01*
X005028Y008074D01*
X004874Y008010D01*
X004626Y008010D01*
X005059Y008105D02*
X005111Y008105D01*
X005051Y007788D02*
X005023Y007788D01*
X005503Y007788D02*
X005657Y007788D01*
X005657Y007630D02*
X005503Y007630D01*
X005503Y007313D02*
X005657Y007313D01*
X005657Y007154D02*
X005503Y007154D01*
X005503Y006996D02*
X005657Y006996D01*
X005207Y006520D02*
X006916Y006520D01*
X006910Y006514D02*
X006823Y006304D01*
X006823Y006075D01*
X006910Y005865D01*
X007072Y005703D01*
X007282Y005616D01*
X007511Y005616D01*
X007721Y005703D01*
X007883Y005865D01*
X007970Y006075D01*
X007970Y006304D01*
X007883Y006514D01*
X007721Y006676D01*
X007511Y006763D01*
X007282Y006763D01*
X007072Y006676D01*
X006910Y006514D01*
X006847Y006362D02*
X005210Y006362D01*
X005151Y006203D02*
X006823Y006203D01*
X006836Y006045D02*
X004957Y006045D01*
X005086Y005728D02*
X006178Y005728D01*
X006282Y005771D02*
X006072Y005683D01*
X005910Y005522D01*
X005823Y005311D01*
X005823Y005083D01*
X005910Y004873D01*
X006072Y004711D01*
X006282Y004624D01*
X006511Y004624D01*
X006721Y004711D01*
X006883Y004873D01*
X006970Y005083D01*
X006970Y005311D01*
X006883Y005522D01*
X006721Y005683D01*
X006511Y005771D01*
X006282Y005771D01*
X006615Y005728D02*
X007048Y005728D01*
X006902Y005886D02*
X004020Y005886D01*
X004020Y006045D02*
X004103Y006045D01*
X003850Y005411D02*
X003238Y005411D01*
X003161Y005252D02*
X003889Y005252D01*
X003913Y005094D02*
X004013Y005094D01*
X004006Y004935D02*
X005885Y004935D01*
X005823Y005094D02*
X005047Y005094D01*
X005171Y005252D02*
X005823Y005252D01*
X005864Y005411D02*
X005210Y005411D01*
X005187Y005569D02*
X005957Y005569D01*
X006006Y004777D02*
X004917Y004777D01*
X005075Y004618D02*
X008249Y004618D01*
X008249Y004460D02*
X005234Y004460D01*
X005240Y004301D02*
X008250Y004301D01*
X008037Y004143D02*
X005240Y004143D01*
X005240Y003984D02*
X008036Y003984D01*
X008036Y003826D02*
X005159Y003826D01*
X005000Y003667D02*
X008036Y003667D01*
X008036Y003509D02*
X004015Y003509D01*
X004015Y003667D02*
X004160Y003667D01*
X004015Y003350D02*
X008104Y003350D01*
X008729Y004460D02*
X013665Y004460D01*
X013759Y004765D02*
X014601Y004765D01*
X014695Y004859D01*
X014695Y005621D01*
X014601Y005715D01*
X014442Y005715D01*
X014480Y005731D01*
X014629Y005880D01*
X014710Y006075D01*
X014710Y006285D01*
X014629Y006480D01*
X014480Y006629D01*
X014285Y006710D01*
X014075Y006710D01*
X013880Y006629D01*
X013731Y006480D01*
X013650Y006285D01*
X013650Y006075D01*
X013731Y005880D01*
X013880Y005731D01*
X013918Y005715D01*
X013759Y005715D01*
X013665Y005621D01*
X013665Y004859D01*
X013759Y004765D01*
X013747Y004777D02*
X012696Y004777D01*
X012631Y004711D02*
X012792Y004873D01*
X012879Y005083D01*
X012879Y005311D01*
X012792Y005522D01*
X012631Y005683D01*
X012420Y005771D01*
X012192Y005771D01*
X011981Y005683D01*
X011820Y005522D01*
X011733Y005311D01*
X011733Y005083D01*
X011820Y004873D01*
X011981Y004711D01*
X012192Y004624D01*
X012420Y004624D01*
X012631Y004711D01*
X012818Y004935D02*
X013665Y004935D01*
X013665Y005094D02*
X012879Y005094D01*
X012879Y005252D02*
X013665Y005252D01*
X013665Y005411D02*
X012838Y005411D01*
X012745Y005569D02*
X013665Y005569D01*
X013887Y005728D02*
X012524Y005728D01*
X012088Y005728D02*
X011679Y005728D01*
X011827Y005886D02*
X013728Y005886D01*
X013662Y006045D02*
X011893Y006045D01*
X011907Y006203D02*
X013650Y006203D01*
X013682Y006362D02*
X011885Y006362D01*
X011818Y006520D02*
X013770Y006520D01*
X013999Y006679D02*
X011659Y006679D01*
X011008Y006679D02*
X008723Y006679D01*
X008722Y006837D02*
X017620Y006837D01*
X017620Y006679D02*
X014361Y006679D01*
X014590Y006520D02*
X017620Y006520D01*
X017620Y006362D02*
X014678Y006362D01*
X014710Y006203D02*
X017620Y006203D01*
X017620Y006045D02*
X014698Y006045D01*
X014632Y005886D02*
X017620Y005886D01*
X017620Y005728D02*
X014473Y005728D01*
X014695Y005569D02*
X017620Y005569D01*
X017620Y005411D02*
X014695Y005411D01*
X014695Y005252D02*
X017620Y005252D01*
X017620Y005094D02*
X014695Y005094D01*
X014695Y004935D02*
X017620Y004935D01*
X017620Y004777D02*
X014613Y004777D01*
X014180Y005240D02*
X014180Y006180D01*
X012990Y008105D02*
X017620Y008105D01*
X017620Y007947D02*
X012846Y007947D01*
X013055Y008264D02*
X017620Y008264D01*
X017620Y008422D02*
X013060Y008422D01*
X013021Y008581D02*
X017620Y008581D01*
X017620Y008739D02*
X012921Y008739D01*
X013054Y008898D02*
X017620Y008898D01*
X017620Y009056D02*
X017035Y009056D01*
X017035Y009215D02*
X017620Y009215D01*
X017620Y009373D02*
X017035Y009373D01*
X017035Y009532D02*
X017620Y009532D01*
X017620Y009690D02*
X017035Y009690D01*
X016580Y009391D02*
X015880Y009420D01*
X014180Y009420D01*
X014180Y009430D01*
X014556Y009056D02*
X016125Y009056D01*
X015880Y009420D02*
X012580Y009320D01*
X013095Y009056D02*
X013804Y009056D01*
X013714Y009690D02*
X013095Y009690D01*
X013043Y010007D02*
X013826Y010007D01*
X013822Y010010D02*
X013892Y009960D01*
X013969Y009920D01*
X013974Y009919D01*
X013880Y009879D01*
X013822Y010010D02*
X013760Y010072D01*
X013710Y010142D01*
X013670Y010219D01*
X013644Y010301D01*
X013630Y010387D01*
X013630Y010430D01*
X014180Y010430D01*
X014180Y010430D01*
X014180Y010430D01*
X014180Y010980D01*
X014137Y010980D01*
X014051Y010966D01*
X013969Y010940D01*
X013892Y010900D01*
X013822Y010850D01*
X013760Y010788D01*
X013710Y010718D01*
X013670Y010641D01*
X013095Y010641D01*
X013095Y010483D02*
X013631Y010483D01*
X013630Y010473D02*
X013630Y010430D01*
X014180Y010430D01*
X014730Y010430D01*
X014534Y010007D02*
X017620Y010007D01*
X017620Y009849D02*
X014511Y009849D01*
X014646Y009690D02*
X016125Y009690D01*
X016105Y010958D02*
X014335Y010958D01*
X014180Y010958D02*
X014180Y010958D01*
X014025Y010958D02*
X012858Y010958D01*
X012995Y011117D02*
X016112Y011117D01*
X016240Y011975D02*
X016162Y011987D01*
X016086Y012012D01*
X016015Y012048D01*
X015951Y012095D01*
X015895Y012151D01*
X015848Y012215D01*
X015812Y012286D01*
X015787Y012362D01*
X015775Y012440D01*
X015775Y012480D01*
X016280Y012480D01*
X016280Y012480D01*
X016280Y012985D01*
X016320Y012985D01*
X016398Y012973D01*
X016474Y012948D01*
X016545Y012912D01*
X016609Y012865D01*
X016665Y012809D01*
X016712Y012745D01*
X016748Y012674D01*
X016773Y012598D01*
X016785Y012520D01*
X016785Y012480D01*
X016280Y012480D01*
X016280Y012480D01*
X016280Y012480D01*
X016280Y012985D01*
X016240Y012985D01*
X016162Y012973D01*
X016086Y012948D01*
X016015Y012912D01*
X015951Y012865D01*
X015895Y012809D01*
X015848Y012745D01*
X015812Y012674D01*
X015787Y012598D01*
X015775Y012520D01*
X015775Y012480D01*
X016280Y012480D01*
X016785Y012480D01*
X016785Y012440D01*
X016773Y012362D01*
X016748Y012286D01*
X016712Y012215D01*
X016665Y012151D01*
X016609Y012095D01*
X016545Y012048D01*
X016474Y012012D01*
X016398Y011987D01*
X016320Y011975D01*
X016280Y011975D01*
X016280Y012480D01*
X016280Y012480D01*
X016280Y011975D01*
X016240Y011975D01*
X016280Y012068D02*
X016280Y012068D01*
X016280Y012226D02*
X016280Y012226D01*
X016280Y012385D02*
X016280Y012385D01*
X016280Y012543D02*
X016280Y012543D01*
X016280Y012702D02*
X016280Y012702D01*
X016280Y012860D02*
X016280Y012860D01*
X016614Y012860D02*
X017620Y012860D01*
X017620Y012702D02*
X016734Y012702D01*
X016781Y012543D02*
X017620Y012543D01*
X017620Y012385D02*
X016776Y012385D01*
X016717Y012226D02*
X017620Y012226D01*
X017620Y012068D02*
X016571Y012068D01*
X015989Y012068D02*
X014971Y012068D01*
X014945Y012048D02*
X015009Y012095D01*
X015065Y012151D01*
X015112Y012215D01*
X015148Y012286D01*
X015173Y012362D01*
X015185Y012440D01*
X015185Y012480D01*
X015185Y012520D01*
X015173Y012598D01*
X015148Y012674D01*
X015112Y012745D01*
X015065Y012809D01*
X015009Y012865D01*
X014945Y012912D01*
X014874Y012948D01*
X014798Y012973D01*
X014720Y012985D01*
X014680Y012985D01*
X014680Y012480D01*
X014680Y012480D01*
X015185Y012480D01*
X014680Y012480D01*
X014680Y012480D01*
X014680Y012480D01*
X014175Y012480D01*
X014175Y012520D01*
X014187Y012598D01*
X014212Y012674D01*
X014248Y012745D01*
X014295Y012809D01*
X014351Y012865D01*
X014415Y012912D01*
X014486Y012948D01*
X014562Y012973D01*
X014640Y012985D01*
X014680Y012985D01*
X014680Y012480D01*
X014680Y011975D01*
X014720Y011975D01*
X014798Y011987D01*
X014874Y012012D01*
X014945Y012048D01*
X015117Y012226D02*
X015843Y012226D01*
X015784Y012385D02*
X015176Y012385D01*
X015181Y012543D02*
X015779Y012543D01*
X015826Y012702D02*
X015134Y012702D01*
X015014Y012860D02*
X015946Y012860D01*
X015889Y012995D02*
X016671Y012995D01*
X016765Y013089D01*
X016765Y013871D01*
X016671Y013965D01*
X015889Y013965D01*
X015795Y013871D01*
X015795Y013089D01*
X015889Y012995D01*
X015865Y013019D02*
X014833Y013019D01*
X014776Y012995D02*
X014955Y013069D01*
X015091Y013205D01*
X015165Y013384D01*
X015165Y013576D01*
X015091Y013755D01*
X014955Y013891D01*
X014776Y013965D01*
X014584Y013965D01*
X014405Y013891D01*
X014269Y013755D01*
X014247Y013701D01*
X014094Y013694D01*
X014094Y013812D01*
X014001Y013906D01*
X013159Y013906D01*
X013066Y013812D01*
X013066Y013050D01*
X013159Y012956D01*
X014001Y012956D01*
X014094Y013050D01*
X014094Y013214D01*
X014262Y013221D01*
X014269Y013205D01*
X014405Y013069D01*
X014584Y012995D01*
X014776Y012995D01*
X014680Y012860D02*
X014680Y012860D01*
X014680Y012702D02*
X014680Y012702D01*
X014680Y012543D02*
X014680Y012543D01*
X014680Y012480D02*
X014175Y012480D01*
X014175Y012440D01*
X014187Y012362D01*
X014212Y012286D01*
X014248Y012215D01*
X014295Y012151D01*
X014351Y012095D01*
X014415Y012048D01*
X014486Y012012D01*
X014562Y011987D01*
X014640Y011975D01*
X014680Y011975D01*
X014680Y012480D01*
X014680Y012480D01*
X014680Y012385D02*
X014680Y012385D01*
X014680Y012226D02*
X014680Y012226D01*
X014680Y012068D02*
X014680Y012068D01*
X014389Y012068D02*
X014114Y012068D01*
X014114Y011990D02*
X014114Y012251D01*
X013657Y012251D01*
X013657Y011834D01*
X013958Y011834D01*
X014004Y011846D01*
X014045Y011870D01*
X014078Y011903D01*
X014102Y011944D01*
X014114Y011990D01*
X014082Y011909D02*
X017620Y011909D01*
X017620Y011751D02*
X012909Y011751D01*
X012979Y011680D02*
X012830Y011829D01*
X012635Y011910D01*
X012425Y011910D01*
X012230Y011829D01*
X012081Y011680D01*
X012000Y011485D01*
X012044Y011592D02*
X009518Y011592D01*
X009525Y011751D02*
X012151Y011751D01*
X012422Y011909D02*
X009659Y011909D01*
X009719Y012068D02*
X013046Y012068D01*
X013046Y011990D02*
X013058Y011944D01*
X013082Y011903D01*
X013115Y011870D01*
X013156Y011846D01*
X013202Y011834D01*
X013503Y011834D01*
X013503Y012251D01*
X013657Y012251D01*
X013657Y012406D01*
X013503Y012406D01*
X013503Y012824D01*
X013202Y012824D01*
X013156Y012812D01*
X013115Y012788D01*
X013082Y012754D01*
X013058Y012713D01*
X013046Y012667D01*
X013046Y012406D01*
X013503Y012406D01*
X013503Y012251D01*
X013046Y012251D01*
X013046Y011990D01*
X013078Y011909D02*
X012638Y011909D01*
X012979Y011680D02*
X013060Y011485D01*
X013060Y011275D01*
X013060Y011434D02*
X017620Y011434D01*
X017620Y011592D02*
X013016Y011592D01*
X012530Y011380D02*
X012530Y010440D01*
X012580Y010440D01*
X013095Y010324D02*
X013640Y010324D01*
X013630Y010473D02*
X013644Y010559D01*
X013670Y010641D01*
X013772Y010800D02*
X013095Y010800D01*
X013095Y010166D02*
X013697Y010166D01*
X014180Y010483D02*
X014180Y010483D01*
X014180Y010641D02*
X014180Y010641D01*
X014180Y010800D02*
X014180Y010800D01*
X013657Y011909D02*
X013503Y011909D01*
X013503Y012068D02*
X013657Y012068D01*
X013657Y012226D02*
X013503Y012226D01*
X013503Y012385D02*
X012081Y012385D01*
X012079Y012380D02*
X012160Y012575D01*
X012160Y012785D01*
X012079Y012980D01*
X011930Y013129D01*
X011892Y013145D01*
X012101Y013145D01*
X012195Y013239D01*
X012195Y014001D01*
X012101Y014095D01*
X011259Y014095D01*
X011165Y014001D01*
X011165Y013239D01*
X011259Y013145D01*
X011368Y013145D01*
X011330Y013129D01*
X011181Y012980D01*
X011100Y012785D01*
X011100Y012575D01*
X011181Y012380D01*
X011330Y012231D01*
X011525Y012150D01*
X011735Y012150D01*
X011930Y012231D01*
X012079Y012380D01*
X012147Y012543D02*
X013046Y012543D01*
X013055Y012702D02*
X012160Y012702D01*
X012129Y012860D02*
X014346Y012860D01*
X014226Y012702D02*
X014105Y012702D01*
X014102Y012713D02*
X014078Y012754D01*
X014045Y012788D01*
X014004Y012812D01*
X013958Y012824D01*
X013657Y012824D01*
X013657Y012406D01*
X014114Y012406D01*
X014114Y012667D01*
X014102Y012713D01*
X014114Y012543D02*
X014179Y012543D01*
X014184Y012385D02*
X013657Y012385D01*
X013657Y012543D02*
X013503Y012543D01*
X013503Y012702D02*
X013657Y012702D01*
X014063Y013019D02*
X014527Y013019D01*
X014680Y013480D02*
X013580Y013431D01*
X013066Y013494D02*
X012195Y013494D01*
X012195Y013336D02*
X013066Y013336D01*
X013066Y013177D02*
X012133Y013177D01*
X012041Y013019D02*
X013097Y013019D01*
X013066Y013653D02*
X012195Y013653D01*
X012195Y013811D02*
X013066Y013811D01*
X012958Y014265D02*
X013095Y014402D01*
X013111Y014440D01*
X013628Y014440D01*
X013716Y014477D01*
X013783Y014544D01*
X013820Y014632D01*
X013820Y017440D01*
X015249Y017440D01*
X015265Y017402D01*
X015402Y017265D01*
X015583Y017190D01*
X015777Y017190D01*
X015958Y017265D01*
X016095Y017402D01*
X016170Y017583D01*
X016170Y017777D01*
X016095Y017958D01*
X015958Y018095D01*
X015777Y018170D01*
X015583Y018170D01*
X015402Y018095D01*
X015265Y017958D01*
X015249Y017920D01*
X013532Y017920D01*
X013444Y017883D01*
X013377Y017816D01*
X013340Y017728D01*
X013340Y014920D01*
X013111Y014920D01*
X013095Y014958D01*
X012958Y015095D01*
X012777Y015170D01*
X012583Y015170D01*
X012402Y015095D01*
X012265Y014958D01*
X012195Y014789D01*
X012195Y015121D01*
X012101Y015215D01*
X011892Y015215D01*
X011930Y015231D01*
X012079Y015380D01*
X012160Y015575D01*
X012160Y015785D01*
X012079Y015980D01*
X011930Y016129D01*
X011735Y016210D01*
X011525Y016210D01*
X011330Y016129D01*
X011181Y015980D01*
X011100Y015785D01*
X011100Y015575D01*
X011181Y015380D01*
X011330Y015231D01*
X011368Y015215D01*
X011259Y015215D01*
X011165Y015121D01*
X011165Y014359D01*
X011259Y014265D01*
X012101Y014265D01*
X012195Y014359D01*
X012195Y014571D01*
X012265Y014402D01*
X012402Y014265D01*
X012583Y014190D01*
X012777Y014190D01*
X012958Y014265D01*
X012979Y014287D02*
X014247Y014287D01*
X014246Y014290D02*
X014258Y014244D01*
X014282Y014203D01*
X014315Y014170D01*
X014356Y014146D01*
X014402Y014134D01*
X014703Y014134D01*
X014703Y014551D01*
X014857Y014551D01*
X014857Y014134D01*
X015158Y014134D01*
X015204Y014146D01*
X015245Y014170D01*
X015278Y014203D01*
X015302Y014244D01*
X015314Y014290D01*
X015314Y014324D01*
X015348Y014291D01*
X015413Y014244D01*
X015484Y014207D01*
X015561Y014183D01*
X015640Y014170D01*
X015680Y014170D01*
X015720Y014170D01*
X015799Y014183D01*
X015876Y014207D01*
X015947Y014244D01*
X016012Y014291D01*
X016069Y014348D01*
X016116Y014413D01*
X016153Y014484D01*
X016177Y014561D01*
X016183Y014593D01*
X016187Y014562D01*
X016212Y014486D01*
X016248Y014415D01*
X016295Y014351D01*
X016351Y014295D01*
X016415Y014248D01*
X016486Y014212D01*
X016562Y014187D01*
X016640Y014175D01*
X016680Y014175D01*
X016720Y014175D01*
X016798Y014187D01*
X016874Y014212D01*
X016945Y014248D01*
X017009Y014295D01*
X017065Y014351D01*
X017112Y014415D01*
X017148Y014486D01*
X017173Y014562D01*
X017185Y014640D01*
X017185Y014680D01*
X017185Y014720D01*
X017173Y014798D01*
X017148Y014874D01*
X017112Y014945D01*
X017065Y015009D01*
X017009Y015065D01*
X016945Y015112D01*
X016874Y015148D01*
X016798Y015173D01*
X016720Y015185D01*
X016680Y015185D01*
X016680Y014680D01*
X016680Y014680D01*
X017185Y014680D01*
X016680Y014680D01*
X016680Y014680D01*
X016680Y015185D01*
X016640Y015185D01*
X016562Y015173D01*
X016486Y015148D01*
X016415Y015112D01*
X016351Y015065D01*
X016295Y015009D01*
X016248Y014945D01*
X016212Y014874D01*
X016187Y014798D01*
X016183Y014767D01*
X016177Y014799D01*
X016153Y014876D01*
X016116Y014947D01*
X016069Y015012D01*
X016012Y015069D01*
X015947Y015116D01*
X015876Y015153D01*
X015799Y015177D01*
X015720Y015190D01*
X015680Y015190D01*
X015680Y014680D01*
X015680Y014680D01*
X016680Y014680D01*
X016680Y014175D01*
X016680Y014680D01*
X016680Y014680D01*
X016680Y014680D01*
X016190Y014680D01*
X015680Y014680D01*
X015680Y014680D01*
X015680Y015190D01*
X015640Y015190D01*
X015561Y015177D01*
X015484Y015153D01*
X015413Y015116D01*
X015348Y015069D01*
X015298Y015020D01*
X015278Y015054D01*
X015245Y015088D01*
X015204Y015112D01*
X015158Y015124D01*
X014857Y015124D01*
X014857Y014706D01*
X014703Y014706D01*
X014703Y015124D01*
X014402Y015124D01*
X014356Y015112D01*
X014315Y015088D01*
X014282Y015054D01*
X014258Y015013D01*
X014246Y014967D01*
X014246Y014706D01*
X014703Y014706D01*
X014703Y014551D01*
X014246Y014551D01*
X014246Y014290D01*
X014246Y014445D02*
X013640Y014445D01*
X013808Y014604D02*
X014703Y014604D01*
X014857Y014604D02*
X015176Y014604D01*
X015170Y014640D02*
X015183Y014561D01*
X015186Y014551D01*
X014857Y014551D01*
X014857Y014706D01*
X015170Y014706D01*
X015170Y014680D01*
X015680Y014680D01*
X015680Y014170D01*
X015680Y014680D01*
X015680Y014680D01*
X015680Y014680D01*
X015170Y014680D01*
X015170Y014640D01*
X015254Y015079D02*
X015362Y015079D01*
X015402Y015265D02*
X015583Y015190D01*
X015777Y015190D01*
X015958Y015265D01*
X016095Y015402D01*
X016170Y015583D01*
X016170Y015777D01*
X016095Y015958D01*
X015958Y016095D01*
X015777Y016170D01*
X015583Y016170D01*
X015402Y016095D01*
X015294Y015987D01*
X015294Y016112D01*
X015201Y016206D01*
X014359Y016206D01*
X014266Y016112D01*
X014266Y015350D01*
X014359Y015256D01*
X015201Y015256D01*
X015294Y015350D01*
X015294Y015373D01*
X015402Y015265D01*
X015468Y015238D02*
X013820Y015238D01*
X013820Y015396D02*
X014266Y015396D01*
X014266Y015555D02*
X013820Y015555D01*
X013820Y015713D02*
X014266Y015713D01*
X014266Y015872D02*
X013820Y015872D01*
X013820Y016030D02*
X014266Y016030D01*
X014342Y016189D02*
X013820Y016189D01*
X013820Y016347D02*
X015320Y016347D01*
X015265Y016402D02*
X015402Y016265D01*
X015583Y016190D01*
X015777Y016190D01*
X015958Y016265D01*
X016095Y016402D01*
X016170Y016583D01*
X016170Y016777D01*
X016095Y016958D01*
X015958Y017095D01*
X015777Y017170D01*
X015583Y017170D01*
X015402Y017095D01*
X015265Y016958D01*
X015190Y016777D01*
X015190Y016583D01*
X015265Y016402D01*
X015222Y016506D02*
X013820Y016506D01*
X013820Y016664D02*
X015190Y016664D01*
X015209Y016823D02*
X013820Y016823D01*
X013820Y016981D02*
X015288Y016981D01*
X015509Y017140D02*
X013820Y017140D01*
X013820Y017298D02*
X015369Y017298D01*
X015680Y017680D02*
X013580Y017680D01*
X013580Y014680D01*
X012680Y014680D01*
X012974Y015079D02*
X013340Y015079D01*
X013340Y014921D02*
X013111Y014921D01*
X012958Y015265D02*
X013095Y015402D01*
X013170Y015583D01*
X013170Y015777D01*
X013095Y015958D01*
X012958Y016095D01*
X012777Y016170D01*
X012583Y016170D01*
X012402Y016095D01*
X012265Y015958D01*
X012190Y015777D01*
X012190Y015583D01*
X012265Y015402D01*
X012402Y015265D01*
X012583Y015190D01*
X012777Y015190D01*
X012958Y015265D01*
X012892Y015238D02*
X013340Y015238D01*
X013340Y015396D02*
X013089Y015396D01*
X013158Y015555D02*
X013340Y015555D01*
X013340Y015713D02*
X013170Y015713D01*
X013131Y015872D02*
X013340Y015872D01*
X013340Y016030D02*
X013023Y016030D01*
X012958Y016265D02*
X012777Y016190D01*
X012583Y016190D01*
X012402Y016265D01*
X012265Y016402D01*
X012190Y016583D01*
X012190Y016777D01*
X012265Y016958D01*
X012402Y017095D01*
X012583Y017170D01*
X012777Y017170D01*
X012958Y017095D01*
X013095Y016958D01*
X013170Y016777D01*
X013170Y016583D01*
X013095Y016402D01*
X012958Y016265D01*
X013040Y016347D02*
X013340Y016347D01*
X013340Y016189D02*
X011787Y016189D01*
X012030Y016030D02*
X012337Y016030D01*
X012229Y015872D02*
X012124Y015872D01*
X012160Y015713D02*
X012190Y015713D01*
X012202Y015555D02*
X012152Y015555D01*
X012086Y015396D02*
X012271Y015396D01*
X012468Y015238D02*
X011937Y015238D01*
X012195Y015079D02*
X012386Y015079D01*
X012249Y014921D02*
X012195Y014921D01*
X012195Y014445D02*
X012247Y014445D01*
X012123Y014287D02*
X012381Y014287D01*
X012195Y013970D02*
X017620Y013970D01*
X017620Y014128D02*
X010444Y014128D01*
X010444Y013970D02*
X011165Y013970D01*
X011165Y013811D02*
X010444Y013811D01*
X010444Y013653D02*
X011165Y013653D01*
X011165Y013494D02*
X011038Y013494D01*
X011038Y013336D02*
X011165Y013336D01*
X011227Y013177D02*
X011038Y013177D01*
X011038Y013019D02*
X011219Y013019D01*
X011131Y012860D02*
X011038Y012860D01*
X011038Y012702D02*
X011100Y012702D01*
X011113Y012543D02*
X011038Y012543D01*
X011007Y012385D02*
X011179Y012385D01*
X011341Y012226D02*
X009730Y012226D01*
X009692Y012385D02*
X010353Y012385D01*
X010322Y012543D02*
X009595Y012543D01*
X009280Y013280D02*
X010680Y013280D01*
X010680Y012880D02*
X008080Y012880D01*
X007480Y013120D02*
X007430Y013120D01*
X007430Y012180D01*
X007430Y011430D01*
X005280Y011430D01*
X005280Y011030D01*
X005462Y010873D02*
X005483Y010894D01*
X005520Y010982D01*
X005520Y011190D01*
X006326Y011190D01*
X006180Y011129D01*
X006031Y010980D01*
X005950Y010785D01*
X005950Y010724D01*
X005909Y010765D01*
X005845Y010812D01*
X005774Y010848D01*
X005698Y010873D01*
X005620Y010885D01*
X005580Y010885D01*
X005580Y010380D01*
X005580Y010380D01*
X005580Y009875D01*
X005620Y009875D01*
X005698Y009887D01*
X005774Y009912D01*
X005845Y009948D01*
X005909Y009995D01*
X005965Y010051D01*
X005965Y009681D01*
X005855Y009791D01*
X005676Y009865D01*
X005484Y009865D01*
X005438Y009846D01*
X005350Y009930D01*
X005386Y009912D01*
X005462Y009887D01*
X005540Y009875D01*
X005580Y009875D01*
X005580Y010380D01*
X005580Y010380D01*
X005580Y010885D01*
X005540Y010885D01*
X005462Y010873D01*
X005510Y010958D02*
X006021Y010958D01*
X005956Y010800D02*
X005862Y010800D01*
X005580Y010800D02*
X005580Y010800D01*
X005580Y010641D02*
X005580Y010641D01*
X005580Y010483D02*
X005580Y010483D01*
X005580Y010324D02*
X005580Y010324D01*
X005580Y010166D02*
X005580Y010166D01*
X005580Y010007D02*
X005580Y010007D01*
X005444Y009849D02*
X005436Y009849D01*
X005716Y009849D02*
X005965Y009849D01*
X005965Y010007D02*
X005921Y010007D01*
X005956Y009690D02*
X005965Y009690D01*
X006036Y009215D02*
X009045Y009215D01*
X009180Y009215D02*
X009180Y009215D01*
X009180Y009056D02*
X009180Y009056D01*
X009180Y008898D02*
X009180Y008898D01*
X009180Y008739D02*
X009180Y008739D01*
X008819Y008264D02*
X008095Y008264D01*
X008095Y008422D02*
X008694Y008422D01*
X008639Y008581D02*
X008095Y008581D01*
X008095Y008739D02*
X008632Y008739D01*
X008674Y008898D02*
X008095Y008898D01*
X008040Y009056D02*
X008778Y009056D01*
X008491Y009740D02*
X008491Y009780D01*
X008491Y009740D02*
X007580Y009740D01*
X007530Y009740D01*
X007530Y010680D01*
X008050Y010166D02*
X008060Y010166D01*
X008095Y009359D02*
X008095Y009359D01*
X007580Y008620D02*
X007530Y008620D01*
X007530Y007680D01*
X008017Y007471D02*
X008241Y007471D01*
X008241Y007313D02*
X007912Y007313D01*
X007645Y007154D02*
X008241Y007154D01*
X008242Y006996D02*
X006071Y006996D01*
X006114Y007154D02*
X006365Y007154D01*
X006595Y007154D02*
X007415Y007154D01*
X007148Y007313D02*
X006862Y007313D01*
X006967Y007471D02*
X007043Y007471D01*
X007067Y007947D02*
X006943Y007947D01*
X006805Y008105D02*
X007205Y008105D01*
X007065Y008264D02*
X006920Y008264D01*
X006995Y008422D02*
X007065Y008422D01*
X007065Y008581D02*
X006995Y008581D01*
X006995Y008739D02*
X007065Y008739D01*
X007065Y008898D02*
X006995Y008898D01*
X006995Y009056D02*
X007120Y009056D01*
X007065Y009373D02*
X006909Y009373D01*
X006995Y009532D02*
X007065Y009532D01*
X007065Y009690D02*
X006995Y009690D01*
X006995Y009849D02*
X007065Y009849D01*
X007065Y010007D02*
X006995Y010007D01*
X006995Y010166D02*
X007110Y010166D01*
X007136Y010324D02*
X006874Y010324D01*
X006972Y010483D02*
X007038Y010483D01*
X006480Y010680D02*
X006480Y009840D01*
X006167Y011117D02*
X005520Y011117D01*
X005232Y011670D02*
X005158Y011639D01*
X005146Y011668D01*
X005028Y011786D01*
X004874Y011850D01*
X004186Y011850D01*
X004032Y011786D01*
X003914Y011668D01*
X003850Y011514D01*
X003850Y011346D01*
X003890Y011250D01*
X003638Y011250D01*
X003638Y011694D01*
X003544Y011788D01*
X003520Y011788D01*
X003520Y012572D01*
X003544Y012572D01*
X003638Y012666D01*
X003638Y012690D01*
X003915Y012690D01*
X003894Y012661D01*
X003862Y012599D01*
X003841Y012533D01*
X003830Y012465D01*
X003830Y012430D01*
X004530Y012430D01*
X005230Y012430D01*
X005230Y012465D01*
X005219Y012533D01*
X005198Y012599D01*
X005166Y012661D01*
X005145Y012690D01*
X005628Y012690D01*
X005689Y012715D01*
X005759Y012645D01*
X005918Y012645D01*
X005880Y012629D01*
X005731Y012480D01*
X005650Y012285D01*
X005650Y012075D01*
X005731Y011880D01*
X005880Y011731D01*
X006026Y011670D01*
X005232Y011670D01*
X005063Y011751D02*
X005860Y011751D01*
X005719Y011909D02*
X003520Y011909D01*
X003520Y012068D02*
X004020Y012068D01*
X004039Y012054D02*
X003983Y012094D01*
X003934Y012143D01*
X003894Y012199D01*
X003862Y012261D01*
X003841Y012327D01*
X003830Y012395D01*
X003830Y012430D01*
X004530Y012430D01*
X004530Y012430D01*
X005230Y012430D01*
X005230Y012395D01*
X005219Y012327D01*
X005198Y012261D01*
X005166Y012199D01*
X005126Y012143D01*
X005077Y012094D01*
X005021Y012054D01*
X004959Y012022D01*
X004893Y012001D01*
X004825Y011990D01*
X004530Y011990D01*
X004530Y012430D01*
X004530Y012430D01*
X004530Y012430D01*
X004530Y011990D01*
X004235Y011990D01*
X004167Y012001D01*
X004101Y012022D01*
X004039Y012054D01*
X003880Y012226D02*
X003520Y012226D01*
X003520Y012385D02*
X003832Y012385D01*
X003844Y012543D02*
X003520Y012543D01*
X003638Y013177D02*
X003929Y013177D01*
X003855Y013336D02*
X002205Y013336D01*
X002210Y013346D02*
X002210Y013514D01*
X002146Y013668D01*
X002028Y013786D01*
X001874Y013850D01*
X001186Y013850D01*
X001032Y013786D01*
X000914Y013668D01*
X000850Y013514D01*
X000850Y013346D01*
X000914Y013192D01*
X001032Y013074D01*
X001186Y013010D01*
X001874Y013010D01*
X002028Y013074D01*
X002146Y013192D01*
X002210Y013346D01*
X002210Y013494D02*
X003850Y013494D01*
X003908Y013653D02*
X003125Y013653D01*
X003138Y013666D02*
X003138Y014194D01*
X003044Y014288D01*
X003020Y014288D01*
X003020Y015478D01*
X002983Y015566D01*
X002916Y015633D01*
X002828Y015670D01*
X002144Y015670D01*
X002028Y015786D01*
X001874Y015850D01*
X001186Y015850D01*
X001032Y015786D01*
X000914Y015668D01*
X000850Y015514D01*
X000850Y015346D01*
X000914Y015192D01*
X001032Y015074D01*
X001186Y015010D01*
X001874Y015010D01*
X002028Y015074D01*
X002144Y015190D01*
X002540Y015190D01*
X002540Y014288D01*
X002516Y014288D01*
X002422Y014194D01*
X002422Y013666D01*
X002516Y013572D01*
X003044Y013572D01*
X003138Y013666D01*
X003138Y013811D02*
X004092Y013811D01*
X003978Y014128D02*
X003138Y014128D01*
X003138Y013970D02*
X005090Y013970D01*
X005082Y014128D02*
X005090Y014128D01*
X005090Y013811D02*
X004968Y013811D01*
X005330Y013430D02*
X005330Y019680D01*
X004180Y019680D01*
X004180Y023580D01*
X004164Y023180D01*
X003707Y023163D02*
X003637Y023163D01*
X003637Y023321D02*
X003707Y023321D01*
X003707Y023480D02*
X003637Y023480D01*
X003637Y023568D02*
X003567Y023736D01*
X003439Y023864D01*
X003271Y023934D01*
X003089Y023934D01*
X002921Y023864D01*
X002793Y023736D01*
X002723Y023568D01*
X002723Y022792D01*
X002793Y022624D01*
X002921Y022496D01*
X003089Y022426D01*
X003271Y022426D01*
X003439Y022496D01*
X003567Y022624D01*
X003637Y022792D01*
X003637Y023568D01*
X003608Y023638D02*
X003737Y023638D01*
X003838Y023797D02*
X003506Y023797D01*
X003637Y023004D02*
X003707Y023004D01*
X003707Y022846D02*
X003637Y022846D01*
X003593Y022687D02*
X003751Y022687D01*
X003873Y022529D02*
X003471Y022529D01*
X003940Y022370D02*
X000740Y022370D01*
X000740Y022212D02*
X003940Y022212D01*
X003940Y022053D02*
X000740Y022053D01*
X000740Y021895D02*
X003940Y021895D01*
X003940Y021736D02*
X000740Y021736D01*
X000740Y021578D02*
X003940Y021578D01*
X003940Y021419D02*
X003401Y021419D01*
X003439Y021404D02*
X003271Y021473D01*
X003089Y021473D01*
X002921Y021404D01*
X002793Y021275D01*
X002723Y021107D01*
X002723Y020332D01*
X002793Y020164D01*
X002921Y020035D01*
X003089Y019966D01*
X003271Y019966D01*
X003439Y020035D01*
X003567Y020164D01*
X003637Y020332D01*
X003637Y021107D01*
X003567Y021275D01*
X003439Y021404D01*
X003573Y021261D02*
X003940Y021261D01*
X003940Y021102D02*
X003637Y021102D01*
X003637Y020944D02*
X003940Y020944D01*
X003940Y020785D02*
X003637Y020785D01*
X003637Y020627D02*
X003940Y020627D01*
X003940Y020468D02*
X003637Y020468D01*
X003628Y020310D02*
X003940Y020310D01*
X003940Y020151D02*
X003555Y020151D01*
X003336Y019993D02*
X003940Y019993D01*
X003940Y019834D02*
X000740Y019834D01*
X000740Y019676D02*
X003940Y019676D01*
X004004Y019517D02*
X000740Y019517D01*
X000740Y019359D02*
X005090Y019359D01*
X005090Y019200D02*
X000740Y019200D01*
X000740Y019042D02*
X005090Y019042D01*
X005090Y018883D02*
X000740Y018883D01*
X000740Y018725D02*
X000971Y018725D01*
X000914Y018668D02*
X001032Y018786D01*
X001186Y018850D01*
X001874Y018850D01*
X002028Y018786D01*
X002146Y018668D01*
X002210Y018514D01*
X002210Y018346D01*
X002146Y018192D01*
X002028Y018074D01*
X001874Y018010D01*
X001186Y018010D01*
X001032Y018074D01*
X000914Y018192D01*
X000850Y018346D01*
X000850Y018514D01*
X000914Y018668D01*
X000872Y018566D02*
X000740Y018566D01*
X000740Y018408D02*
X000850Y018408D01*
X000890Y018249D02*
X000740Y018249D01*
X000740Y018091D02*
X001016Y018091D01*
X001186Y017850D02*
X001032Y017786D01*
X000914Y017668D01*
X000850Y017514D01*
X000850Y017346D01*
X000914Y017192D01*
X001032Y017074D01*
X001186Y017010D01*
X001874Y017010D01*
X002028Y017074D01*
X002146Y017192D01*
X002210Y017346D01*
X002210Y017514D01*
X002146Y017668D01*
X002028Y017786D01*
X001874Y017850D01*
X001186Y017850D01*
X001020Y017774D02*
X000740Y017774D01*
X000740Y017932D02*
X005090Y017932D01*
X005090Y017774D02*
X005040Y017774D01*
X005044Y018091D02*
X005090Y018091D01*
X005089Y018725D02*
X005090Y018725D01*
X005570Y018725D02*
X005895Y018725D01*
X005880Y018731D02*
X005918Y018715D01*
X005759Y018715D01*
X005665Y018621D01*
X005665Y017859D01*
X005759Y017765D01*
X006601Y017765D01*
X006695Y017859D01*
X006695Y018621D01*
X006601Y018715D01*
X006442Y018715D01*
X006480Y018731D01*
X006629Y018880D01*
X006710Y019075D01*
X006710Y019285D01*
X006629Y019480D01*
X006480Y019629D01*
X006420Y019654D01*
X006420Y019940D01*
X009228Y019940D01*
X009316Y019977D01*
X009383Y020044D01*
X009420Y020132D01*
X009420Y020291D01*
X009430Y020274D01*
X009463Y020241D01*
X009504Y020217D01*
X009550Y020205D01*
X009801Y020205D01*
X009801Y020612D01*
X009937Y020612D01*
X009937Y020748D01*
X010344Y020748D01*
X010344Y020999D01*
X010332Y021045D01*
X010308Y021086D01*
X010275Y021119D01*
X010234Y021143D01*
X010188Y021155D01*
X009937Y021155D01*
X009937Y020748D01*
X009801Y020748D01*
X009801Y021155D01*
X009550Y021155D01*
X009504Y021143D01*
X009463Y021119D01*
X009430Y021086D01*
X009420Y021069D01*
X009420Y021206D01*
X009480Y021231D01*
X009629Y021380D01*
X009710Y021575D01*
X009710Y021785D01*
X009629Y021980D01*
X009480Y022129D01*
X009386Y022169D01*
X009391Y022170D01*
X009468Y022210D01*
X009538Y022260D01*
X009600Y022322D01*
X009650Y022392D01*
X009690Y022469D01*
X009716Y022551D01*
X009730Y022637D01*
X009730Y022680D01*
X009730Y022723D01*
X009716Y022809D01*
X009690Y022891D01*
X009650Y022968D01*
X009600Y023038D01*
X009538Y023100D01*
X009468Y023150D01*
X009391Y023190D01*
X009309Y023216D01*
X009223Y023230D01*
X009180Y023230D01*
X009180Y022680D01*
X009180Y022680D01*
X009730Y022680D01*
X009180Y022680D01*
X009180Y022680D01*
X009180Y022680D01*
X008630Y022680D01*
X008630Y022723D01*
X008644Y022809D01*
X008670Y022891D01*
X008710Y022968D01*
X008760Y023038D01*
X008822Y023100D01*
X008892Y023150D01*
X008969Y023190D01*
X009051Y023216D01*
X009137Y023230D01*
X009180Y023230D01*
X009180Y022680D01*
X008630Y022680D01*
X008630Y022637D01*
X008644Y022551D01*
X008670Y022469D01*
X008710Y022392D01*
X008760Y022322D01*
X008822Y022260D01*
X008892Y022210D01*
X008969Y022170D01*
X008974Y022169D01*
X008880Y022129D01*
X008731Y021980D01*
X008650Y021785D01*
X008650Y021575D01*
X008731Y021380D01*
X008880Y021231D01*
X008940Y021206D01*
X008940Y021048D01*
X008853Y021135D01*
X008129Y021135D01*
X008036Y021042D01*
X008036Y020420D01*
X006132Y020420D01*
X006044Y020383D01*
X005977Y020316D01*
X005940Y020228D01*
X005940Y019654D01*
X005880Y019629D01*
X005731Y019480D01*
X005650Y019285D01*
X005650Y019075D01*
X005731Y018880D01*
X005880Y018731D01*
X005729Y018883D02*
X005570Y018883D01*
X005570Y019042D02*
X005664Y019042D01*
X005650Y019200D02*
X005570Y019200D01*
X005570Y019359D02*
X005680Y019359D01*
X005767Y019517D02*
X005570Y019517D01*
X005570Y019676D02*
X005940Y019676D01*
X005940Y019834D02*
X005515Y019834D01*
X005399Y020035D02*
X005528Y020164D01*
X005597Y020332D01*
X005597Y021107D01*
X005528Y021275D01*
X005399Y021404D01*
X005232Y021473D01*
X005050Y021473D01*
X004882Y021404D01*
X004753Y021275D01*
X004684Y021107D01*
X004684Y020332D01*
X004753Y020164D01*
X004882Y020035D01*
X005050Y019966D01*
X005232Y019966D01*
X005399Y020035D01*
X005296Y019993D02*
X005940Y019993D01*
X005940Y020151D02*
X005515Y020151D01*
X005588Y020310D02*
X005974Y020310D01*
X006180Y020180D02*
X009180Y020180D01*
X009180Y020680D01*
X008491Y020680D01*
X008096Y021102D02*
X005597Y021102D01*
X005597Y020944D02*
X008036Y020944D01*
X008036Y020785D02*
X005597Y020785D01*
X005597Y020627D02*
X008036Y020627D01*
X008036Y020468D02*
X005597Y020468D01*
X006180Y020180D02*
X006180Y019180D01*
X006180Y018240D01*
X006465Y018725D02*
X008871Y018725D01*
X008816Y018566D02*
X006695Y018566D01*
X006695Y018408D02*
X007902Y018408D01*
X007980Y018180D02*
X006880Y017080D01*
X006880Y015880D01*
X006180Y015180D01*
X006180Y014240D01*
X005848Y014762D02*
X005570Y014762D01*
X005570Y014604D02*
X005665Y014604D01*
X005665Y014445D02*
X005570Y014445D01*
X005570Y014287D02*
X005665Y014287D01*
X005665Y014128D02*
X005570Y014128D01*
X005570Y013970D02*
X005665Y013970D01*
X005330Y013430D02*
X004530Y013430D01*
X003875Y014287D02*
X003046Y014287D01*
X003020Y014445D02*
X003850Y014445D01*
X003887Y014604D02*
X003020Y014604D01*
X003020Y014762D02*
X004008Y014762D01*
X004027Y015079D02*
X003020Y015079D01*
X003020Y014921D02*
X005090Y014921D01*
X005090Y015079D02*
X005033Y015079D01*
X005052Y014762D02*
X005090Y014762D01*
X005570Y014921D02*
X005714Y014921D01*
X005650Y015079D02*
X005570Y015079D01*
X005570Y015238D02*
X005650Y015238D01*
X005696Y015396D02*
X005570Y015396D01*
X005570Y015555D02*
X005805Y015555D01*
X005922Y015713D02*
X005570Y015713D01*
X005570Y015872D02*
X005739Y015872D01*
X005668Y016030D02*
X005570Y016030D01*
X005570Y016189D02*
X005650Y016189D01*
X005676Y016347D02*
X005570Y016347D01*
X005570Y016506D02*
X005756Y016506D01*
X005740Y016664D02*
X005570Y016664D01*
X005570Y016823D02*
X005665Y016823D01*
X005665Y016981D02*
X005570Y016981D01*
X005570Y017140D02*
X005665Y017140D01*
X005665Y017298D02*
X005570Y017298D01*
X005570Y017457D02*
X005665Y017457D01*
X005570Y017615D02*
X007076Y017615D01*
X007234Y017774D02*
X006610Y017774D01*
X006695Y017932D02*
X007393Y017932D01*
X007551Y018091D02*
X006695Y018091D01*
X006695Y018249D02*
X007710Y018249D01*
X007980Y018180D02*
X009180Y018180D01*
X009180Y016880D01*
X008591Y016880D01*
X008136Y016823D02*
X007120Y016823D01*
X007120Y016981D02*
X008136Y016981D01*
X008136Y017140D02*
X007279Y017140D01*
X007437Y017298D02*
X008192Y017298D01*
X007754Y017615D02*
X008940Y017615D01*
X008940Y017457D02*
X007596Y017457D01*
X007913Y017774D02*
X008837Y017774D01*
X008709Y017932D02*
X008071Y017932D01*
X008716Y018883D02*
X006631Y018883D01*
X006696Y019042D02*
X008647Y019042D01*
X008630Y019200D02*
X006710Y019200D01*
X006680Y019359D02*
X008660Y019359D01*
X008745Y019517D02*
X006593Y019517D01*
X006420Y019676D02*
X008941Y019676D01*
X009180Y019676D02*
X009180Y019676D01*
X009180Y019517D02*
X009180Y019517D01*
X009180Y019359D02*
X009180Y019359D01*
X009180Y019200D02*
X009180Y019200D01*
X009419Y019676D02*
X012854Y019676D01*
X012854Y019572D02*
X012975Y019281D01*
X013198Y019058D01*
X013489Y018937D01*
X015071Y018937D01*
X015362Y019058D01*
X015585Y019281D01*
X015706Y019572D01*
X015706Y019888D01*
X015585Y020179D01*
X015362Y020402D01*
X015071Y020523D01*
X013489Y020523D01*
X013198Y020402D01*
X012975Y020179D01*
X012854Y019888D01*
X012854Y019572D01*
X012877Y019517D02*
X009615Y019517D01*
X009700Y019359D02*
X012942Y019359D01*
X013055Y019200D02*
X009730Y019200D01*
X009713Y019042D02*
X013237Y019042D01*
X012854Y019834D02*
X006420Y019834D01*
X005665Y018566D02*
X005570Y018566D01*
X005570Y018408D02*
X005665Y018408D01*
X005665Y018249D02*
X005570Y018249D01*
X005570Y018091D02*
X005665Y018091D01*
X005665Y017932D02*
X005570Y017932D01*
X005570Y017774D02*
X005750Y017774D01*
X006180Y017120D02*
X006180Y016180D01*
X006735Y015396D02*
X006946Y015396D01*
X006900Y015238D02*
X006710Y015238D01*
X006710Y015079D02*
X006900Y015079D01*
X006964Y014921D02*
X006646Y014921D01*
X006512Y014762D02*
X007098Y014762D01*
X006965Y014604D02*
X006695Y014604D01*
X006695Y014445D02*
X006965Y014445D01*
X006965Y014287D02*
X006695Y014287D01*
X006695Y014128D02*
X006965Y014128D01*
X006965Y013970D02*
X006695Y013970D01*
X006180Y013120D02*
X006180Y012180D01*
X005793Y012543D02*
X005216Y012543D01*
X005228Y012385D02*
X005691Y012385D01*
X005650Y012226D02*
X005180Y012226D01*
X005040Y012068D02*
X005653Y012068D01*
X005656Y012702D02*
X005702Y012702D01*
X004530Y012385D02*
X004530Y012385D01*
X004530Y012226D02*
X004530Y012226D01*
X004530Y012068D02*
X004530Y012068D01*
X003997Y011751D02*
X003582Y011751D01*
X003638Y011592D02*
X003883Y011592D01*
X003850Y011434D02*
X003638Y011434D01*
X003638Y011275D02*
X003880Y011275D01*
X004530Y010430D02*
X004530Y010380D01*
X005580Y009380D01*
X005580Y008531D01*
X006049Y008105D02*
X006155Y008105D01*
X006017Y007947D02*
X004020Y007947D01*
X004020Y007788D02*
X004037Y007788D01*
X003321Y007788D02*
X003234Y007788D01*
X003234Y007630D02*
X003321Y007630D01*
X003321Y007471D02*
X003234Y007471D01*
X003228Y007313D02*
X003321Y007313D01*
X003321Y007947D02*
X003234Y007947D01*
X002880Y008330D02*
X003030Y008480D01*
X002778Y008228D01*
X002778Y007680D01*
X002387Y008105D02*
X002059Y008105D01*
X002176Y008264D02*
X002538Y008264D01*
X002545Y008422D02*
X002210Y008422D01*
X002182Y008581D02*
X002547Y008581D01*
X002612Y008739D02*
X002075Y008739D01*
X001985Y009056D02*
X002784Y009056D01*
X002771Y008898D02*
X001020Y008898D01*
X001020Y009056D02*
X001075Y009056D01*
X001530Y009430D02*
X003019Y009430D01*
X003030Y008480D01*
X004020Y006996D02*
X005089Y006996D01*
X004905Y006837D02*
X008242Y006837D01*
X008243Y006679D02*
X007714Y006679D01*
X007877Y006520D02*
X008243Y006520D01*
X008244Y006362D02*
X007946Y006362D01*
X007970Y006203D02*
X008244Y006203D01*
X008245Y006045D02*
X007957Y006045D01*
X007891Y005886D02*
X008245Y005886D01*
X008246Y005728D02*
X007745Y005728D01*
X008246Y005569D02*
X006836Y005569D01*
X006929Y005411D02*
X008246Y005411D01*
X008247Y005252D02*
X006970Y005252D01*
X006970Y005094D02*
X008247Y005094D01*
X008248Y004935D02*
X006909Y004935D01*
X006787Y004777D02*
X008248Y004777D01*
X008725Y006045D02*
X010775Y006045D01*
X010760Y006203D02*
X008724Y006203D01*
X008724Y006362D02*
X010783Y006362D01*
X010849Y006520D02*
X008723Y006520D01*
X008722Y006996D02*
X017620Y006996D01*
X017620Y007154D02*
X009295Y007154D01*
X009065Y007154D02*
X008721Y007154D01*
X008721Y007313D02*
X008798Y007313D01*
X008717Y007947D02*
X007993Y007947D01*
X008059Y007788D02*
X008265Y007788D01*
X008240Y007727D02*
X008240Y007727D01*
X008240Y007632D02*
X008240Y007632D01*
X008240Y007630D02*
X008060Y007630D01*
X008344Y007883D02*
X008344Y007883D01*
X008527Y007920D02*
X008527Y007920D01*
X008855Y008105D02*
X007855Y008105D01*
X007079Y006679D02*
X005135Y006679D01*
X004155Y006837D02*
X004020Y006837D01*
X003149Y005094D02*
X002828Y005094D01*
X002924Y004935D02*
X003056Y004935D01*
X003056Y004777D02*
X002924Y004777D01*
X003056Y004618D02*
X002506Y004618D01*
X002351Y004618D02*
X000740Y004618D01*
X000740Y004460D02*
X001934Y004460D01*
X001934Y004301D02*
X000740Y004301D01*
X000740Y004143D02*
X001954Y004143D01*
X001945Y003984D02*
X000740Y003984D01*
X000740Y003826D02*
X001945Y003826D01*
X001945Y003667D02*
X000740Y003667D01*
X000740Y003509D02*
X001945Y003509D01*
X001945Y003350D02*
X000740Y003350D01*
X000740Y003192D02*
X002012Y003192D01*
X001952Y003087D02*
X001775Y003160D01*
X001585Y003160D01*
X001408Y003087D01*
X001273Y002952D01*
X001200Y002775D01*
X001200Y002585D01*
X001273Y002408D01*
X001408Y002273D01*
X001585Y002200D01*
X001775Y002200D01*
X001952Y002273D01*
X002087Y002408D01*
X002160Y002585D01*
X002160Y002775D01*
X002087Y002952D01*
X001952Y003087D01*
X002006Y003033D02*
X002354Y003033D01*
X002241Y002875D02*
X002119Y002875D01*
X002160Y002716D02*
X002200Y002716D01*
X002211Y002558D02*
X002149Y002558D01*
X002078Y002399D02*
X002282Y002399D01*
X002487Y002241D02*
X001873Y002241D01*
X001775Y002160D02*
X001952Y002087D01*
X002087Y001952D01*
X002160Y001775D01*
X002160Y001585D01*
X002087Y001408D01*
X001952Y001273D01*
X001775Y001200D01*
X001585Y001200D01*
X001408Y001273D01*
X001273Y001408D01*
X001200Y001585D01*
X001200Y001775D01*
X001273Y001952D01*
X001408Y002087D01*
X001585Y002160D01*
X001775Y002160D01*
X001957Y002082D02*
X002403Y002082D01*
X002408Y002087D02*
X002273Y001952D01*
X002200Y001775D01*
X002200Y001585D01*
X002273Y001408D01*
X002408Y001273D01*
X002585Y001200D01*
X002775Y001200D01*
X002952Y001273D01*
X003087Y001408D01*
X003160Y001585D01*
X003160Y001775D01*
X003087Y001952D01*
X002952Y002087D01*
X002775Y002160D01*
X002585Y002160D01*
X002408Y002087D01*
X002261Y001924D02*
X002099Y001924D01*
X002160Y001765D02*
X002200Y001765D01*
X002200Y001607D02*
X002160Y001607D01*
X002103Y001448D02*
X002257Y001448D01*
X002392Y001290D02*
X001968Y001290D01*
X001392Y001290D02*
X000740Y001290D01*
X000740Y001448D02*
X001257Y001448D01*
X001200Y001607D02*
X000740Y001607D01*
X000740Y001765D02*
X001200Y001765D01*
X001261Y001924D02*
X000740Y001924D01*
X000740Y002082D02*
X001403Y002082D01*
X001487Y002241D02*
X000740Y002241D01*
X000740Y002399D02*
X001282Y002399D01*
X001211Y002558D02*
X000740Y002558D01*
X000740Y002716D02*
X001200Y002716D01*
X001241Y002875D02*
X000740Y002875D01*
X000740Y003033D02*
X001354Y003033D01*
X002420Y003680D02*
X002680Y003680D01*
X002680Y002680D01*
X002873Y002241D02*
X003441Y002241D01*
X003418Y002252D02*
X003488Y002217D01*
X003563Y002192D01*
X003641Y002180D01*
X003671Y002180D01*
X003671Y002671D01*
X003180Y002671D01*
X003180Y002641D01*
X003192Y002563D01*
X003217Y002488D01*
X003252Y002418D01*
X003299Y002354D01*
X003354Y002299D01*
X003418Y002252D01*
X003403Y002082D02*
X002957Y002082D01*
X003099Y001924D02*
X003261Y001924D01*
X003200Y001765D02*
X003160Y001765D01*
X003160Y001607D02*
X003200Y001607D01*
X003257Y001448D02*
X003103Y001448D01*
X002968Y001290D02*
X003392Y001290D01*
X003968Y001290D02*
X006645Y001290D01*
X006657Y001448D02*
X004103Y001448D01*
X004160Y001607D02*
X006723Y001607D01*
X006829Y001765D02*
X004160Y001765D01*
X004099Y001924D02*
X007008Y001924D01*
X006645Y001131D02*
X000740Y001131D01*
X000740Y000973D02*
X006705Y000973D01*
X006786Y000814D02*
X000740Y000814D01*
X002920Y003192D02*
X003132Y003192D01*
X003065Y003350D02*
X002920Y003350D01*
X002920Y003509D02*
X003065Y003509D01*
X003065Y003667D02*
X002920Y003667D01*
X002895Y003826D02*
X003065Y003826D01*
X003065Y003984D02*
X002895Y003984D01*
X002904Y004143D02*
X003073Y004143D01*
X003056Y004301D02*
X002924Y004301D01*
X002924Y004460D02*
X003056Y004460D01*
X003531Y004580D02*
X003531Y004180D01*
X004580Y004180D01*
X004085Y004618D02*
X004006Y004618D01*
X004006Y004777D02*
X004243Y004777D01*
X003540Y004580D02*
X003540Y003680D01*
X003948Y003192D02*
X013650Y003192D01*
X013667Y003033D02*
X004034Y003033D01*
X004142Y002875D02*
X013736Y002875D01*
X013915Y002716D02*
X004180Y002716D01*
X003689Y002558D02*
X003671Y002558D01*
X003671Y002399D02*
X003689Y002399D01*
X003689Y002241D02*
X003671Y002241D01*
X003266Y002399D02*
X003078Y002399D01*
X003149Y002558D02*
X003194Y002558D01*
X003180Y002716D02*
X003160Y002716D01*
X003119Y002875D02*
X003218Y002875D01*
X003326Y003033D02*
X003006Y003033D01*
X003531Y004580D02*
X003540Y004580D01*
X002599Y005252D02*
X002171Y005252D01*
X002210Y005411D02*
X002522Y005411D01*
X002522Y005569D02*
X002187Y005569D01*
X002086Y005728D02*
X002522Y005728D01*
X002506Y005094D02*
X002351Y005094D01*
X002351Y004935D02*
X002506Y004935D01*
X002506Y004777D02*
X002351Y004777D01*
X001934Y004777D02*
X000740Y004777D01*
X000740Y004935D02*
X001934Y004935D01*
X001013Y005094D02*
X000740Y005094D01*
X000740Y005252D02*
X000889Y005252D01*
X000850Y005411D02*
X000740Y005411D01*
X000740Y005569D02*
X000873Y005569D01*
X003541Y009891D02*
X003030Y010480D01*
X002980Y010430D01*
X001530Y010430D01*
X001530Y011434D02*
X001530Y011434D01*
X001530Y011592D02*
X001530Y011592D01*
X001530Y011751D02*
X001530Y011751D01*
X001186Y012010D02*
X001874Y012010D01*
X002028Y012074D01*
X002146Y012192D01*
X002210Y012346D01*
X002210Y012514D01*
X002146Y012668D01*
X002028Y012786D01*
X001874Y012850D01*
X001186Y012850D01*
X001032Y012786D01*
X000914Y012668D01*
X000850Y012514D01*
X000850Y012346D01*
X000914Y012192D01*
X001032Y012074D01*
X001186Y012010D01*
X001048Y012068D02*
X000740Y012068D01*
X000740Y012226D02*
X000900Y012226D01*
X000850Y012385D02*
X000740Y012385D01*
X000740Y012543D02*
X000862Y012543D01*
X000948Y012702D02*
X000740Y012702D01*
X000740Y012860D02*
X002922Y012860D01*
X002922Y012702D02*
X002112Y012702D01*
X002198Y012543D02*
X003040Y012543D01*
X003040Y012385D02*
X002210Y012385D01*
X002160Y012226D02*
X003040Y012226D01*
X003040Y012068D02*
X002012Y012068D01*
X001894Y013019D02*
X002922Y013019D01*
X002922Y013177D02*
X002131Y013177D01*
X002152Y013653D02*
X002435Y013653D01*
X002422Y013811D02*
X001968Y013811D01*
X001874Y014010D02*
X002028Y014074D01*
X002146Y014192D01*
X002210Y014346D01*
X002210Y014514D01*
X002146Y014668D01*
X002028Y014786D01*
X001874Y014850D01*
X001186Y014850D01*
X001032Y014786D01*
X000914Y014668D01*
X000850Y014514D01*
X000850Y014346D01*
X000914Y014192D01*
X001032Y014074D01*
X001186Y014010D01*
X001874Y014010D01*
X002082Y014128D02*
X002422Y014128D01*
X002422Y013970D02*
X000740Y013970D01*
X000740Y014128D02*
X000978Y014128D01*
X000875Y014287D02*
X000740Y014287D01*
X000740Y014445D02*
X000850Y014445D01*
X000887Y014604D02*
X000740Y014604D01*
X000740Y014762D02*
X001008Y014762D01*
X000740Y014921D02*
X002540Y014921D01*
X002540Y015079D02*
X002033Y015079D01*
X002052Y014762D02*
X002540Y014762D01*
X002540Y014604D02*
X002173Y014604D01*
X002210Y014445D02*
X002540Y014445D01*
X002514Y014287D02*
X002185Y014287D01*
X002780Y013930D02*
X002780Y015430D01*
X001530Y015430D01*
X001186Y016010D02*
X001874Y016010D01*
X002028Y016074D01*
X002146Y016192D01*
X002210Y016346D01*
X002210Y016514D01*
X002146Y016668D01*
X002028Y016786D01*
X001874Y016850D01*
X001186Y016850D01*
X001032Y016786D01*
X000914Y016668D01*
X000850Y016514D01*
X000850Y016346D01*
X000914Y016192D01*
X001032Y016074D01*
X001186Y016010D01*
X001138Y016030D02*
X000740Y016030D01*
X000740Y015872D02*
X005090Y015872D01*
X005090Y016030D02*
X004922Y016030D01*
X004940Y016823D02*
X005090Y016823D01*
X005090Y016981D02*
X000740Y016981D01*
X000740Y016823D02*
X001120Y016823D01*
X000967Y017140D02*
X000740Y017140D01*
X000740Y017298D02*
X000870Y017298D01*
X000850Y017457D02*
X000740Y017457D01*
X000740Y017615D02*
X000892Y017615D01*
X000912Y016664D02*
X000740Y016664D01*
X000740Y016506D02*
X000850Y016506D01*
X000850Y016347D02*
X000740Y016347D01*
X000740Y016189D02*
X000918Y016189D01*
X000959Y015713D02*
X000740Y015713D01*
X000740Y015555D02*
X000867Y015555D01*
X000850Y015396D02*
X000740Y015396D01*
X000740Y015238D02*
X000895Y015238D01*
X001027Y015079D02*
X000740Y015079D01*
X000740Y013811D02*
X001092Y013811D01*
X000908Y013653D02*
X000740Y013653D01*
X000740Y013494D02*
X000850Y013494D01*
X000855Y013336D02*
X000740Y013336D01*
X000740Y013177D02*
X000929Y013177D01*
X000740Y013019D02*
X001166Y013019D01*
X002101Y015713D02*
X003959Y015713D01*
X003867Y015555D02*
X002988Y015555D01*
X003020Y015396D02*
X003850Y015396D01*
X003895Y015238D02*
X003020Y015238D01*
X002210Y016347D02*
X003850Y016347D01*
X003850Y016506D02*
X002210Y016506D01*
X002148Y016664D02*
X003912Y016664D01*
X004120Y016823D02*
X001940Y016823D01*
X002093Y017140D02*
X003967Y017140D01*
X003870Y017298D02*
X002190Y017298D01*
X002210Y017457D02*
X003850Y017457D01*
X003892Y017615D02*
X002168Y017615D01*
X002040Y017774D02*
X004020Y017774D01*
X004016Y018091D02*
X002044Y018091D01*
X002170Y018249D02*
X003890Y018249D01*
X003850Y018408D02*
X002210Y018408D01*
X002188Y018566D02*
X003872Y018566D01*
X003971Y018725D02*
X002089Y018725D01*
X003024Y019993D02*
X000740Y019993D01*
X000740Y020151D02*
X002805Y020151D01*
X002732Y020310D02*
X000740Y020310D01*
X000740Y020468D02*
X002723Y020468D01*
X002723Y020627D02*
X000740Y020627D01*
X000740Y020785D02*
X002723Y020785D01*
X002723Y020944D02*
X000740Y020944D01*
X000740Y021102D02*
X002723Y021102D01*
X002787Y021261D02*
X000740Y021261D01*
X000740Y021419D02*
X002959Y021419D01*
X002889Y022529D02*
X000740Y022529D01*
X000740Y022687D02*
X002767Y022687D01*
X002723Y022846D02*
X000740Y022846D01*
X000740Y023004D02*
X002723Y023004D01*
X002723Y023163D02*
X000740Y023163D01*
X000740Y023321D02*
X002723Y023321D01*
X002723Y023480D02*
X000740Y023480D01*
X000740Y023638D02*
X002752Y023638D01*
X002854Y023797D02*
X000740Y023797D01*
X000740Y023955D02*
X008170Y023955D01*
X008170Y023797D02*
X005503Y023797D01*
X005512Y023787D02*
X005459Y023841D01*
X005398Y023885D01*
X005332Y023919D01*
X005260Y023942D01*
X005186Y023954D01*
X005167Y023954D01*
X005167Y023198D01*
X005625Y023198D01*
X005625Y023514D01*
X005614Y023589D01*
X005590Y023660D01*
X005556Y023727D01*
X005512Y023787D01*
X005598Y023638D02*
X008170Y023638D01*
X008215Y023480D02*
X005625Y023480D01*
X005625Y023321D02*
X008338Y023321D01*
X008736Y023004D02*
X005625Y023004D01*
X005625Y022846D02*
X005625Y023162D01*
X005167Y023162D01*
X005167Y023198D01*
X005130Y023198D01*
X005130Y023162D01*
X004672Y023162D01*
X004672Y022846D01*
X004683Y022771D01*
X004707Y022700D01*
X004741Y022633D01*
X004785Y022573D01*
X004838Y022519D01*
X004899Y022475D01*
X004965Y022441D01*
X005037Y022418D01*
X005111Y022406D01*
X005130Y022406D01*
X005130Y023162D01*
X005167Y023162D01*
X005167Y022406D01*
X005186Y022406D01*
X005260Y022418D01*
X005332Y022441D01*
X005398Y022475D01*
X005459Y022519D01*
X005512Y022573D01*
X005556Y022633D01*
X005590Y022700D01*
X005614Y022771D01*
X005625Y022846D01*
X008655Y022846D01*
X008630Y022687D02*
X005584Y022687D01*
X005468Y022529D02*
X008651Y022529D01*
X008725Y022370D02*
X004420Y022370D01*
X004420Y022212D02*
X008889Y022212D01*
X008804Y022053D02*
X004420Y022053D01*
X004420Y021895D02*
X008695Y021895D01*
X008650Y021736D02*
X004420Y021736D01*
X004420Y021578D02*
X008650Y021578D01*
X008714Y021419D02*
X005362Y021419D01*
X005534Y021261D02*
X008850Y021261D01*
X008886Y021102D02*
X008940Y021102D01*
X009180Y020680D02*
X009180Y021680D01*
X009510Y021261D02*
X017620Y021261D01*
X017620Y021419D02*
X015374Y021419D01*
X015362Y021408D02*
X015585Y021631D01*
X015706Y021922D01*
X015706Y022238D01*
X015585Y022529D01*
X015362Y022752D01*
X015071Y022873D01*
X013489Y022873D01*
X013198Y022752D01*
X012975Y022529D01*
X012854Y022238D01*
X012854Y021922D01*
X012975Y021631D01*
X013198Y021408D01*
X013489Y021287D01*
X015071Y021287D01*
X015362Y021408D01*
X015532Y021578D02*
X016828Y021578D01*
X016567Y021736D02*
X015629Y021736D01*
X015695Y021895D02*
X016428Y021895D01*
X016363Y022053D02*
X015706Y022053D01*
X015706Y022212D02*
X016328Y022212D01*
X016328Y022370D02*
X015651Y022370D01*
X015586Y022529D02*
X016328Y022529D01*
X016328Y022687D02*
X015428Y022687D01*
X015137Y022846D02*
X016328Y022846D01*
X016328Y023004D02*
X009624Y023004D01*
X009705Y022846D02*
X013423Y022846D01*
X013132Y022687D02*
X009730Y022687D01*
X009709Y022529D02*
X012974Y022529D01*
X012909Y022370D02*
X009635Y022370D01*
X009471Y022212D02*
X012854Y022212D01*
X012854Y022053D02*
X009556Y022053D01*
X009665Y021895D02*
X012865Y021895D01*
X012931Y021736D02*
X009710Y021736D01*
X009710Y021578D02*
X013028Y021578D01*
X013186Y021419D02*
X009646Y021419D01*
X009801Y021102D02*
X009937Y021102D01*
X009937Y020944D02*
X009801Y020944D01*
X009801Y020785D02*
X009937Y020785D01*
X009937Y020627D02*
X016412Y020627D01*
X016346Y020468D02*
X015204Y020468D01*
X015455Y020310D02*
X016328Y020310D01*
X016328Y020151D02*
X015597Y020151D01*
X015663Y019993D02*
X016328Y019993D01*
X016328Y019834D02*
X015706Y019834D01*
X015706Y019676D02*
X016328Y019676D01*
X016328Y019517D02*
X015683Y019517D01*
X015618Y019359D02*
X016328Y019359D01*
X016328Y019200D02*
X015505Y019200D01*
X015323Y019042D02*
X016328Y019042D01*
X016350Y018883D02*
X009644Y018883D01*
X009489Y018725D02*
X016416Y018725D01*
X016537Y018566D02*
X009544Y018566D01*
X009659Y018408D02*
X016755Y018408D01*
X017405Y018408D02*
X017620Y018408D01*
X017620Y018249D02*
X009710Y018249D01*
X009710Y018091D02*
X012398Y018091D01*
X012402Y018095D02*
X012265Y017958D01*
X012190Y017777D01*
X012190Y017583D01*
X012265Y017402D01*
X012402Y017265D01*
X012583Y017190D01*
X012777Y017190D01*
X012958Y017265D01*
X013095Y017402D01*
X013170Y017583D01*
X013170Y017777D01*
X013095Y017958D01*
X012958Y018095D01*
X012777Y018170D01*
X012583Y018170D01*
X012402Y018095D01*
X012254Y017932D02*
X009651Y017932D01*
X009523Y017774D02*
X012190Y017774D01*
X012190Y017615D02*
X009420Y017615D01*
X009420Y017457D02*
X012242Y017457D01*
X012369Y017298D02*
X010396Y017298D01*
X010408Y017286D02*
X010375Y017319D01*
X010334Y017343D01*
X010288Y017355D01*
X010037Y017355D01*
X010037Y016948D01*
X010444Y016948D01*
X010444Y017199D01*
X010432Y017245D01*
X010408Y017286D01*
X010444Y017140D02*
X012509Y017140D01*
X012851Y017140D02*
X013340Y017140D01*
X013340Y017298D02*
X012991Y017298D01*
X013118Y017457D02*
X013340Y017457D01*
X013340Y017615D02*
X013170Y017615D01*
X013170Y017774D02*
X013359Y017774D01*
X013106Y017932D02*
X015254Y017932D01*
X015398Y018091D02*
X012962Y018091D01*
X013072Y016981D02*
X013340Y016981D01*
X013340Y016823D02*
X013151Y016823D01*
X013170Y016664D02*
X013340Y016664D01*
X013340Y016506D02*
X013138Y016506D01*
X012320Y016347D02*
X007120Y016347D01*
X007120Y016189D02*
X008967Y016189D01*
X009180Y016189D02*
X009180Y016189D01*
X009180Y016030D02*
X009180Y016030D01*
X009180Y015872D02*
X009180Y015872D01*
X009180Y015713D02*
X009180Y015713D01*
X009393Y016189D02*
X011473Y016189D01*
X011230Y016030D02*
X009606Y016030D01*
X009696Y015872D02*
X011136Y015872D01*
X011100Y015713D02*
X009730Y015713D01*
X009717Y015555D02*
X011108Y015555D01*
X011174Y015396D02*
X009653Y015396D01*
X009507Y015238D02*
X011323Y015238D01*
X011165Y015079D02*
X009531Y015079D01*
X009654Y014921D02*
X011165Y014921D01*
X011165Y014762D02*
X009710Y014762D01*
X009710Y014604D02*
X011165Y014604D01*
X011165Y014445D02*
X009656Y014445D01*
X009522Y014272D02*
X009506Y014245D01*
X009494Y014199D01*
X009494Y013948D01*
X009901Y013948D01*
X009901Y013812D01*
X009494Y013812D01*
X009494Y013638D01*
X009046Y013638D01*
X009046Y014162D01*
X009075Y014150D01*
X009285Y014150D01*
X009480Y014231D01*
X009522Y014272D01*
X009494Y014128D02*
X009046Y014128D01*
X009046Y013970D02*
X009494Y013970D01*
X009494Y013811D02*
X009046Y013811D01*
X009046Y013653D02*
X009494Y013653D01*
X009901Y013970D02*
X010037Y013970D01*
X010037Y014128D02*
X009901Y014128D01*
X009901Y014287D02*
X010037Y014287D01*
X010408Y014287D02*
X011237Y014287D01*
X011630Y014740D02*
X011630Y015680D01*
X012222Y016506D02*
X010426Y016506D01*
X010432Y016515D02*
X010444Y016561D01*
X010444Y016812D01*
X010037Y016812D01*
X010037Y016948D01*
X009901Y016948D01*
X009901Y017355D01*
X009650Y017355D01*
X009604Y017343D01*
X009563Y017319D01*
X009530Y017286D01*
X009506Y017245D01*
X009494Y017199D01*
X009494Y016948D01*
X009901Y016948D01*
X009901Y016812D01*
X009494Y016812D01*
X009494Y016561D01*
X009506Y016515D01*
X009530Y016474D01*
X009563Y016441D01*
X009604Y016417D01*
X009650Y016405D01*
X009901Y016405D01*
X009901Y016812D01*
X010037Y016812D01*
X010037Y016405D01*
X010288Y016405D01*
X010334Y016417D01*
X010375Y016441D01*
X010408Y016474D01*
X010432Y016515D01*
X010444Y016664D02*
X012190Y016664D01*
X012209Y016823D02*
X010037Y016823D01*
X009901Y016823D02*
X009416Y016823D01*
X009420Y016981D02*
X009494Y016981D01*
X009494Y017140D02*
X009420Y017140D01*
X009420Y017298D02*
X009542Y017298D01*
X009901Y017298D02*
X010037Y017298D01*
X010037Y017140D02*
X009901Y017140D01*
X009901Y016981D02*
X010037Y016981D01*
X010037Y016664D02*
X009901Y016664D01*
X009901Y016506D02*
X010037Y016506D01*
X010444Y016981D02*
X012288Y016981D01*
X011680Y014740D02*
X011630Y014740D01*
X011630Y013620D02*
X011630Y012680D01*
X011919Y012226D02*
X013046Y012226D01*
X014114Y012226D02*
X014243Y012226D01*
X014297Y013177D02*
X014094Y013177D01*
X014094Y013811D02*
X014325Y013811D01*
X014703Y014287D02*
X014857Y014287D01*
X014857Y014445D02*
X014703Y014445D01*
X014703Y014762D02*
X014857Y014762D01*
X014857Y014921D02*
X014703Y014921D01*
X014703Y015079D02*
X014857Y015079D01*
X014306Y015079D02*
X013820Y015079D01*
X013820Y014921D02*
X014246Y014921D01*
X014246Y014762D02*
X013820Y014762D01*
X014780Y015731D02*
X015180Y015731D01*
X015680Y015731D01*
X015680Y015680D01*
X016131Y015872D02*
X016234Y015872D01*
X016269Y015955D02*
X016195Y015776D01*
X016195Y015584D01*
X016269Y015405D01*
X016405Y015269D01*
X016584Y015195D01*
X016776Y015195D01*
X016955Y015269D01*
X017091Y015405D01*
X017165Y015584D01*
X017165Y015776D01*
X017091Y015955D01*
X016955Y016091D01*
X016776Y016165D01*
X016584Y016165D01*
X016405Y016091D01*
X016269Y015955D01*
X016344Y016030D02*
X016023Y016030D01*
X016040Y016347D02*
X017620Y016347D01*
X017620Y016189D02*
X015218Y016189D01*
X015294Y016030D02*
X015337Y016030D01*
X015180Y015731D02*
X015180Y015680D01*
X015680Y015079D02*
X015680Y015079D01*
X015680Y014921D02*
X015680Y014921D01*
X015680Y014762D02*
X015680Y014762D01*
X015680Y014604D02*
X015680Y014604D01*
X015680Y014445D02*
X015680Y014445D01*
X015680Y014287D02*
X015680Y014287D01*
X015795Y013811D02*
X015035Y013811D01*
X015133Y013653D02*
X015795Y013653D01*
X015795Y013494D02*
X015165Y013494D01*
X015145Y013336D02*
X015795Y013336D01*
X015795Y013177D02*
X015063Y013177D01*
X015313Y014287D02*
X015354Y014287D01*
X016006Y014287D02*
X016362Y014287D01*
X016233Y014445D02*
X016133Y014445D01*
X016130Y014921D02*
X016236Y014921D01*
X016370Y015079D02*
X015998Y015079D01*
X015892Y015238D02*
X016481Y015238D01*
X016680Y015079D02*
X016680Y015079D01*
X016680Y014921D02*
X016680Y014921D01*
X016680Y014762D02*
X016680Y014762D01*
X016680Y014604D02*
X016680Y014604D01*
X016680Y014445D02*
X016680Y014445D01*
X016680Y014287D02*
X016680Y014287D01*
X016765Y013811D02*
X017620Y013811D01*
X017620Y013653D02*
X016765Y013653D01*
X016765Y013494D02*
X017620Y013494D01*
X017620Y013336D02*
X016765Y013336D01*
X016765Y013177D02*
X017620Y013177D01*
X017620Y013019D02*
X016695Y013019D01*
X016998Y014287D02*
X017620Y014287D01*
X017620Y014445D02*
X017127Y014445D01*
X017179Y014604D02*
X017620Y014604D01*
X017620Y014762D02*
X017178Y014762D01*
X017124Y014921D02*
X017620Y014921D01*
X017620Y015079D02*
X016990Y015079D01*
X016879Y015238D02*
X017620Y015238D01*
X017620Y015396D02*
X017082Y015396D01*
X017153Y015555D02*
X017620Y015555D01*
X017620Y015713D02*
X017165Y015713D01*
X017126Y015872D02*
X017620Y015872D01*
X017620Y016030D02*
X017016Y016030D01*
X017620Y016506D02*
X016138Y016506D01*
X016170Y016664D02*
X017620Y016664D01*
X017620Y016823D02*
X016151Y016823D01*
X016072Y016981D02*
X017620Y016981D01*
X017620Y017140D02*
X015851Y017140D01*
X015991Y017298D02*
X017620Y017298D01*
X017620Y017457D02*
X016118Y017457D01*
X016170Y017615D02*
X017620Y017615D01*
X017620Y017774D02*
X016170Y017774D01*
X016106Y017932D02*
X017620Y017932D01*
X017620Y018091D02*
X015962Y018091D01*
X016170Y015713D02*
X016195Y015713D01*
X016207Y015555D02*
X016158Y015555D01*
X016089Y015396D02*
X016278Y015396D01*
X012897Y019993D02*
X009332Y019993D01*
X009420Y020151D02*
X012963Y020151D01*
X013105Y020310D02*
X010329Y020310D01*
X010332Y020315D02*
X010344Y020361D01*
X010344Y020612D01*
X009937Y020612D01*
X009937Y020205D01*
X010188Y020205D01*
X010234Y020217D01*
X010275Y020241D01*
X010308Y020274D01*
X010332Y020315D01*
X010344Y020468D02*
X013356Y020468D01*
X013220Y023480D02*
X010167Y023480D01*
X010175Y023496D02*
X010198Y023568D01*
X010210Y023642D01*
X010210Y023960D01*
X009750Y023960D01*
X009750Y023200D01*
X009768Y023200D01*
X009842Y023212D01*
X009914Y023235D01*
X009982Y023269D01*
X010043Y023314D01*
X010096Y023367D01*
X010141Y023428D01*
X010175Y023496D01*
X010209Y023638D02*
X013061Y023638D01*
X012966Y023797D02*
X010210Y023797D01*
X010210Y023955D02*
X012900Y023955D01*
X012890Y024114D02*
X010210Y024114D01*
X010210Y024272D02*
X012890Y024272D01*
X012945Y024431D02*
X010186Y024431D01*
X010099Y024589D02*
X013012Y024589D01*
X015412Y023480D02*
X016328Y023480D01*
X016334Y023638D02*
X015570Y023638D01*
X015666Y023797D02*
X016400Y023797D01*
X016498Y023955D02*
X015731Y023955D01*
X015742Y024114D02*
X016661Y024114D01*
X016328Y023321D02*
X010050Y023321D01*
X009750Y023321D02*
X009710Y023321D01*
X009710Y023200D02*
X009710Y023960D01*
X009250Y023960D01*
X009250Y023642D01*
X009262Y023568D01*
X009285Y023496D01*
X009319Y023428D01*
X009364Y023367D01*
X009417Y023314D01*
X009478Y023269D01*
X009546Y023235D01*
X009618Y023212D01*
X009692Y023200D01*
X009710Y023200D01*
X009444Y023163D02*
X016328Y023163D01*
X015742Y024272D02*
X017620Y024272D01*
X017620Y024114D02*
X017499Y024114D01*
X017620Y024431D02*
X015686Y024431D01*
X015619Y024589D02*
X017620Y024589D01*
X017593Y021736D02*
X017620Y021736D01*
X017620Y021578D02*
X017332Y021578D01*
X017620Y021102D02*
X010292Y021102D01*
X010344Y020944D02*
X016734Y020944D01*
X016528Y020785D02*
X010344Y020785D01*
X009937Y020468D02*
X009801Y020468D01*
X009801Y020310D02*
X009937Y020310D01*
X009446Y021102D02*
X009420Y021102D01*
X009180Y022687D02*
X009180Y022687D01*
X009180Y022846D02*
X009180Y022846D01*
X009180Y023004D02*
X009180Y023004D01*
X009180Y023163D02*
X009180Y023163D01*
X009410Y023321D02*
X008922Y023321D01*
X008916Y023163D02*
X005167Y023163D01*
X005130Y023163D02*
X004621Y023163D01*
X004672Y023198D02*
X005130Y023198D01*
X005130Y023954D01*
X005111Y023954D01*
X005037Y023942D01*
X004965Y023919D01*
X004899Y023885D01*
X004838Y023841D01*
X004785Y023787D01*
X004741Y023727D01*
X004707Y023660D01*
X004683Y023589D01*
X004672Y023514D01*
X004672Y023198D01*
X004672Y023321D02*
X004621Y023321D01*
X004621Y023480D02*
X004672Y023480D01*
X004699Y023638D02*
X004592Y023638D01*
X004491Y023797D02*
X004794Y023797D01*
X005130Y023797D02*
X005167Y023797D01*
X005167Y023638D02*
X005130Y023638D01*
X005130Y023480D02*
X005167Y023480D01*
X005167Y023321D02*
X005130Y023321D01*
X005130Y023004D02*
X005167Y023004D01*
X005167Y022846D02*
X005130Y022846D01*
X005130Y022687D02*
X005167Y022687D01*
X005167Y022529D02*
X005130Y022529D01*
X004829Y022529D02*
X004456Y022529D01*
X004578Y022687D02*
X004713Y022687D01*
X004672Y022846D02*
X004621Y022846D01*
X004621Y023004D02*
X004672Y023004D01*
X004420Y021419D02*
X004919Y021419D01*
X004747Y021261D02*
X004420Y021261D01*
X004420Y021102D02*
X004684Y021102D01*
X004684Y020944D02*
X004420Y020944D01*
X004420Y020785D02*
X004684Y020785D01*
X004684Y020627D02*
X004420Y020627D01*
X004420Y020468D02*
X004684Y020468D01*
X004693Y020310D02*
X004420Y020310D01*
X004420Y020151D02*
X004766Y020151D01*
X004985Y019993D02*
X004420Y019993D01*
X006695Y017457D02*
X006917Y017457D01*
X006759Y017298D02*
X006695Y017298D01*
X007120Y016664D02*
X008136Y016664D01*
X008149Y016506D02*
X007120Y016506D01*
X007120Y016030D02*
X008754Y016030D01*
X008664Y015872D02*
X007120Y015872D01*
X007052Y015713D02*
X008630Y015713D01*
X008643Y015555D02*
X007805Y015555D01*
X007914Y015396D02*
X008707Y015396D01*
X008853Y015238D02*
X007960Y015238D01*
X007960Y015079D02*
X008829Y015079D01*
X008706Y014921D02*
X007896Y014921D01*
X007762Y014762D02*
X008650Y014762D01*
X008650Y014604D02*
X007995Y014604D01*
X008491Y014240D02*
X008591Y013880D01*
X008491Y014240D02*
X007480Y014240D01*
X007430Y014240D01*
X007430Y015180D01*
X007055Y015555D02*
X006894Y015555D01*
X008623Y014445D02*
X008704Y014445D01*
X009033Y016506D02*
X009512Y016506D01*
X009494Y016664D02*
X009286Y016664D01*
X011630Y013620D02*
X011680Y013620D01*
X010680Y012880D02*
X010680Y012680D01*
X010344Y010007D02*
X012117Y010007D01*
X010989Y005728D02*
X010894Y005728D01*
X011053Y005569D02*
X011867Y005569D01*
X011774Y005411D02*
X011160Y005411D01*
X011160Y005252D02*
X011733Y005252D01*
X011733Y005094D02*
X011160Y005094D01*
X011160Y004935D02*
X011794Y004935D01*
X011916Y004777D02*
X011038Y004777D01*
X010344Y003667D02*
X013737Y003667D01*
X013759Y003509D02*
X010344Y003509D01*
X010284Y003350D02*
X013677Y003350D01*
X014180Y003180D02*
X014180Y004120D01*
X010941Y001924D02*
X007793Y001924D01*
X007972Y001765D02*
X007980Y001765D01*
X008780Y001765D02*
X009980Y001765D01*
X009821Y001607D02*
X008939Y001607D01*
X009023Y001448D02*
X009737Y001448D01*
X009683Y001290D02*
X009077Y001290D01*
X009077Y001131D02*
X009683Y001131D01*
X009712Y000973D02*
X009048Y000973D01*
X008982Y000814D02*
X009778Y000814D01*
X009804Y005569D02*
X009907Y005569D01*
X010066Y005728D02*
X009589Y005728D01*
X006480Y007680D02*
X006480Y008720D01*
X004138Y016030D02*
X001922Y016030D01*
X002142Y016189D02*
X003918Y016189D01*
X009045Y023480D02*
X009293Y023480D01*
X009251Y023638D02*
X009090Y023638D01*
X009090Y023797D02*
X009250Y023797D01*
X009250Y023955D02*
X009090Y023955D01*
X009090Y024114D02*
X009250Y024114D01*
X009250Y024272D02*
X009090Y024272D01*
X009066Y024431D02*
X009274Y024431D01*
X009361Y024589D02*
X008971Y024589D01*
X008289Y024589D02*
X000740Y024589D01*
X000740Y024431D02*
X008194Y024431D01*
X008170Y024272D02*
X000740Y024272D01*
X000740Y024114D02*
X008170Y024114D01*
X009710Y023955D02*
X009750Y023955D01*
X009750Y023797D02*
X009710Y023797D01*
X009710Y023638D02*
X009750Y023638D01*
X009750Y023480D02*
X009710Y023480D01*
X017426Y020944D02*
X017620Y020944D01*
D29*
X005280Y011030D02*
X000780Y011030D01*
X003541Y009891D02*
X003541Y006568D01*
X003353Y006302D01*
M02*
