G75*
%MOIN*%
%OFA0B0*%
%FSLAX24Y24*%
%IPPOS*%
%LPD*%
%AMOC8*
5,1,8,0,0,1.08239X$1,22.5*
%
%ADD10C,0.0520*%
%ADD11C,0.0660*%
%ADD12C,0.0740*%
%ADD13C,0.0650*%
%ADD14C,0.0640*%
%ADD15C,0.0600*%
%ADD16C,0.0594*%
%ADD17R,0.0650X0.0650*%
%ADD18C,0.1185*%
%ADD19OC8,0.1000*%
%ADD20C,0.1266*%
%ADD21C,0.0827*%
%ADD22C,0.0160*%
%ADD23R,0.0396X0.0396*%
%ADD24C,0.0120*%
%ADD25C,0.0100*%
D10*
X001270Y005430D02*
X001790Y005430D01*
X001790Y006430D02*
X001270Y006430D01*
X001270Y007430D02*
X001790Y007430D01*
X001790Y008430D02*
X001270Y008430D01*
X001270Y009430D02*
X001790Y009430D01*
X001790Y010430D02*
X001270Y010430D01*
X001270Y011430D02*
X001790Y011430D01*
X001790Y012430D02*
X001270Y012430D01*
X001270Y013430D02*
X001790Y013430D01*
X001790Y014430D02*
X001270Y014430D01*
X001270Y015430D02*
X001790Y015430D01*
X001790Y016430D02*
X001270Y016430D01*
X001270Y017430D02*
X001790Y017430D01*
X001790Y018430D02*
X001270Y018430D01*
X004270Y018430D02*
X004790Y018430D01*
X004790Y017430D02*
X004270Y017430D01*
X004270Y016430D02*
X004790Y016430D01*
X004790Y015430D02*
X004270Y015430D01*
X004270Y014430D02*
X004790Y014430D01*
X004790Y013430D02*
X004270Y013430D01*
X004270Y012430D02*
X004790Y012430D01*
X004790Y011430D02*
X004270Y011430D01*
X004270Y010430D02*
X004790Y010430D01*
X004790Y009430D02*
X004270Y009430D01*
X004270Y008430D02*
X004790Y008430D01*
X004790Y007430D02*
X004270Y007430D01*
X004270Y006430D02*
X004790Y006430D01*
X004790Y005430D02*
X004270Y005430D01*
D11*
X012680Y014680D03*
X012680Y015680D03*
X012680Y016680D03*
X012680Y017680D03*
X015680Y017680D03*
X015680Y016680D03*
X015680Y015680D03*
X015680Y014680D03*
D12*
X014180Y010430D03*
X014180Y009430D03*
X012530Y008380D03*
X014180Y006180D03*
X014180Y003180D03*
X009180Y007680D03*
X009180Y008680D03*
X007530Y007680D03*
X006480Y007680D03*
X006480Y010680D03*
X006180Y012180D03*
X007430Y012180D03*
X007530Y010680D03*
X009180Y011180D03*
X009180Y012180D03*
X009180Y014680D03*
X009180Y015680D03*
X009180Y018180D03*
X009180Y019180D03*
X009180Y021680D03*
X009180Y022680D03*
X006180Y019180D03*
X006180Y016180D03*
X006180Y015180D03*
X007430Y015180D03*
X011630Y015680D03*
X011630Y012680D03*
X012530Y011380D03*
D13*
X014680Y012480D03*
X014680Y013480D03*
X016280Y012480D03*
X016680Y014680D03*
X016680Y015680D03*
X005580Y010380D03*
X005580Y009380D03*
X003030Y008480D03*
X003030Y010480D03*
D14*
X002680Y002680D03*
X002680Y001680D03*
X001680Y001680D03*
X001680Y002680D03*
X003680Y002680D03*
X003680Y001680D03*
D15*
X008630Y023680D02*
X008630Y024280D01*
X009730Y024280D02*
X009730Y023680D01*
D16*
X005149Y023477D02*
X005149Y022883D01*
X004164Y022883D02*
X004164Y023477D01*
X003180Y023477D02*
X003180Y022883D01*
X003180Y021016D02*
X003180Y020423D01*
X005141Y020423D02*
X005141Y021016D01*
D17*
X016280Y013480D03*
D18*
X017080Y019088D02*
X017080Y020273D01*
X017080Y022288D02*
X017080Y023473D01*
D19*
X010480Y005180D03*
X004580Y004180D03*
D20*
X013647Y019730D02*
X014913Y019730D01*
X014913Y022080D02*
X013647Y022080D01*
X013683Y024138D02*
X014949Y024138D01*
D21*
X011334Y006193D03*
X012306Y005197D03*
X009361Y005201D03*
X007397Y006189D03*
X006397Y005197D03*
D22*
X000180Y000180D02*
X018180Y000180D01*
X018180Y025180D01*
X000180Y025180D01*
X000180Y000180D01*
X000740Y000740D02*
X000740Y000940D01*
X003728Y000940D01*
X003816Y000977D01*
X003883Y001044D01*
X003920Y001132D01*
X003920Y001260D01*
X003952Y001273D01*
X004087Y001408D01*
X004160Y001585D01*
X004160Y001775D01*
X004087Y001952D01*
X003952Y002087D01*
X003775Y002160D01*
X003585Y002160D01*
X003408Y002087D01*
X003273Y001952D01*
X003200Y001775D01*
X003200Y001585D01*
X003268Y001420D01*
X003092Y001420D01*
X003160Y001585D01*
X003160Y001775D01*
X003087Y001952D01*
X002952Y002087D01*
X002775Y002160D01*
X002585Y002160D01*
X002420Y002092D01*
X002420Y002268D01*
X002585Y002200D01*
X002775Y002200D01*
X002952Y002273D01*
X003087Y002408D01*
X003160Y002585D01*
X003160Y002775D01*
X003087Y002952D01*
X002952Y003087D01*
X002920Y003100D01*
X002920Y003190D01*
X003828Y003190D01*
X003916Y003227D01*
X003983Y003294D01*
X004020Y003382D01*
X004020Y003807D01*
X004307Y003520D01*
X004853Y003520D01*
X005240Y003907D01*
X005240Y004453D01*
X004853Y004840D01*
X004307Y004840D01*
X004020Y004553D01*
X004020Y005086D01*
X004032Y005074D01*
X004186Y005010D01*
X004874Y005010D01*
X005028Y005074D01*
X005144Y005190D01*
X005578Y005190D01*
X005666Y005227D01*
X005733Y005294D01*
X005770Y005382D01*
X005770Y006740D01*
X007227Y006740D01*
X007072Y006676D01*
X006910Y006514D01*
X006823Y006304D01*
X006823Y006075D01*
X006910Y005865D01*
X007072Y005703D01*
X007282Y005616D01*
X007511Y005616D01*
X007721Y005703D01*
X007883Y005865D01*
X007914Y005940D01*
X009978Y005940D01*
X010066Y005977D01*
X010133Y006044D01*
X010170Y006132D01*
X010170Y006690D01*
X011034Y006690D01*
X011009Y006679D01*
X010847Y006518D01*
X010760Y006307D01*
X010760Y006079D01*
X010847Y005869D01*
X011009Y005707D01*
X011219Y005620D01*
X011448Y005620D01*
X011658Y005707D01*
X011820Y005869D01*
X011849Y005940D01*
X012940Y005940D01*
X012940Y003132D01*
X012977Y003044D01*
X013044Y002977D01*
X013132Y002940D01*
X013706Y002940D01*
X013731Y002880D01*
X013880Y002731D01*
X014075Y002650D01*
X014285Y002650D01*
X014480Y002731D01*
X014629Y002880D01*
X014710Y003075D01*
X014710Y003285D01*
X014629Y003480D01*
X014480Y003629D01*
X014285Y003710D01*
X014075Y003710D01*
X013880Y003629D01*
X013731Y003480D01*
X013706Y003420D01*
X013420Y003420D01*
X013420Y006228D01*
X013383Y006316D01*
X013316Y006383D01*
X013228Y006420D01*
X011860Y006420D01*
X011820Y006518D01*
X011658Y006679D01*
X011633Y006690D01*
X013940Y006690D01*
X013940Y006654D01*
X013880Y006629D01*
X013731Y006480D01*
X013650Y006285D01*
X013650Y006075D01*
X013731Y005880D01*
X013880Y005731D01*
X014075Y005650D01*
X014285Y005650D01*
X014480Y005731D01*
X014629Y005880D01*
X014710Y006075D01*
X014710Y006285D01*
X014629Y006480D01*
X014480Y006629D01*
X014420Y006654D01*
X014420Y006978D01*
X014383Y007066D01*
X014316Y007133D01*
X014228Y007170D01*
X010420Y007170D01*
X010420Y012322D01*
X010944Y012322D01*
X011038Y012416D01*
X011038Y012440D01*
X011156Y012440D01*
X011181Y012380D01*
X011330Y012231D01*
X011525Y012150D01*
X011735Y012150D01*
X011930Y012231D01*
X012079Y012380D01*
X012160Y012575D01*
X012160Y012785D01*
X012079Y012980D01*
X012020Y013040D01*
X012290Y013040D01*
X012290Y011854D01*
X012230Y011829D01*
X012081Y011680D01*
X012000Y011485D01*
X012000Y011275D01*
X010420Y011275D01*
X010420Y011117D02*
X012065Y011117D01*
X012081Y011080D02*
X012230Y010931D01*
X012425Y010850D01*
X012635Y010850D01*
X012830Y010931D01*
X012979Y011080D01*
X013004Y011140D01*
X017528Y011140D01*
X017616Y011177D01*
X017620Y011181D01*
X017620Y000740D01*
X011874Y000740D01*
X011974Y000840D01*
X012089Y001118D01*
X012089Y001418D01*
X011974Y001696D01*
X011762Y001909D01*
X011484Y002024D01*
X011183Y002024D01*
X010906Y001909D01*
X010769Y001773D01*
X010519Y001877D01*
X010241Y001877D01*
X009985Y001770D01*
X009790Y001575D01*
X009683Y001319D01*
X009683Y001041D01*
X009790Y000785D01*
X009835Y000740D01*
X008925Y000740D01*
X008970Y000785D01*
X009077Y001041D01*
X009077Y001319D01*
X008970Y001575D01*
X008775Y001770D01*
X008519Y001877D01*
X008241Y001877D01*
X007985Y001770D01*
X007976Y001761D01*
X007828Y001909D01*
X007551Y002024D01*
X007250Y002024D01*
X006972Y001909D01*
X006760Y001696D01*
X006645Y001418D01*
X006645Y001118D01*
X006760Y000840D01*
X006860Y000740D01*
X000740Y000740D01*
X000740Y000814D02*
X006786Y000814D01*
X006705Y000973D02*
X003806Y000973D01*
X003919Y001131D02*
X006645Y001131D01*
X006645Y001290D02*
X003968Y001290D01*
X004103Y001448D02*
X006657Y001448D01*
X006723Y001607D02*
X004160Y001607D01*
X004160Y001765D02*
X006829Y001765D01*
X007008Y001924D02*
X004099Y001924D01*
X003957Y002082D02*
X017620Y002082D01*
X017620Y001924D02*
X011726Y001924D01*
X011905Y001765D02*
X017620Y001765D01*
X017620Y001607D02*
X012011Y001607D01*
X012077Y001448D02*
X017620Y001448D01*
X017620Y001290D02*
X012089Y001290D01*
X012089Y001131D02*
X017620Y001131D01*
X017620Y000973D02*
X012029Y000973D01*
X011948Y000814D02*
X017620Y000814D01*
X017620Y002241D02*
X003919Y002241D01*
X003942Y002252D02*
X004006Y002299D01*
X004061Y002354D01*
X004108Y002418D01*
X004143Y002488D01*
X004168Y002563D01*
X004180Y002641D01*
X004180Y002671D01*
X003689Y002671D01*
X003689Y002689D01*
X003671Y002689D01*
X003671Y003180D01*
X003641Y003180D01*
X003563Y003168D01*
X003488Y003143D01*
X003418Y003108D01*
X003354Y003061D01*
X003299Y003006D01*
X003252Y002942D01*
X003217Y002872D01*
X003192Y002797D01*
X003180Y002719D01*
X003180Y002689D01*
X003671Y002689D01*
X003671Y002671D01*
X003180Y002671D01*
X003180Y002641D01*
X003192Y002563D01*
X003217Y002488D01*
X003252Y002418D01*
X003299Y002354D01*
X003354Y002299D01*
X003418Y002252D01*
X003488Y002217D01*
X003563Y002192D01*
X003641Y002180D01*
X003671Y002180D01*
X003671Y002671D01*
X003689Y002671D01*
X003689Y002180D01*
X003719Y002180D01*
X003797Y002192D01*
X003872Y002217D01*
X003942Y002252D01*
X004094Y002399D02*
X017620Y002399D01*
X017620Y002558D02*
X004166Y002558D01*
X004180Y002689D02*
X004180Y002719D01*
X004168Y002797D01*
X004143Y002872D01*
X004108Y002942D01*
X004061Y003006D01*
X004006Y003061D01*
X003942Y003108D01*
X003872Y003143D01*
X003797Y003168D01*
X003719Y003180D01*
X003689Y003180D01*
X003689Y002689D01*
X004180Y002689D01*
X004180Y002716D02*
X013915Y002716D01*
X013736Y002875D02*
X004142Y002875D01*
X004034Y003033D02*
X012988Y003033D01*
X012940Y003192D02*
X003831Y003192D01*
X003689Y003033D02*
X003671Y003033D01*
X003671Y002875D02*
X003689Y002875D01*
X003689Y002716D02*
X003671Y002716D01*
X003671Y002558D02*
X003689Y002558D01*
X003689Y002399D02*
X003671Y002399D01*
X003671Y002241D02*
X003689Y002241D01*
X003441Y002241D02*
X002873Y002241D01*
X002957Y002082D02*
X003403Y002082D01*
X003261Y001924D02*
X003099Y001924D01*
X003160Y001765D02*
X003200Y001765D01*
X003200Y001607D02*
X003160Y001607D01*
X003103Y001448D02*
X003257Y001448D01*
X003680Y001680D02*
X003680Y001180D01*
X000780Y001180D01*
X000780Y018430D01*
X001530Y018430D01*
X001874Y018850D02*
X001186Y018850D01*
X001032Y018786D01*
X000916Y018670D01*
X000740Y018670D01*
X000740Y024620D01*
X008319Y024620D01*
X008240Y024541D01*
X008170Y024371D01*
X008170Y024220D01*
X008132Y024220D01*
X008044Y024183D01*
X007977Y024116D01*
X007940Y024028D01*
X007940Y020959D01*
X005597Y020959D01*
X005597Y021107D01*
X005528Y021275D01*
X005399Y021404D01*
X005232Y021473D01*
X005050Y021473D01*
X004882Y021404D01*
X004753Y021275D01*
X004684Y021107D01*
X004684Y020332D01*
X004753Y020164D01*
X004882Y020035D01*
X004919Y020020D01*
X003420Y020020D01*
X003420Y020027D01*
X003439Y020035D01*
X003567Y020164D01*
X003637Y020332D01*
X003637Y021107D01*
X003567Y021275D01*
X003439Y021404D01*
X003420Y021411D01*
X003420Y022488D01*
X003439Y022496D01*
X003567Y022624D01*
X003637Y022792D01*
X003637Y023568D01*
X003567Y023736D01*
X003439Y023864D01*
X003271Y023934D01*
X003089Y023934D01*
X002921Y023864D01*
X002793Y023736D01*
X002723Y023568D01*
X002723Y022792D01*
X002793Y022624D01*
X002921Y022496D01*
X002940Y022488D01*
X002940Y021411D01*
X002921Y021404D01*
X002793Y021275D01*
X002723Y021107D01*
X002723Y020332D01*
X002793Y020164D01*
X002921Y020035D01*
X002940Y020027D01*
X002940Y019732D01*
X002977Y019644D01*
X003044Y019577D01*
X003132Y019540D01*
X005790Y019540D01*
X005731Y019480D01*
X005650Y019285D01*
X005650Y019075D01*
X005731Y018880D01*
X005880Y018731D01*
X006075Y018650D01*
X006285Y018650D01*
X006480Y018731D01*
X006629Y018880D01*
X006710Y019075D01*
X006710Y019285D01*
X006629Y019480D01*
X006570Y019540D01*
X006840Y019540D01*
X006840Y017170D01*
X005124Y017170D01*
X005146Y017192D01*
X005210Y017346D01*
X005210Y017514D01*
X005146Y017668D01*
X005028Y017786D01*
X004874Y017850D01*
X004186Y017850D01*
X004032Y017786D01*
X003914Y017668D01*
X003850Y017514D01*
X003850Y017346D01*
X003914Y017192D01*
X003936Y017170D01*
X003732Y017170D01*
X003644Y017133D01*
X003577Y017066D01*
X003540Y016978D01*
X003540Y016670D01*
X002144Y016670D01*
X002028Y016786D01*
X001874Y016850D01*
X001186Y016850D01*
X001032Y016786D01*
X001020Y016774D01*
X001020Y017086D01*
X001032Y017074D01*
X001186Y017010D01*
X001874Y017010D01*
X002028Y017074D01*
X002146Y017192D01*
X002210Y017346D01*
X002210Y017514D01*
X002146Y017668D01*
X002028Y017786D01*
X001874Y017850D01*
X001186Y017850D01*
X001032Y017786D01*
X001020Y017774D01*
X001020Y018086D01*
X001032Y018074D01*
X001186Y018010D01*
X001874Y018010D01*
X002028Y018074D01*
X002146Y018192D01*
X002210Y018346D01*
X002210Y018514D01*
X002146Y018668D01*
X002028Y018786D01*
X001874Y018850D01*
X002089Y018725D02*
X003971Y018725D01*
X003914Y018668D02*
X003850Y018514D01*
X003850Y018346D01*
X003914Y018192D01*
X004032Y018074D01*
X004186Y018010D01*
X004874Y018010D01*
X005028Y018074D01*
X005146Y018192D01*
X005210Y018346D01*
X005210Y018514D01*
X005146Y018668D01*
X005028Y018786D01*
X004874Y018850D01*
X004186Y018850D01*
X004032Y018786D01*
X003914Y018668D01*
X003872Y018566D02*
X002188Y018566D01*
X002210Y018408D02*
X003850Y018408D01*
X003890Y018249D02*
X002170Y018249D01*
X002044Y018091D02*
X004016Y018091D01*
X004020Y017774D02*
X002040Y017774D01*
X002168Y017615D02*
X003892Y017615D01*
X003850Y017457D02*
X002210Y017457D01*
X002190Y017298D02*
X003870Y017298D01*
X003659Y017140D02*
X002093Y017140D01*
X001940Y016823D02*
X003540Y016823D01*
X003541Y016981D02*
X001020Y016981D01*
X001020Y016823D02*
X001120Y016823D01*
X001530Y016430D02*
X003780Y016430D01*
X003780Y016930D01*
X009930Y016930D01*
X009930Y006180D01*
X007397Y006180D01*
X007745Y005728D02*
X009133Y005728D01*
X009036Y005687D02*
X008875Y005526D01*
X008788Y005315D01*
X008788Y005087D01*
X008875Y004876D01*
X009036Y004715D01*
X009247Y004628D01*
X009475Y004628D01*
X009686Y004715D01*
X009835Y004864D01*
X010198Y004500D01*
X010450Y004500D01*
X010450Y005150D01*
X010510Y005150D01*
X010510Y005210D01*
X011160Y005210D01*
X011160Y005462D01*
X010762Y005860D01*
X010510Y005860D01*
X010510Y005210D01*
X010450Y005210D01*
X010450Y005860D01*
X010198Y005860D01*
X009852Y005514D01*
X009847Y005526D01*
X009686Y005687D01*
X009475Y005775D01*
X009247Y005775D01*
X009036Y005687D01*
X008918Y005569D02*
X006836Y005569D01*
X006883Y005522D02*
X006721Y005683D01*
X006511Y005771D01*
X006282Y005771D01*
X006072Y005683D01*
X005910Y005522D01*
X005823Y005311D01*
X005823Y005083D01*
X005910Y004873D01*
X006072Y004711D01*
X006282Y004624D01*
X006511Y004624D01*
X006721Y004711D01*
X006883Y004873D01*
X006970Y005083D01*
X006970Y005311D01*
X006883Y005522D01*
X006929Y005411D02*
X008827Y005411D01*
X008788Y005252D02*
X006970Y005252D01*
X006970Y005094D02*
X008788Y005094D01*
X008851Y004935D02*
X006909Y004935D01*
X006787Y004777D02*
X008975Y004777D01*
X009589Y005728D02*
X010066Y005728D01*
X009907Y005569D02*
X009804Y005569D01*
X010134Y006045D02*
X010775Y006045D01*
X010760Y006203D02*
X010170Y006203D01*
X010170Y006362D02*
X010783Y006362D01*
X010849Y006520D02*
X010170Y006520D01*
X010170Y006679D02*
X011008Y006679D01*
X011320Y006180D02*
X013180Y006180D01*
X013180Y003180D01*
X014180Y003180D01*
X014445Y002716D02*
X017620Y002716D01*
X017620Y002875D02*
X014624Y002875D01*
X014693Y003033D02*
X017620Y003033D01*
X017620Y003192D02*
X014710Y003192D01*
X014683Y003350D02*
X017620Y003350D01*
X017620Y003509D02*
X014601Y003509D01*
X014389Y003667D02*
X017620Y003667D01*
X017620Y003826D02*
X013420Y003826D01*
X013420Y003984D02*
X017620Y003984D01*
X017620Y004143D02*
X013420Y004143D01*
X013420Y004301D02*
X017620Y004301D01*
X017620Y004460D02*
X013420Y004460D01*
X013420Y004618D02*
X017620Y004618D01*
X017620Y004777D02*
X013420Y004777D01*
X013420Y004935D02*
X017620Y004935D01*
X017620Y005094D02*
X013420Y005094D01*
X013420Y005252D02*
X017620Y005252D01*
X017620Y005411D02*
X013420Y005411D01*
X013420Y005569D02*
X017620Y005569D01*
X017620Y005728D02*
X014473Y005728D01*
X014632Y005886D02*
X017620Y005886D01*
X017620Y006045D02*
X014698Y006045D01*
X014710Y006203D02*
X017620Y006203D01*
X017620Y006362D02*
X014678Y006362D01*
X014590Y006520D02*
X017620Y006520D01*
X017620Y006679D02*
X014420Y006679D01*
X014420Y006837D02*
X017620Y006837D01*
X017620Y006996D02*
X014413Y006996D01*
X014266Y007154D02*
X017620Y007154D01*
X017620Y007313D02*
X010420Y007313D01*
X010420Y007471D02*
X017620Y007471D01*
X017620Y007630D02*
X010420Y007630D01*
X010420Y007788D02*
X017620Y007788D01*
X017620Y007947D02*
X012846Y007947D01*
X012830Y007931D02*
X012979Y008080D01*
X013060Y008275D01*
X013060Y008485D01*
X012979Y008680D01*
X012830Y008829D01*
X012770Y008854D01*
X012770Y009190D01*
X013706Y009190D01*
X013731Y009130D01*
X013880Y008981D01*
X014075Y008900D01*
X014285Y008900D01*
X014480Y008981D01*
X014629Y009130D01*
X014710Y009325D01*
X014710Y009535D01*
X014629Y009730D01*
X014480Y009879D01*
X014386Y009919D01*
X014391Y009920D01*
X014468Y009960D01*
X014538Y010010D01*
X014600Y010072D01*
X014650Y010142D01*
X014690Y010219D01*
X014716Y010301D01*
X014730Y010387D01*
X014730Y010430D01*
X014730Y010473D01*
X014716Y010559D01*
X014690Y010641D01*
X017620Y010641D01*
X017620Y010483D02*
X014729Y010483D01*
X014730Y010430D02*
X014180Y010430D01*
X014180Y010430D01*
X014180Y010430D01*
X014180Y010980D01*
X014223Y010980D01*
X014309Y010966D01*
X014391Y010940D01*
X014468Y010900D01*
X014538Y010850D01*
X014600Y010788D01*
X014650Y010718D01*
X014690Y010641D01*
X014588Y010800D02*
X017620Y010800D01*
X017620Y010958D02*
X014335Y010958D01*
X014180Y010958D02*
X014180Y010958D01*
X014180Y010980D02*
X014137Y010980D01*
X014051Y010966D01*
X013969Y010940D01*
X013892Y010900D01*
X013822Y010850D01*
X013760Y010788D01*
X013710Y010718D01*
X013670Y010641D01*
X010420Y010641D01*
X010420Y010483D02*
X013631Y010483D01*
X013630Y010473D02*
X013630Y010430D01*
X014180Y010430D01*
X014730Y010430D01*
X014720Y010324D02*
X017620Y010324D01*
X017620Y010166D02*
X014663Y010166D01*
X014534Y010007D02*
X017620Y010007D01*
X017620Y009849D02*
X014511Y009849D01*
X014646Y009690D02*
X017620Y009690D01*
X017620Y009532D02*
X014710Y009532D01*
X014710Y009373D02*
X017620Y009373D01*
X017620Y009215D02*
X014664Y009215D01*
X014556Y009056D02*
X017620Y009056D01*
X017620Y008898D02*
X012770Y008898D01*
X012770Y009056D02*
X013804Y009056D01*
X014180Y009430D02*
X012530Y009430D01*
X012530Y008380D01*
X013021Y008581D02*
X017620Y008581D01*
X017620Y008739D02*
X012921Y008739D01*
X013060Y008422D02*
X017620Y008422D01*
X017620Y008264D02*
X013055Y008264D01*
X012990Y008105D02*
X017620Y008105D01*
X017620Y011117D02*
X012995Y011117D01*
X012858Y010958D02*
X014025Y010958D01*
X014180Y010980D02*
X014180Y010430D01*
X014180Y010430D01*
X013630Y010430D01*
X013630Y010387D01*
X013644Y010301D01*
X013670Y010219D01*
X013710Y010142D01*
X013760Y010072D01*
X013822Y010010D01*
X013892Y009960D01*
X013969Y009920D01*
X013974Y009919D01*
X013880Y009879D01*
X013731Y009730D01*
X013706Y009670D01*
X012482Y009670D01*
X012394Y009633D01*
X012327Y009566D01*
X012290Y009478D01*
X012290Y008854D01*
X012230Y008829D01*
X012081Y008680D01*
X012000Y008485D01*
X012000Y008275D01*
X012081Y008080D01*
X012230Y007931D01*
X012425Y007850D01*
X012635Y007850D01*
X012830Y007931D01*
X012214Y007947D02*
X010420Y007947D01*
X010420Y008105D02*
X012070Y008105D01*
X012005Y008264D02*
X010420Y008264D01*
X010420Y008422D02*
X012000Y008422D01*
X012039Y008581D02*
X010420Y008581D01*
X010420Y008739D02*
X012139Y008739D01*
X012290Y008898D02*
X010420Y008898D01*
X010420Y009056D02*
X012290Y009056D01*
X012290Y009215D02*
X010420Y009215D01*
X010420Y009373D02*
X012290Y009373D01*
X012312Y009532D02*
X010420Y009532D01*
X010420Y009690D02*
X013714Y009690D01*
X013849Y009849D02*
X010420Y009849D01*
X010420Y010007D02*
X013826Y010007D01*
X013697Y010166D02*
X010420Y010166D01*
X010420Y010324D02*
X013640Y010324D01*
X013630Y010473D02*
X013644Y010559D01*
X013670Y010641D01*
X013772Y010800D02*
X010420Y010800D01*
X010420Y010958D02*
X012202Y010958D01*
X012081Y011080D02*
X012000Y011275D01*
X012000Y011434D02*
X010420Y011434D01*
X010420Y011592D02*
X012044Y011592D01*
X012151Y011751D02*
X010420Y011751D01*
X010420Y011909D02*
X012290Y011909D01*
X012290Y012068D02*
X010420Y012068D01*
X010420Y012226D02*
X011341Y012226D01*
X011179Y012385D02*
X011007Y012385D01*
X010680Y012680D02*
X010180Y012680D01*
X010180Y006930D01*
X014180Y006930D01*
X014180Y006180D01*
X013770Y006520D02*
X011818Y006520D01*
X011659Y006679D02*
X013940Y006679D01*
X013682Y006362D02*
X013338Y006362D01*
X013420Y006203D02*
X013650Y006203D01*
X013662Y006045D02*
X013420Y006045D01*
X013420Y005886D02*
X013728Y005886D01*
X013887Y005728D02*
X013420Y005728D01*
X012940Y005728D02*
X012524Y005728D01*
X012420Y005771D02*
X012631Y005683D01*
X012792Y005522D01*
X012879Y005311D01*
X012879Y005083D01*
X012792Y004873D01*
X012631Y004711D01*
X012420Y004624D01*
X012192Y004624D01*
X011981Y004711D01*
X011820Y004873D01*
X011733Y005083D01*
X011733Y005311D01*
X011820Y005522D01*
X011981Y005683D01*
X012192Y005771D01*
X012420Y005771D01*
X012088Y005728D02*
X011679Y005728D01*
X011827Y005886D02*
X012940Y005886D01*
X012940Y005569D02*
X012745Y005569D01*
X012838Y005411D02*
X012940Y005411D01*
X012940Y005252D02*
X012879Y005252D01*
X012879Y005094D02*
X012940Y005094D01*
X012940Y004935D02*
X012818Y004935D01*
X012696Y004777D02*
X012940Y004777D01*
X012940Y004618D02*
X010880Y004618D01*
X010762Y004500D02*
X011160Y004898D01*
X011160Y005150D01*
X010510Y005150D01*
X010510Y004500D01*
X010762Y004500D01*
X010510Y004618D02*
X010450Y004618D01*
X010450Y004777D02*
X010510Y004777D01*
X010510Y004935D02*
X010450Y004935D01*
X010450Y005094D02*
X010510Y005094D01*
X010510Y005252D02*
X010450Y005252D01*
X010450Y005411D02*
X010510Y005411D01*
X010510Y005569D02*
X010450Y005569D01*
X010450Y005728D02*
X010510Y005728D01*
X010840Y005886D02*
X007891Y005886D01*
X007048Y005728D02*
X006615Y005728D01*
X006902Y005886D02*
X005770Y005886D01*
X005770Y005728D02*
X006178Y005728D01*
X005957Y005569D02*
X005770Y005569D01*
X005770Y005411D02*
X005864Y005411D01*
X005823Y005252D02*
X005691Y005252D01*
X005823Y005094D02*
X005047Y005094D01*
X004917Y004777D02*
X006006Y004777D01*
X005885Y004935D02*
X004020Y004935D01*
X004020Y004777D02*
X004243Y004777D01*
X004085Y004618D02*
X004020Y004618D01*
X004530Y005430D02*
X005530Y005430D01*
X005530Y006980D01*
X007530Y006980D01*
X007530Y007680D01*
X007079Y006679D02*
X005770Y006679D01*
X005770Y006520D02*
X006916Y006520D01*
X006847Y006362D02*
X005770Y006362D01*
X005770Y006203D02*
X006823Y006203D01*
X006836Y006045D02*
X005770Y006045D01*
X005280Y006430D02*
X005280Y007680D01*
X006480Y007680D01*
X006155Y008105D02*
X005059Y008105D01*
X005028Y008074D02*
X005146Y008192D01*
X005210Y008346D01*
X005210Y008514D01*
X005146Y008668D01*
X005028Y008786D01*
X004874Y008850D01*
X004186Y008850D01*
X004032Y008786D01*
X004000Y008754D01*
X004000Y009106D01*
X004032Y009074D01*
X004186Y009010D01*
X004874Y009010D01*
X005028Y009074D01*
X005137Y009183D01*
X005169Y009105D01*
X005305Y008969D01*
X005484Y008895D01*
X005676Y008895D01*
X005855Y008969D01*
X005991Y009105D01*
X006065Y009284D01*
X006065Y009476D01*
X005991Y009655D01*
X005855Y009791D01*
X005676Y009865D01*
X005484Y009865D01*
X005305Y009791D01*
X005169Y009655D01*
X005160Y009634D01*
X005146Y009668D01*
X005028Y009786D01*
X004874Y009850D01*
X004186Y009850D01*
X004120Y009822D01*
X004120Y010038D01*
X004186Y010010D01*
X004874Y010010D01*
X005028Y010074D01*
X005121Y010168D01*
X005148Y010115D01*
X005195Y010051D01*
X005251Y009995D01*
X005315Y009948D01*
X005386Y009912D01*
X005462Y009887D01*
X005540Y009875D01*
X005580Y009875D01*
X005620Y009875D01*
X005698Y009887D01*
X005774Y009912D01*
X005845Y009948D01*
X005909Y009995D01*
X005965Y010051D01*
X006012Y010115D01*
X006048Y010186D01*
X006073Y010262D01*
X006083Y010327D01*
X006180Y010231D01*
X006240Y010206D01*
X006240Y008382D01*
X006277Y008294D01*
X006344Y008227D01*
X006384Y008210D01*
X006375Y008210D01*
X006180Y008129D01*
X006031Y007980D01*
X006006Y007920D01*
X005232Y007920D01*
X005144Y007883D01*
X005077Y007816D01*
X005054Y007760D01*
X005028Y007786D01*
X004874Y007850D01*
X004186Y007850D01*
X004032Y007786D01*
X004021Y007775D01*
X004000Y007826D01*
X004000Y008106D01*
X004032Y008074D01*
X004186Y008010D01*
X004874Y008010D01*
X005028Y008074D01*
X005176Y008264D02*
X006307Y008264D01*
X006240Y008422D02*
X005210Y008422D01*
X005182Y008581D02*
X006240Y008581D01*
X006240Y008739D02*
X005075Y008739D01*
X004985Y009056D02*
X005218Y009056D01*
X005477Y008898D02*
X004000Y008898D01*
X004000Y009056D02*
X004075Y009056D01*
X004530Y009380D02*
X004530Y009430D01*
X004183Y009849D02*
X004120Y009849D01*
X004120Y010007D02*
X005239Y010007D01*
X005123Y010166D02*
X005119Y010166D01*
X004877Y009849D02*
X005444Y009849D01*
X005580Y009875D02*
X005580Y010380D01*
X005580Y010380D01*
X005580Y010885D01*
X005620Y010885D01*
X005698Y010873D01*
X005774Y010848D01*
X005845Y010812D01*
X005909Y010765D01*
X005950Y010724D01*
X005950Y010785D01*
X006031Y010980D01*
X006180Y011129D01*
X006375Y011210D01*
X006585Y011210D01*
X006780Y011129D01*
X006929Y010980D01*
X007005Y010797D01*
X007081Y010980D01*
X007230Y011129D01*
X007425Y011210D01*
X007635Y011210D01*
X007830Y011129D01*
X007979Y010980D01*
X008004Y010920D01*
X008714Y010920D01*
X008650Y011075D01*
X008650Y011285D01*
X008731Y011480D01*
X008880Y011629D01*
X008974Y011669D01*
X008969Y011670D01*
X008892Y011710D01*
X008822Y011760D01*
X008760Y011822D01*
X008710Y011892D01*
X008670Y011969D01*
X008644Y012051D01*
X008630Y012137D01*
X008630Y012180D01*
X009180Y012180D01*
X009180Y012180D01*
X009180Y012730D01*
X009223Y012730D01*
X009309Y012716D01*
X009391Y012690D01*
X009468Y012650D01*
X009538Y012600D01*
X009600Y012538D01*
X009650Y012468D01*
X009690Y012391D01*
X009690Y012390D01*
X009690Y014526D01*
X009629Y014380D01*
X009480Y014231D01*
X009285Y014150D01*
X009075Y014150D01*
X008880Y014231D01*
X008731Y014380D01*
X008650Y014575D01*
X008650Y014785D01*
X008675Y014846D01*
X008581Y014940D01*
X007904Y014940D01*
X007879Y014880D01*
X007730Y014731D01*
X007535Y014650D01*
X007325Y014650D01*
X007130Y014731D01*
X006981Y014880D01*
X006900Y015075D01*
X006900Y015285D01*
X006981Y015480D01*
X007130Y015629D01*
X007325Y015710D01*
X007535Y015710D01*
X007730Y015629D01*
X007879Y015480D01*
X007904Y015420D01*
X008695Y015420D01*
X008670Y015469D01*
X008644Y015551D01*
X008630Y015637D01*
X008630Y015680D01*
X009180Y015680D01*
X009180Y015680D01*
X009180Y016230D01*
X009223Y016230D01*
X009309Y016216D01*
X009391Y016190D01*
X009468Y016150D01*
X009538Y016100D01*
X009600Y016038D01*
X009650Y015968D01*
X009690Y015891D01*
X009690Y015890D01*
X009690Y016690D01*
X006334Y016690D01*
X006480Y016629D01*
X006629Y016480D01*
X006710Y016285D01*
X006710Y016075D01*
X006629Y015880D01*
X006480Y015731D01*
X006358Y015680D01*
X006480Y015629D01*
X006629Y015480D01*
X006710Y015285D01*
X006710Y015075D01*
X006629Y014880D01*
X006480Y014731D01*
X006285Y014650D01*
X006075Y014650D01*
X005880Y014731D01*
X005731Y014880D01*
X005650Y015075D01*
X005650Y015285D01*
X005731Y015480D01*
X005880Y015629D01*
X006002Y015680D01*
X005880Y015731D01*
X005731Y015880D01*
X005706Y015940D01*
X005520Y015940D01*
X005520Y015882D01*
X005483Y015794D01*
X005416Y015727D01*
X005328Y015690D01*
X005124Y015690D01*
X005146Y015668D01*
X005210Y015514D01*
X005210Y015346D01*
X005146Y015192D01*
X005028Y015074D01*
X004874Y015010D01*
X004186Y015010D01*
X004032Y015074D01*
X004020Y015086D01*
X004020Y014774D01*
X004032Y014786D01*
X004186Y014850D01*
X004874Y014850D01*
X005028Y014786D01*
X005146Y014668D01*
X005210Y014514D01*
X005210Y014346D01*
X005146Y014192D01*
X005124Y014170D01*
X005328Y014170D01*
X005416Y014133D01*
X005483Y014066D01*
X005520Y013978D01*
X005520Y013920D01*
X008128Y013920D01*
X008216Y013883D01*
X008283Y013816D01*
X008320Y013728D01*
X008320Y013520D01*
X008922Y013520D01*
X008922Y013544D01*
X009016Y013638D01*
X009544Y013638D01*
X009638Y013544D01*
X009638Y013016D01*
X009544Y012922D01*
X009016Y012922D01*
X008922Y013016D01*
X008922Y013040D01*
X008032Y013040D01*
X007944Y013077D01*
X007877Y013144D01*
X007840Y013232D01*
X007840Y013440D01*
X005232Y013440D01*
X005210Y013449D01*
X005210Y013346D01*
X005146Y013192D01*
X005028Y013074D01*
X004874Y013010D01*
X004186Y013010D01*
X004032Y013074D01*
X003914Y013192D01*
X003850Y013346D01*
X003850Y013514D01*
X003914Y013668D01*
X003936Y013690D01*
X003138Y013690D01*
X003138Y013666D01*
X003044Y013572D01*
X002516Y013572D01*
X002422Y013666D01*
X002422Y014194D01*
X002516Y014288D01*
X003044Y014288D01*
X003138Y014194D01*
X003138Y014170D01*
X003936Y014170D01*
X003914Y014192D01*
X003850Y014346D01*
X003850Y014449D01*
X003828Y014440D01*
X002210Y014440D01*
X002210Y014346D01*
X002146Y014192D01*
X002028Y014074D01*
X001874Y014010D01*
X001186Y014010D01*
X001032Y014074D01*
X001020Y014086D01*
X001020Y013774D01*
X001032Y013786D01*
X001186Y013850D01*
X001874Y013850D01*
X002028Y013786D01*
X002146Y013668D01*
X002210Y013514D01*
X002210Y013346D01*
X002146Y013192D01*
X002028Y013074D01*
X001874Y013010D01*
X001186Y013010D01*
X001032Y013074D01*
X001020Y013086D01*
X001020Y012774D01*
X001032Y012786D01*
X001186Y012850D01*
X001861Y012850D01*
X002077Y013066D01*
X002144Y013133D01*
X002232Y013170D01*
X002922Y013170D01*
X002922Y013194D01*
X003016Y013288D01*
X003544Y013288D01*
X003638Y013194D01*
X003638Y012666D01*
X003544Y012572D01*
X003016Y012572D01*
X002922Y012666D01*
X002922Y012690D01*
X002379Y012690D01*
X002208Y012519D01*
X002210Y012514D01*
X002210Y012346D01*
X002146Y012192D01*
X002028Y012074D01*
X001874Y012010D01*
X001186Y012010D01*
X001032Y012074D01*
X001020Y012086D01*
X001020Y011792D01*
X001039Y011806D01*
X001101Y011838D01*
X001167Y011859D01*
X001235Y011870D01*
X001530Y011870D01*
X001530Y011430D01*
X001530Y011430D01*
X001530Y011870D01*
X001825Y011870D01*
X001893Y011859D01*
X001959Y011838D01*
X002021Y011806D01*
X002040Y011792D01*
X002040Y011978D01*
X002077Y012066D01*
X002144Y012133D01*
X002232Y012170D01*
X003915Y012170D01*
X003894Y012199D01*
X003862Y012261D01*
X003841Y012327D01*
X003830Y012395D01*
X003830Y012430D01*
X004530Y012430D01*
X004530Y012430D01*
X004530Y012870D01*
X004825Y012870D01*
X004893Y012859D01*
X004959Y012838D01*
X005021Y012806D01*
X005077Y012766D01*
X005126Y012717D01*
X005166Y012661D01*
X005198Y012599D01*
X005219Y012533D01*
X005230Y012465D01*
X005230Y012430D01*
X004530Y012430D01*
X004530Y012430D01*
X004530Y012430D01*
X004530Y012870D01*
X004235Y012870D01*
X004167Y012859D01*
X004101Y012838D01*
X004039Y012806D01*
X003983Y012766D01*
X003934Y012717D01*
X003894Y012661D01*
X003862Y012599D01*
X003841Y012533D01*
X003830Y012465D01*
X003830Y012430D01*
X004530Y012430D01*
X005230Y012430D01*
X005230Y012395D01*
X005219Y012327D01*
X005198Y012261D01*
X005166Y012199D01*
X005145Y012170D01*
X005650Y012170D01*
X005650Y012285D01*
X005731Y012480D01*
X005880Y012629D01*
X006075Y012710D01*
X006285Y012710D01*
X006480Y012629D01*
X006629Y012480D01*
X006710Y012285D01*
X006710Y012075D01*
X006629Y011880D01*
X006480Y011731D01*
X006285Y011650D01*
X006075Y011650D01*
X005978Y011690D01*
X005124Y011690D01*
X005146Y011668D01*
X005210Y011514D01*
X005210Y011346D01*
X005146Y011192D01*
X005028Y011074D01*
X004874Y011010D01*
X004186Y011010D01*
X004056Y011064D01*
X004081Y010806D01*
X004186Y010850D01*
X004874Y010850D01*
X005028Y010786D01*
X005146Y010668D01*
X005153Y010651D01*
X005195Y010709D01*
X005251Y010765D01*
X005315Y010812D01*
X005386Y010848D01*
X005462Y010873D01*
X005540Y010885D01*
X005580Y010885D01*
X005580Y010380D01*
X005580Y009875D01*
X005580Y010007D02*
X005580Y010007D01*
X005580Y010166D02*
X005580Y010166D01*
X005580Y010324D02*
X005580Y010324D01*
X005580Y010380D02*
X005580Y010380D01*
X005580Y010483D02*
X005580Y010483D01*
X005580Y010641D02*
X005580Y010641D01*
X005580Y010800D02*
X005580Y010800D01*
X005862Y010800D02*
X005956Y010800D01*
X006021Y010958D02*
X004066Y010958D01*
X003780Y011430D02*
X003880Y010380D01*
X004530Y010380D01*
X004530Y010430D01*
X004995Y010800D02*
X005298Y010800D01*
X005070Y011117D02*
X006167Y011117D01*
X006480Y010680D02*
X006480Y008430D01*
X008680Y008430D01*
X008680Y007680D01*
X009180Y007680D01*
X009180Y008680D02*
X008630Y008680D01*
X009180Y008680D01*
X009180Y008680D01*
X009554Y009056D02*
X009690Y009056D01*
X009582Y009056D01*
X009600Y009038D02*
X009538Y009100D01*
X009486Y009138D01*
X009511Y009184D01*
X009464Y009351D01*
X009312Y009436D01*
X009039Y009358D01*
X008954Y009206D01*
X008960Y009185D01*
X008892Y009150D01*
X008822Y009100D01*
X008760Y009038D01*
X008710Y008968D01*
X008670Y008891D01*
X008644Y008809D01*
X008630Y008723D01*
X008630Y008680D01*
X008630Y008670D01*
X006720Y008670D01*
X006720Y010206D01*
X006780Y010231D01*
X006929Y010380D01*
X007005Y010563D01*
X007081Y010380D01*
X007230Y010231D01*
X007425Y010150D01*
X007635Y010150D01*
X007830Y010231D01*
X007979Y010380D01*
X008004Y010440D01*
X009228Y010440D01*
X009316Y010477D01*
X009383Y010544D01*
X009420Y010632D01*
X009420Y010706D01*
X009480Y010731D01*
X009629Y010880D01*
X009690Y011026D01*
X009690Y008834D01*
X009629Y008980D01*
X009480Y009129D01*
X009285Y009210D01*
X009075Y009210D01*
X008880Y009129D01*
X008731Y008980D01*
X008650Y008785D01*
X008650Y008670D01*
X006720Y008670D01*
X006720Y010206D01*
X006780Y010231D01*
X006929Y010380D01*
X007005Y010563D01*
X007081Y010380D01*
X007230Y010231D01*
X007422Y010151D01*
X007413Y010105D01*
X007510Y009961D01*
X007681Y009927D01*
X007869Y010054D01*
X007903Y010225D01*
X007871Y010272D01*
X007979Y010380D01*
X008004Y010440D01*
X009228Y010440D01*
X009316Y010477D01*
X009383Y010544D01*
X009420Y010632D01*
X009420Y010706D01*
X009480Y010731D01*
X009629Y010880D01*
X009690Y011026D01*
X009690Y008890D01*
X009690Y008891D01*
X009650Y008968D01*
X009600Y009038D01*
X009664Y008898D02*
X009690Y008898D01*
X009686Y008898D01*
X009690Y009215D02*
X009502Y009215D01*
X009424Y009373D02*
X009690Y009373D01*
X006720Y009373D01*
X009091Y009373D01*
X008959Y009215D02*
X006720Y009215D01*
X009690Y009215D01*
X009690Y009532D02*
X006720Y009532D01*
X009690Y009532D01*
X009690Y009690D02*
X006720Y009690D01*
X009690Y009690D01*
X009690Y009849D02*
X006720Y009849D01*
X009690Y009849D01*
X009690Y010007D02*
X006720Y010007D01*
X007479Y010007D01*
X007387Y010166D02*
X006720Y010166D01*
X007387Y010166D01*
X007673Y010166D02*
X009690Y010166D01*
X007891Y010166D01*
X007924Y010324D02*
X009690Y010324D01*
X007924Y010324D01*
X007799Y010007D02*
X009690Y010007D01*
X009690Y010483D02*
X009322Y010483D01*
X009690Y010483D01*
X009690Y010641D02*
X009420Y010641D01*
X009690Y010641D01*
X009690Y010800D02*
X009549Y010800D01*
X009690Y010800D01*
X009690Y010958D02*
X009662Y010958D01*
X009690Y010958D01*
X009180Y011180D02*
X009180Y010680D01*
X007530Y010680D01*
X007843Y011117D02*
X008650Y011117D01*
X008650Y011275D02*
X005180Y011275D01*
X005210Y011434D02*
X008711Y011434D01*
X008842Y011592D02*
X005177Y011592D01*
X005180Y012226D02*
X005650Y012226D01*
X005691Y012385D02*
X005228Y012385D01*
X005216Y012543D02*
X005793Y012543D01*
X006054Y012702D02*
X005137Y012702D01*
X004888Y012860D02*
X009690Y012860D01*
X009690Y012702D02*
X009355Y012702D01*
X009180Y012702D02*
X009180Y012702D01*
X009180Y012730D02*
X009137Y012730D01*
X009051Y012716D01*
X008969Y012690D01*
X008892Y012650D01*
X008822Y012600D01*
X008760Y012538D01*
X008710Y012468D01*
X008670Y012391D01*
X008644Y012309D01*
X008630Y012223D01*
X008630Y012180D01*
X009180Y012180D01*
X009180Y012180D01*
X009180Y012730D01*
X009005Y012702D02*
X007556Y012702D01*
X007535Y012710D02*
X007325Y012710D01*
X007130Y012629D01*
X006981Y012480D01*
X006900Y012285D01*
X006900Y012075D01*
X006981Y011880D01*
X007130Y011731D01*
X007325Y011650D01*
X007535Y011650D01*
X007730Y011731D01*
X007879Y011880D01*
X007960Y012075D01*
X007960Y012285D01*
X007879Y012480D01*
X007730Y012629D01*
X007535Y012710D01*
X007817Y012543D02*
X008765Y012543D01*
X008668Y012385D02*
X007919Y012385D01*
X007960Y012226D02*
X008630Y012226D01*
X008641Y012068D02*
X007957Y012068D01*
X007891Y011909D02*
X008701Y011909D01*
X008835Y011751D02*
X007750Y011751D01*
X007989Y010958D02*
X008698Y010958D01*
X009180Y012226D02*
X009180Y012226D01*
X009180Y012385D02*
X009180Y012385D01*
X009180Y012543D02*
X009180Y012543D01*
X009595Y012543D02*
X009690Y012543D01*
X009690Y013019D02*
X009638Y013019D01*
X009638Y013177D02*
X009690Y013177D01*
X009690Y013336D02*
X009638Y013336D01*
X009638Y013494D02*
X009690Y013494D01*
X009690Y013653D02*
X008320Y013653D01*
X008286Y013811D02*
X009690Y013811D01*
X009690Y013970D02*
X005520Y013970D01*
X005421Y014128D02*
X009690Y014128D01*
X009690Y014287D02*
X009536Y014287D01*
X009656Y014445D02*
X009690Y014445D01*
X009180Y014680D02*
X008680Y015180D01*
X007430Y015180D01*
X007805Y015555D02*
X008643Y015555D01*
X008630Y015680D02*
X009180Y015680D01*
X009180Y015680D01*
X009180Y016230D01*
X009137Y016230D01*
X009051Y016216D01*
X008969Y016190D01*
X008892Y016150D01*
X008822Y016100D01*
X008760Y016038D01*
X008710Y015968D01*
X008670Y015891D01*
X008644Y015809D01*
X008630Y015723D01*
X008630Y015680D01*
X008630Y015713D02*
X006438Y015713D01*
X006555Y015555D02*
X007055Y015555D01*
X006946Y015396D02*
X006664Y015396D01*
X006710Y015238D02*
X006900Y015238D01*
X006900Y015079D02*
X006710Y015079D01*
X006646Y014921D02*
X006964Y014921D01*
X007098Y014762D02*
X006512Y014762D01*
X005848Y014762D02*
X005052Y014762D01*
X005173Y014604D02*
X008650Y014604D01*
X008650Y014762D02*
X007762Y014762D01*
X007896Y014921D02*
X008600Y014921D01*
X008704Y014445D02*
X005210Y014445D01*
X005185Y014287D02*
X008824Y014287D01*
X009280Y013280D02*
X008080Y013280D01*
X008080Y013680D01*
X005280Y013680D01*
X005280Y013930D01*
X002780Y013930D01*
X003046Y014287D02*
X003875Y014287D01*
X003850Y014445D02*
X003840Y014445D01*
X003780Y014680D02*
X001780Y014680D01*
X001530Y014430D01*
X001968Y013811D02*
X002422Y013811D01*
X002422Y013970D02*
X001020Y013970D01*
X001020Y013811D02*
X001092Y013811D01*
X001020Y013019D02*
X001166Y013019D01*
X001020Y012860D02*
X001871Y012860D01*
X001894Y013019D02*
X002029Y013019D01*
X002131Y013177D02*
X002922Y013177D01*
X003280Y012930D02*
X002280Y012930D01*
X001780Y012430D01*
X001530Y012430D01*
X002012Y012068D02*
X002078Y012068D01*
X002040Y011909D02*
X001020Y011909D01*
X001020Y012068D02*
X001048Y012068D01*
X001530Y011751D02*
X001530Y011751D01*
X001530Y011592D02*
X001530Y011592D01*
X001530Y011434D02*
X001530Y011434D01*
X001530Y011430D02*
X001530Y010990D01*
X001825Y010990D01*
X001893Y011001D01*
X001959Y011022D01*
X002021Y011054D01*
X002040Y011068D01*
X002040Y010774D01*
X002028Y010786D01*
X001874Y010850D01*
X001186Y010850D01*
X001032Y010786D01*
X001020Y010774D01*
X001020Y011068D01*
X001039Y011054D01*
X001101Y011022D01*
X001167Y011001D01*
X001235Y010990D01*
X001530Y010990D01*
X001530Y011430D01*
X001530Y011430D01*
X001530Y011275D02*
X001530Y011275D01*
X001530Y011117D02*
X001530Y011117D01*
X001995Y010800D02*
X002040Y010800D01*
X002040Y010958D02*
X001020Y010958D01*
X001020Y010800D02*
X001065Y010800D01*
X002160Y012226D02*
X003880Y012226D01*
X003832Y012385D02*
X002210Y012385D01*
X002232Y012543D02*
X003844Y012543D01*
X003923Y012702D02*
X003638Y012702D01*
X003638Y012860D02*
X004172Y012860D01*
X004166Y013019D02*
X003638Y013019D01*
X003638Y013177D02*
X003929Y013177D01*
X003855Y013336D02*
X002205Y013336D01*
X002210Y013494D02*
X003850Y013494D01*
X003908Y013653D02*
X003125Y013653D01*
X002435Y013653D02*
X002152Y013653D01*
X002082Y014128D02*
X002422Y014128D01*
X002514Y014287D02*
X002185Y014287D01*
X002280Y011930D02*
X006180Y011930D01*
X006180Y012180D01*
X006567Y012543D02*
X007043Y012543D01*
X006941Y012385D02*
X006669Y012385D01*
X006710Y012226D02*
X006900Y012226D01*
X006903Y012068D02*
X006707Y012068D01*
X006641Y011909D02*
X006969Y011909D01*
X007110Y011751D02*
X006500Y011751D01*
X006793Y011117D02*
X007217Y011117D01*
X007071Y010958D02*
X006939Y010958D01*
X007004Y010800D02*
X007006Y010800D01*
X006972Y010483D02*
X007038Y010483D01*
X006972Y010483D01*
X006874Y010324D02*
X007136Y010324D01*
X006874Y010324D01*
X006240Y010166D02*
X006037Y010166D01*
X006082Y010324D02*
X006086Y010324D01*
X006240Y010007D02*
X005921Y010007D01*
X005716Y009849D02*
X006240Y009849D01*
X006240Y009690D02*
X005956Y009690D01*
X006042Y009532D02*
X006240Y009532D01*
X006240Y009373D02*
X006065Y009373D01*
X006036Y009215D02*
X006240Y009215D01*
X006240Y009056D02*
X005942Y009056D01*
X005683Y008898D02*
X006240Y008898D01*
X006720Y008898D02*
X008696Y008898D01*
X008674Y008898D02*
X006720Y008898D01*
X006720Y009056D02*
X008806Y009056D01*
X008778Y009056D02*
X006720Y009056D01*
X006720Y008739D02*
X008650Y008739D01*
X008632Y008739D02*
X006720Y008739D01*
X006017Y007947D02*
X004000Y007947D01*
X004000Y008105D02*
X004001Y008105D01*
X004015Y007788D02*
X004037Y007788D01*
X004021Y007775D02*
X004021Y007775D01*
X003780Y007730D02*
X003530Y007630D01*
X003530Y003680D01*
X002180Y003680D01*
X002180Y001680D01*
X002680Y001680D01*
X002487Y002241D02*
X002420Y002241D01*
X002680Y002680D02*
X002680Y003430D01*
X003780Y003430D01*
X003780Y007430D01*
X004530Y007430D01*
X005023Y007788D02*
X005065Y007788D01*
X005280Y006430D02*
X004530Y006430D01*
X003280Y007830D02*
X003280Y003930D01*
X001930Y003930D01*
X001930Y002680D01*
X001680Y002680D01*
X001680Y001680D02*
X001180Y001680D01*
X001180Y004180D01*
X002880Y004180D01*
X002880Y005594D01*
X004020Y003667D02*
X004160Y003667D01*
X004020Y003509D02*
X012940Y003509D01*
X012940Y003667D02*
X005000Y003667D01*
X005159Y003826D02*
X012940Y003826D01*
X012940Y003984D02*
X005240Y003984D01*
X005240Y004143D02*
X012940Y004143D01*
X012940Y004301D02*
X005240Y004301D01*
X005234Y004460D02*
X012940Y004460D01*
X013420Y003667D02*
X013971Y003667D01*
X013759Y003509D02*
X013420Y003509D01*
X012940Y003350D02*
X004007Y003350D01*
X003326Y003033D02*
X003006Y003033D01*
X003119Y002875D02*
X003218Y002875D01*
X003180Y002716D02*
X003160Y002716D01*
X003149Y002558D02*
X003194Y002558D01*
X003266Y002399D02*
X003078Y002399D01*
X005075Y004618D02*
X010080Y004618D01*
X009922Y004777D02*
X009747Y004777D01*
X010894Y005728D02*
X010989Y005728D01*
X011053Y005569D02*
X011867Y005569D01*
X011774Y005411D02*
X011160Y005411D01*
X011160Y005252D02*
X011733Y005252D01*
X011733Y005094D02*
X011160Y005094D01*
X011160Y004935D02*
X011794Y004935D01*
X011916Y004777D02*
X011038Y004777D01*
X010941Y001924D02*
X007793Y001924D01*
X007972Y001765D02*
X007980Y001765D01*
X008780Y001765D02*
X009980Y001765D01*
X009821Y001607D02*
X008939Y001607D01*
X009023Y001448D02*
X009737Y001448D01*
X009683Y001290D02*
X009077Y001290D01*
X009077Y001131D02*
X009683Y001131D01*
X009712Y000973D02*
X009048Y000973D01*
X008982Y000814D02*
X009778Y000814D01*
X005204Y009690D02*
X005124Y009690D01*
X003880Y009680D02*
X003880Y010380D01*
X003880Y009680D02*
X003580Y009580D01*
X002280Y008430D02*
X002280Y011930D01*
X003280Y011430D02*
X003780Y011430D01*
X004530Y012543D02*
X004530Y012543D01*
X004530Y012702D02*
X004530Y012702D01*
X004530Y012860D02*
X004530Y012860D01*
X004894Y013019D02*
X008922Y013019D01*
X007863Y013177D02*
X005131Y013177D01*
X005205Y013336D02*
X007840Y013336D01*
X007304Y012702D02*
X006306Y012702D01*
X005714Y014921D02*
X004020Y014921D01*
X004020Y015079D02*
X004027Y015079D01*
X003780Y014680D02*
X003780Y015930D01*
X005280Y015930D01*
X005280Y016180D01*
X006180Y016180D01*
X006396Y016664D02*
X009690Y016664D01*
X009690Y016506D02*
X006604Y016506D01*
X006684Y016347D02*
X009690Y016347D01*
X009690Y016189D02*
X009393Y016189D01*
X009180Y016189D02*
X009180Y016189D01*
X009180Y016030D02*
X009180Y016030D01*
X009180Y015872D02*
X009180Y015872D01*
X009180Y015713D02*
X009180Y015713D01*
X008967Y016189D02*
X006710Y016189D01*
X006692Y016030D02*
X008754Y016030D01*
X008664Y015872D02*
X006621Y015872D01*
X005922Y015713D02*
X005383Y015713D01*
X005516Y015872D02*
X005739Y015872D01*
X005805Y015555D02*
X005193Y015555D01*
X005210Y015396D02*
X005696Y015396D01*
X005650Y015238D02*
X005165Y015238D01*
X005033Y015079D02*
X005650Y015079D01*
X007080Y017180D02*
X010180Y017180D01*
X010180Y014680D01*
X010180Y012680D01*
X010680Y012680D02*
X011630Y012680D01*
X011919Y012226D02*
X012290Y012226D01*
X012290Y012385D02*
X012081Y012385D01*
X012147Y012543D02*
X012290Y012543D01*
X012290Y012702D02*
X012160Y012702D01*
X012129Y012860D02*
X012290Y012860D01*
X012290Y013019D02*
X012041Y013019D01*
X012530Y013280D02*
X012530Y011380D01*
X017480Y011380D01*
X017480Y016680D01*
X015680Y016680D01*
X015583Y016190D02*
X015777Y016190D01*
X015958Y016265D01*
X016095Y016402D01*
X016111Y016440D01*
X017240Y016440D01*
X017240Y011620D01*
X013004Y011620D01*
X012979Y011680D01*
X012830Y011829D01*
X012770Y011854D01*
X012770Y013328D01*
X012733Y013416D01*
X012666Y013483D01*
X012578Y013520D01*
X011038Y013520D01*
X011038Y013544D01*
X010944Y013638D01*
X010420Y013638D01*
X010420Y014440D01*
X012249Y014440D01*
X012265Y014402D01*
X012402Y014265D01*
X012583Y014190D01*
X012777Y014190D01*
X012958Y014265D01*
X013095Y014402D01*
X013111Y014440D01*
X013568Y014440D01*
X014226Y013650D01*
X014195Y013576D01*
X014195Y013384D01*
X014269Y013205D01*
X014405Y013069D01*
X014584Y012995D01*
X014776Y012995D01*
X014955Y013069D01*
X015091Y013205D01*
X015106Y013240D01*
X015795Y013240D01*
X015795Y013089D01*
X015889Y012995D01*
X016671Y012995D01*
X016765Y013089D01*
X016765Y013871D01*
X016671Y013965D01*
X015889Y013965D01*
X015795Y013871D01*
X015795Y013720D01*
X015106Y013720D01*
X015091Y013755D01*
X014955Y013891D01*
X014776Y013965D01*
X014588Y013965D01*
X013888Y014806D01*
X013883Y014816D01*
X013857Y014842D01*
X013834Y014870D01*
X013824Y014876D01*
X013816Y014883D01*
X013782Y014898D01*
X013749Y014915D01*
X013738Y014916D01*
X013728Y014920D01*
X013691Y014920D01*
X013654Y014923D01*
X013643Y014920D01*
X013111Y014920D01*
X013095Y014958D01*
X012958Y015095D01*
X012777Y015170D01*
X012583Y015170D01*
X012402Y015095D01*
X012265Y014958D01*
X012249Y014920D01*
X010420Y014920D01*
X010420Y017228D01*
X010383Y017316D01*
X010316Y017383D01*
X010228Y017420D01*
X007320Y017420D01*
X007320Y019828D01*
X007283Y019916D01*
X007216Y019983D01*
X007128Y020020D01*
X005363Y020020D01*
X005399Y020035D01*
X005528Y020164D01*
X005597Y020332D01*
X005597Y020479D01*
X008228Y020479D01*
X008316Y020516D01*
X008383Y020583D01*
X008420Y020672D01*
X008420Y023269D01*
X008538Y023220D01*
X008721Y023220D01*
X008891Y023290D01*
X009020Y023419D01*
X009090Y023588D01*
X009090Y024371D01*
X009020Y024541D01*
X008941Y024620D01*
X009391Y024620D01*
X009364Y024593D01*
X009319Y024532D01*
X009285Y024464D01*
X009262Y024392D01*
X009250Y024318D01*
X009250Y024000D01*
X009710Y024000D01*
X009710Y023960D01*
X009750Y023960D01*
X009750Y024000D01*
X010210Y024000D01*
X010210Y024318D01*
X010198Y024392D01*
X010175Y024464D01*
X010141Y024532D01*
X010096Y024593D01*
X010069Y024620D01*
X013043Y024620D01*
X013010Y024587D01*
X012941Y024420D01*
X011632Y024420D01*
X011544Y024383D01*
X011477Y024316D01*
X011440Y024228D01*
X011440Y016175D01*
X011330Y016129D01*
X011181Y015980D01*
X011100Y015785D01*
X011100Y015575D01*
X011181Y015380D01*
X011330Y015231D01*
X011525Y015150D01*
X011735Y015150D01*
X011930Y015231D01*
X012079Y015380D01*
X012104Y015440D01*
X012249Y015440D01*
X012265Y015402D01*
X012402Y015265D01*
X012583Y015190D01*
X012777Y015190D01*
X012958Y015265D01*
X013095Y015402D01*
X013170Y015583D01*
X013170Y015777D01*
X013118Y015902D01*
X013544Y015477D01*
X013632Y015440D01*
X015249Y015440D01*
X015265Y015402D01*
X015402Y015265D01*
X015583Y015190D01*
X015777Y015190D01*
X015958Y015265D01*
X016095Y015402D01*
X016111Y015440D01*
X016254Y015440D01*
X016269Y015405D01*
X016405Y015269D01*
X016584Y015195D01*
X016776Y015195D01*
X016955Y015269D01*
X017091Y015405D01*
X017165Y015584D01*
X017165Y015776D01*
X017091Y015955D01*
X016955Y016091D01*
X016776Y016165D01*
X016584Y016165D01*
X016405Y016091D01*
X016269Y015955D01*
X016254Y015920D01*
X016111Y015920D01*
X016095Y015958D01*
X015958Y016095D01*
X015777Y016170D01*
X015583Y016170D01*
X015402Y016095D01*
X015265Y015958D01*
X015249Y015920D01*
X013779Y015920D01*
X013154Y016545D01*
X013170Y016583D01*
X013170Y016777D01*
X013095Y016958D01*
X012958Y017095D01*
X012777Y017170D01*
X012583Y017170D01*
X012402Y017095D01*
X012265Y016958D01*
X012249Y016920D01*
X012170Y016920D01*
X012170Y021490D01*
X013115Y021490D01*
X013198Y021408D01*
X013489Y021287D01*
X015071Y021287D01*
X015337Y021397D01*
X016328Y020208D01*
X016328Y018938D01*
X016442Y018661D01*
X016654Y018450D01*
X016930Y018335D01*
X017230Y018335D01*
X017506Y018450D01*
X017620Y018563D01*
X017620Y016879D01*
X017616Y016883D01*
X017528Y016920D01*
X016111Y016920D01*
X016095Y016958D01*
X015958Y017095D01*
X015777Y017170D01*
X015583Y017170D01*
X015402Y017095D01*
X015265Y016958D01*
X015190Y016777D01*
X015190Y016583D01*
X015265Y016402D01*
X015402Y016265D01*
X015583Y016190D01*
X015337Y016030D02*
X013669Y016030D01*
X013511Y016189D02*
X017240Y016189D01*
X017240Y016347D02*
X016040Y016347D01*
X016023Y016030D02*
X016344Y016030D01*
X016680Y015680D02*
X015680Y015680D01*
X013680Y015680D01*
X012680Y016680D01*
X011930Y016680D01*
X011930Y021730D01*
X014280Y021730D01*
X014280Y021780D01*
X015330Y021780D01*
X017080Y019680D01*
X016350Y018883D02*
X012170Y018883D01*
X012170Y018725D02*
X016416Y018725D01*
X016537Y018566D02*
X012170Y018566D01*
X012170Y018408D02*
X016755Y018408D01*
X017405Y018408D02*
X017620Y018408D01*
X017620Y018249D02*
X012170Y018249D01*
X012170Y018091D02*
X012398Y018091D01*
X012402Y018095D02*
X012265Y017958D01*
X012190Y017777D01*
X012190Y017583D01*
X012265Y017402D01*
X012402Y017265D01*
X012583Y017190D01*
X012777Y017190D01*
X012958Y017265D01*
X013095Y017402D01*
X013170Y017583D01*
X013170Y017777D01*
X013095Y017958D01*
X012958Y018095D01*
X012777Y018170D01*
X012583Y018170D01*
X012402Y018095D01*
X012254Y017932D02*
X012170Y017932D01*
X012170Y017774D02*
X012190Y017774D01*
X012190Y017615D02*
X012170Y017615D01*
X012170Y017457D02*
X012242Y017457D01*
X012170Y017298D02*
X012369Y017298D01*
X012509Y017140D02*
X012170Y017140D01*
X012170Y016981D02*
X012288Y016981D01*
X012180Y016680D02*
X012680Y016680D01*
X013170Y016664D02*
X015190Y016664D01*
X015209Y016823D02*
X013151Y016823D01*
X013072Y016981D02*
X015288Y016981D01*
X015509Y017140D02*
X012851Y017140D01*
X012991Y017298D02*
X015369Y017298D01*
X015402Y017265D02*
X015583Y017190D01*
X015777Y017190D01*
X015958Y017265D01*
X016095Y017402D01*
X016170Y017583D01*
X016170Y017777D01*
X016095Y017958D01*
X015958Y018095D01*
X015777Y018170D01*
X015583Y018170D01*
X015402Y018095D01*
X015265Y017958D01*
X015190Y017777D01*
X015190Y017583D01*
X015265Y017402D01*
X015402Y017265D01*
X015242Y017457D02*
X013118Y017457D01*
X013170Y017615D02*
X015190Y017615D01*
X015190Y017774D02*
X013170Y017774D01*
X013106Y017932D02*
X015254Y017932D01*
X015398Y018091D02*
X012962Y018091D01*
X013237Y019042D02*
X012170Y019042D01*
X012170Y019200D02*
X013055Y019200D01*
X012975Y019281D02*
X012854Y019572D01*
X012854Y019888D01*
X012975Y020179D01*
X013198Y020402D01*
X013489Y020523D01*
X015071Y020523D01*
X015362Y020402D01*
X015585Y020179D01*
X015706Y019888D01*
X015706Y019572D01*
X015585Y019281D01*
X015362Y019058D01*
X015071Y018937D01*
X013489Y018937D01*
X013198Y019058D01*
X012975Y019281D01*
X012942Y019359D02*
X012170Y019359D01*
X012170Y019517D02*
X012877Y019517D01*
X012854Y019676D02*
X012170Y019676D01*
X012170Y019834D02*
X012854Y019834D01*
X012897Y019993D02*
X012170Y019993D01*
X012170Y020151D02*
X012963Y020151D01*
X013105Y020310D02*
X012170Y020310D01*
X012170Y020468D02*
X013356Y020468D01*
X013186Y021419D02*
X012170Y021419D01*
X012170Y021261D02*
X015450Y021261D01*
X015583Y021102D02*
X012170Y021102D01*
X012170Y020944D02*
X015715Y020944D01*
X015847Y020785D02*
X012170Y020785D01*
X012170Y020627D02*
X015979Y020627D01*
X016111Y020468D02*
X015204Y020468D01*
X015455Y020310D02*
X016243Y020310D01*
X016328Y020151D02*
X015597Y020151D01*
X015663Y019993D02*
X016328Y019993D01*
X016328Y019834D02*
X015706Y019834D01*
X015706Y019676D02*
X016328Y019676D01*
X016328Y019517D02*
X015683Y019517D01*
X015618Y019359D02*
X016328Y019359D01*
X016328Y019200D02*
X015505Y019200D01*
X015323Y019042D02*
X016328Y019042D01*
X015962Y018091D02*
X017620Y018091D01*
X017620Y017932D02*
X016106Y017932D01*
X016170Y017774D02*
X017620Y017774D01*
X017620Y017615D02*
X016170Y017615D01*
X016118Y017457D02*
X017620Y017457D01*
X017620Y017298D02*
X015991Y017298D01*
X015851Y017140D02*
X017620Y017140D01*
X017620Y016981D02*
X016072Y016981D01*
X015320Y016347D02*
X013352Y016347D01*
X013194Y016506D02*
X015222Y016506D01*
X015271Y015396D02*
X013089Y015396D01*
X013158Y015555D02*
X013466Y015555D01*
X013308Y015713D02*
X013170Y015713D01*
X013149Y015872D02*
X013131Y015872D01*
X012680Y015680D02*
X011680Y015680D01*
X011680Y024180D01*
X014180Y024180D01*
X014180Y024238D01*
X014316Y024138D01*
X014180Y024180D02*
X017080Y024180D01*
X017080Y022880D01*
X014280Y022080D02*
X014280Y021780D01*
X012945Y024431D02*
X010186Y024431D01*
X010210Y024272D02*
X011458Y024272D01*
X011440Y024114D02*
X010210Y024114D01*
X010210Y023960D02*
X009750Y023960D01*
X009750Y023200D01*
X009768Y023200D01*
X009842Y023212D01*
X009914Y023235D01*
X009982Y023269D01*
X010043Y023314D01*
X010096Y023367D01*
X010141Y023428D01*
X010175Y023496D01*
X010198Y023568D01*
X010210Y023642D01*
X010210Y023960D01*
X010210Y023955D02*
X011440Y023955D01*
X011440Y023797D02*
X010210Y023797D01*
X010209Y023638D02*
X011440Y023638D01*
X011440Y023480D02*
X010167Y023480D01*
X010050Y023321D02*
X011440Y023321D01*
X011440Y023163D02*
X009444Y023163D01*
X009468Y023150D02*
X009391Y023190D01*
X009309Y023216D01*
X009223Y023230D01*
X009180Y023230D01*
X009180Y022680D01*
X009730Y022680D01*
X009730Y022723D01*
X009716Y022809D01*
X009690Y022891D01*
X009650Y022968D01*
X009600Y023038D01*
X009538Y023100D01*
X009468Y023150D01*
X009546Y023235D02*
X009618Y023212D01*
X009692Y023200D01*
X009710Y023200D01*
X009710Y023960D01*
X009250Y023960D01*
X009250Y023642D01*
X009262Y023568D01*
X009285Y023496D01*
X009319Y023428D01*
X009364Y023367D01*
X009417Y023314D01*
X009478Y023269D01*
X009546Y023235D01*
X009410Y023321D02*
X008922Y023321D01*
X008969Y023190D02*
X008892Y023150D01*
X008822Y023100D01*
X008760Y023038D01*
X008710Y022968D01*
X008670Y022891D01*
X008644Y022809D01*
X008630Y022723D01*
X008630Y022680D01*
X009180Y022680D01*
X009180Y022680D01*
X009180Y022680D01*
X009730Y022680D01*
X009730Y022637D01*
X009716Y022551D01*
X009690Y022469D01*
X009650Y022392D01*
X009600Y022322D01*
X009538Y022260D01*
X009468Y022210D01*
X009391Y022170D01*
X009386Y022169D01*
X009480Y022129D01*
X009629Y021980D01*
X009710Y021785D01*
X009710Y021575D01*
X009629Y021380D01*
X009480Y021231D01*
X009285Y021150D01*
X009075Y021150D01*
X008880Y021231D01*
X008731Y021380D01*
X008650Y021575D01*
X008650Y021785D01*
X008731Y021980D01*
X008880Y022129D01*
X008974Y022169D01*
X008969Y022170D01*
X008892Y022210D01*
X008822Y022260D01*
X008760Y022322D01*
X008710Y022392D01*
X008670Y022469D01*
X008644Y022551D01*
X008630Y022637D01*
X008630Y022680D01*
X009180Y022680D01*
X009180Y022680D01*
X009180Y023230D01*
X009137Y023230D01*
X009051Y023216D01*
X008969Y023190D01*
X008916Y023163D02*
X008420Y023163D01*
X008420Y023004D02*
X008736Y023004D01*
X008655Y022846D02*
X008420Y022846D01*
X008420Y022687D02*
X008630Y022687D01*
X008651Y022529D02*
X008420Y022529D01*
X008420Y022370D02*
X008725Y022370D01*
X008889Y022212D02*
X008420Y022212D01*
X008420Y022053D02*
X008804Y022053D01*
X008695Y021895D02*
X008420Y021895D01*
X008420Y021736D02*
X008650Y021736D01*
X008650Y021578D02*
X008420Y021578D01*
X008420Y021419D02*
X008714Y021419D01*
X008850Y021261D02*
X008420Y021261D01*
X008420Y021102D02*
X011440Y021102D01*
X011440Y020944D02*
X008420Y020944D01*
X008420Y020785D02*
X011440Y020785D01*
X011440Y020627D02*
X008401Y020627D01*
X008180Y020719D02*
X008180Y023980D01*
X008630Y023980D01*
X009090Y023955D02*
X009250Y023955D01*
X009250Y023797D02*
X009090Y023797D01*
X009090Y023638D02*
X009251Y023638D01*
X009293Y023480D02*
X009045Y023480D01*
X009180Y023163D02*
X009180Y023163D01*
X009180Y023004D02*
X009180Y023004D01*
X009180Y022846D02*
X009180Y022846D01*
X009180Y022687D02*
X009180Y022687D01*
X009624Y023004D02*
X011440Y023004D01*
X011440Y022846D02*
X009705Y022846D01*
X009730Y022687D02*
X011440Y022687D01*
X011440Y022529D02*
X009709Y022529D01*
X009635Y022370D02*
X011440Y022370D01*
X011440Y022212D02*
X009471Y022212D01*
X009556Y022053D02*
X011440Y022053D01*
X011440Y021895D02*
X009665Y021895D01*
X009710Y021736D02*
X011440Y021736D01*
X011440Y021578D02*
X009710Y021578D01*
X009646Y021419D02*
X011440Y021419D01*
X011440Y021261D02*
X009510Y021261D01*
X009223Y019730D02*
X009309Y019716D01*
X009391Y019690D01*
X009468Y019650D01*
X009538Y019600D01*
X009600Y019538D01*
X009650Y019468D01*
X009690Y019391D01*
X009716Y019309D01*
X009730Y019223D01*
X009730Y019180D01*
X009180Y019180D01*
X009180Y019180D01*
X009180Y019180D01*
X009180Y019730D01*
X009223Y019730D01*
X009180Y019730D02*
X009137Y019730D01*
X009051Y019716D01*
X008969Y019690D01*
X008892Y019650D01*
X008822Y019600D01*
X008760Y019538D01*
X008710Y019468D01*
X008670Y019391D01*
X008644Y019309D01*
X008630Y019223D01*
X008630Y019180D01*
X009180Y019180D01*
X009730Y019180D01*
X009730Y019137D01*
X009716Y019051D01*
X009690Y018969D01*
X009650Y018892D01*
X009600Y018822D01*
X009538Y018760D01*
X009468Y018710D01*
X009391Y018670D01*
X009386Y018669D01*
X009480Y018629D01*
X009629Y018480D01*
X009710Y018285D01*
X009710Y018075D01*
X009629Y017880D01*
X009480Y017731D01*
X009285Y017650D01*
X009075Y017650D01*
X008880Y017731D01*
X008731Y017880D01*
X008650Y018075D01*
X008650Y018285D01*
X008731Y018480D01*
X008880Y018629D01*
X008974Y018669D01*
X008969Y018670D01*
X008892Y018710D01*
X008822Y018760D01*
X008760Y018822D01*
X008710Y018892D01*
X008670Y018969D01*
X008644Y019051D01*
X008630Y019137D01*
X008630Y019180D01*
X009180Y019180D01*
X009180Y019180D01*
X009180Y019730D01*
X009180Y019676D02*
X009180Y019676D01*
X009180Y019517D02*
X009180Y019517D01*
X009180Y019359D02*
X009180Y019359D01*
X009180Y019200D02*
X009180Y019200D01*
X008941Y019676D02*
X007320Y019676D01*
X007317Y019834D02*
X011440Y019834D01*
X011440Y019676D02*
X009419Y019676D01*
X009615Y019517D02*
X011440Y019517D01*
X011440Y019359D02*
X009700Y019359D01*
X009730Y019200D02*
X011440Y019200D01*
X011440Y019042D02*
X009713Y019042D01*
X009644Y018883D02*
X011440Y018883D01*
X011440Y018725D02*
X009489Y018725D01*
X009544Y018566D02*
X011440Y018566D01*
X011440Y018408D02*
X009659Y018408D01*
X009710Y018249D02*
X011440Y018249D01*
X011440Y018091D02*
X009710Y018091D01*
X009651Y017932D02*
X011440Y017932D01*
X011440Y017774D02*
X009523Y017774D01*
X008837Y017774D02*
X007320Y017774D01*
X007320Y017932D02*
X008709Y017932D01*
X008650Y018091D02*
X007320Y018091D01*
X007320Y018249D02*
X008650Y018249D01*
X008701Y018408D02*
X007320Y018408D01*
X007320Y018566D02*
X008816Y018566D01*
X008871Y018725D02*
X007320Y018725D01*
X007320Y018883D02*
X008716Y018883D01*
X008647Y019042D02*
X007320Y019042D01*
X007320Y019200D02*
X008630Y019200D01*
X008660Y019359D02*
X007320Y019359D01*
X007320Y019517D02*
X008745Y019517D01*
X008180Y020719D02*
X005141Y020719D01*
X005597Y020468D02*
X011440Y020468D01*
X011440Y020310D02*
X005588Y020310D01*
X005515Y020151D02*
X011440Y020151D01*
X011440Y019993D02*
X007194Y019993D01*
X007080Y019780D02*
X003180Y019780D01*
X003180Y020719D01*
X003180Y023180D01*
X003637Y023163D02*
X003707Y023163D01*
X003707Y023321D02*
X003637Y023321D01*
X003637Y023480D02*
X003707Y023480D01*
X003707Y023568D02*
X003777Y023736D01*
X003905Y023864D01*
X004073Y023934D01*
X004255Y023934D01*
X004423Y023864D01*
X004552Y023736D01*
X004621Y023568D01*
X004621Y022792D01*
X004552Y022624D01*
X004423Y022496D01*
X004255Y022426D01*
X004073Y022426D01*
X003905Y022496D01*
X003777Y022624D01*
X003707Y022792D01*
X003707Y023568D01*
X003737Y023638D02*
X003608Y023638D01*
X003506Y023797D02*
X003838Y023797D01*
X003707Y023004D02*
X003637Y023004D01*
X003637Y022846D02*
X003707Y022846D01*
X003751Y022687D02*
X003593Y022687D01*
X003471Y022529D02*
X003873Y022529D01*
X003420Y022370D02*
X007940Y022370D01*
X007940Y022212D02*
X003420Y022212D01*
X003420Y022053D02*
X007940Y022053D01*
X007940Y021895D02*
X003420Y021895D01*
X003420Y021736D02*
X007940Y021736D01*
X007940Y021578D02*
X003420Y021578D01*
X003420Y021419D02*
X004919Y021419D01*
X004747Y021261D02*
X003573Y021261D01*
X003637Y021102D02*
X004684Y021102D01*
X004684Y020944D02*
X003637Y020944D01*
X003637Y020785D02*
X004684Y020785D01*
X004684Y020627D02*
X003637Y020627D01*
X003637Y020468D02*
X004684Y020468D01*
X004693Y020310D02*
X003628Y020310D01*
X003555Y020151D02*
X004766Y020151D01*
X005362Y021419D02*
X007940Y021419D01*
X007940Y021261D02*
X005534Y021261D01*
X005597Y021102D02*
X007940Y021102D01*
X007940Y022529D02*
X005468Y022529D01*
X005459Y022519D02*
X005512Y022573D01*
X005556Y022633D01*
X005590Y022700D01*
X005614Y022771D01*
X005625Y022846D01*
X005625Y023162D01*
X005167Y023162D01*
X005167Y023198D01*
X005625Y023198D01*
X005625Y023514D01*
X005614Y023589D01*
X005590Y023660D01*
X005556Y023727D01*
X005512Y023787D01*
X005459Y023841D01*
X005398Y023885D01*
X005332Y023919D01*
X005260Y023942D01*
X005186Y023954D01*
X005167Y023954D01*
X005167Y023198D01*
X005130Y023198D01*
X005130Y023162D01*
X004672Y023162D01*
X004672Y022846D01*
X004683Y022771D01*
X004707Y022700D01*
X004741Y022633D01*
X004785Y022573D01*
X004838Y022519D01*
X004899Y022475D01*
X004965Y022441D01*
X005037Y022418D01*
X005111Y022406D01*
X005130Y022406D01*
X005130Y023162D01*
X005167Y023162D01*
X005167Y022406D01*
X005186Y022406D01*
X005260Y022418D01*
X005332Y022441D01*
X005398Y022475D01*
X005459Y022519D01*
X005584Y022687D02*
X007940Y022687D01*
X007940Y022846D02*
X005625Y022846D01*
X005625Y023004D02*
X007940Y023004D01*
X007940Y023163D02*
X005167Y023163D01*
X005130Y023163D02*
X004621Y023163D01*
X004672Y023198D02*
X005130Y023198D01*
X005130Y023954D01*
X005111Y023954D01*
X005037Y023942D01*
X004965Y023919D01*
X004899Y023885D01*
X004838Y023841D01*
X004785Y023787D01*
X004741Y023727D01*
X004707Y023660D01*
X004683Y023589D01*
X004672Y023514D01*
X004672Y023198D01*
X004672Y023321D02*
X004621Y023321D01*
X004621Y023480D02*
X004672Y023480D01*
X004699Y023638D02*
X004592Y023638D01*
X004491Y023797D02*
X004794Y023797D01*
X005130Y023797D02*
X005167Y023797D01*
X005167Y023638D02*
X005130Y023638D01*
X005130Y023480D02*
X005167Y023480D01*
X005167Y023321D02*
X005130Y023321D01*
X005130Y023004D02*
X005167Y023004D01*
X005167Y022846D02*
X005130Y022846D01*
X005130Y022687D02*
X005167Y022687D01*
X005167Y022529D02*
X005130Y022529D01*
X004829Y022529D02*
X004456Y022529D01*
X004578Y022687D02*
X004713Y022687D01*
X004672Y022846D02*
X004621Y022846D01*
X004621Y023004D02*
X004672Y023004D01*
X005503Y023797D02*
X007940Y023797D01*
X007940Y023955D02*
X000740Y023955D01*
X000740Y023797D02*
X002854Y023797D01*
X002752Y023638D02*
X000740Y023638D01*
X000740Y023480D02*
X002723Y023480D01*
X002723Y023321D02*
X000740Y023321D01*
X000740Y023163D02*
X002723Y023163D01*
X002723Y023004D02*
X000740Y023004D01*
X000740Y022846D02*
X002723Y022846D01*
X002767Y022687D02*
X000740Y022687D01*
X000740Y022529D02*
X002889Y022529D01*
X002940Y022370D02*
X000740Y022370D01*
X000740Y022212D02*
X002940Y022212D01*
X002940Y022053D02*
X000740Y022053D01*
X000740Y021895D02*
X002940Y021895D01*
X002940Y021736D02*
X000740Y021736D01*
X000740Y021578D02*
X002940Y021578D01*
X002940Y021419D02*
X000740Y021419D01*
X000740Y021261D02*
X002787Y021261D01*
X002723Y021102D02*
X000740Y021102D01*
X000740Y020944D02*
X002723Y020944D01*
X002723Y020785D02*
X000740Y020785D01*
X000740Y020627D02*
X002723Y020627D01*
X002723Y020468D02*
X000740Y020468D01*
X000740Y020310D02*
X002732Y020310D01*
X002805Y020151D02*
X000740Y020151D01*
X000740Y019993D02*
X002940Y019993D01*
X002940Y019834D02*
X000740Y019834D01*
X000740Y019676D02*
X002963Y019676D01*
X000971Y018725D02*
X000740Y018725D01*
X000740Y018883D02*
X005729Y018883D01*
X005664Y019042D02*
X000740Y019042D01*
X000740Y019200D02*
X005650Y019200D01*
X005680Y019359D02*
X000740Y019359D01*
X000740Y019517D02*
X005767Y019517D01*
X005895Y018725D02*
X005089Y018725D01*
X005188Y018566D02*
X006840Y018566D01*
X006840Y018408D02*
X005210Y018408D01*
X005170Y018249D02*
X006840Y018249D01*
X006840Y018091D02*
X005044Y018091D01*
X005040Y017774D02*
X006840Y017774D01*
X006840Y017932D02*
X001020Y017932D01*
X005168Y017615D02*
X006840Y017615D01*
X006840Y017457D02*
X005210Y017457D01*
X005190Y017298D02*
X006840Y017298D01*
X007080Y017180D02*
X007080Y019780D01*
X006840Y019517D02*
X006593Y019517D01*
X006680Y019359D02*
X006840Y019359D01*
X006840Y019200D02*
X006710Y019200D01*
X006696Y019042D02*
X006840Y019042D01*
X006840Y018883D02*
X006631Y018883D01*
X006465Y018725D02*
X006840Y018725D01*
X007320Y017615D02*
X011440Y017615D01*
X011440Y017457D02*
X007320Y017457D01*
X009606Y016030D02*
X009690Y016030D01*
X010420Y016030D02*
X011230Y016030D01*
X011136Y015872D02*
X010420Y015872D01*
X010420Y015713D02*
X011100Y015713D01*
X011108Y015555D02*
X010420Y015555D01*
X010420Y015396D02*
X011174Y015396D01*
X011323Y015238D02*
X010420Y015238D01*
X010420Y015079D02*
X012386Y015079D01*
X012468Y015238D02*
X011937Y015238D01*
X012086Y015396D02*
X012271Y015396D01*
X012249Y014921D02*
X010420Y014921D01*
X010180Y014680D02*
X012680Y014680D01*
X013680Y014680D01*
X014680Y013480D01*
X016280Y013480D01*
X016280Y012985D02*
X016240Y012985D01*
X016162Y012973D01*
X016086Y012948D01*
X016015Y012912D01*
X015951Y012865D01*
X015895Y012809D01*
X015848Y012745D01*
X015812Y012674D01*
X015787Y012598D01*
X015775Y012520D01*
X015775Y012480D01*
X016280Y012480D01*
X016280Y012480D01*
X016280Y012985D01*
X016320Y012985D01*
X016398Y012973D01*
X016474Y012948D01*
X016545Y012912D01*
X016609Y012865D01*
X016665Y012809D01*
X016712Y012745D01*
X016748Y012674D01*
X016773Y012598D01*
X016785Y012520D01*
X016785Y012480D01*
X016280Y012480D01*
X016280Y012480D01*
X016280Y012480D01*
X016280Y012985D01*
X016280Y012860D02*
X016280Y012860D01*
X016280Y012702D02*
X016280Y012702D01*
X016280Y012543D02*
X016280Y012543D01*
X016280Y012480D02*
X015775Y012480D01*
X015775Y012440D01*
X015787Y012362D01*
X015812Y012286D01*
X015848Y012215D01*
X015895Y012151D01*
X015951Y012095D01*
X016015Y012048D01*
X016086Y012012D01*
X016162Y011987D01*
X016240Y011975D01*
X016280Y011975D01*
X016320Y011975D01*
X016398Y011987D01*
X016474Y012012D01*
X016545Y012048D01*
X016609Y012095D01*
X016665Y012151D01*
X016712Y012215D01*
X016748Y012286D01*
X016773Y012362D01*
X016785Y012440D01*
X016785Y012480D01*
X016280Y012480D01*
X016280Y011975D01*
X016280Y012480D01*
X016280Y012480D01*
X016280Y012385D02*
X016280Y012385D01*
X016280Y012226D02*
X016280Y012226D01*
X016280Y012068D02*
X016280Y012068D01*
X015989Y012068D02*
X014971Y012068D01*
X014945Y012048D02*
X015009Y012095D01*
X015065Y012151D01*
X015112Y012215D01*
X015148Y012286D01*
X015173Y012362D01*
X015185Y012440D01*
X015185Y012480D01*
X015185Y012520D01*
X015173Y012598D01*
X015148Y012674D01*
X015112Y012745D01*
X015065Y012809D01*
X015009Y012865D01*
X014945Y012912D01*
X014874Y012948D01*
X014798Y012973D01*
X014720Y012985D01*
X014680Y012985D01*
X014680Y012480D01*
X014680Y012480D01*
X015185Y012480D01*
X014680Y012480D01*
X014680Y012480D01*
X014680Y012480D01*
X014175Y012480D01*
X014175Y012520D01*
X014187Y012598D01*
X014212Y012674D01*
X014248Y012745D01*
X014295Y012809D01*
X014351Y012865D01*
X014415Y012912D01*
X014486Y012948D01*
X014562Y012973D01*
X014640Y012985D01*
X014680Y012985D01*
X014680Y012480D01*
X014680Y011975D01*
X014720Y011975D01*
X014798Y011987D01*
X014874Y012012D01*
X014945Y012048D01*
X015117Y012226D02*
X015843Y012226D01*
X015784Y012385D02*
X015176Y012385D01*
X015181Y012543D02*
X015779Y012543D01*
X015826Y012702D02*
X015134Y012702D01*
X015014Y012860D02*
X015946Y012860D01*
X015865Y013019D02*
X014833Y013019D01*
X014680Y012860D02*
X014680Y012860D01*
X014680Y012702D02*
X014680Y012702D01*
X014680Y012543D02*
X014680Y012543D01*
X014680Y012480D02*
X014175Y012480D01*
X014175Y012440D01*
X014187Y012362D01*
X014212Y012286D01*
X014248Y012215D01*
X014295Y012151D01*
X014351Y012095D01*
X014415Y012048D01*
X014486Y012012D01*
X014562Y011987D01*
X014640Y011975D01*
X014680Y011975D01*
X014680Y012480D01*
X014680Y012480D01*
X014680Y012385D02*
X014680Y012385D01*
X014680Y012226D02*
X014680Y012226D01*
X014680Y012068D02*
X014680Y012068D01*
X014389Y012068D02*
X012770Y012068D01*
X012770Y012226D02*
X014243Y012226D01*
X014184Y012385D02*
X012770Y012385D01*
X012770Y012543D02*
X014179Y012543D01*
X014226Y012702D02*
X012770Y012702D01*
X012770Y012860D02*
X014346Y012860D01*
X014527Y013019D02*
X012770Y013019D01*
X012770Y013177D02*
X014297Y013177D01*
X014215Y013336D02*
X012767Y013336D01*
X012640Y013494D02*
X014195Y013494D01*
X014224Y013653D02*
X010420Y013653D01*
X010420Y013811D02*
X014092Y013811D01*
X013960Y013970D02*
X010420Y013970D01*
X010420Y014128D02*
X013828Y014128D01*
X013695Y014287D02*
X012979Y014287D01*
X012381Y014287D02*
X010420Y014287D01*
X010680Y013280D02*
X012530Y013280D01*
X012770Y011909D02*
X017240Y011909D01*
X017240Y011751D02*
X012909Y011751D01*
X014180Y010800D02*
X014180Y010800D01*
X014180Y010641D02*
X014180Y010641D01*
X014180Y010483D02*
X014180Y010483D01*
X015063Y013177D02*
X015795Y013177D01*
X015795Y013811D02*
X015035Y013811D01*
X014584Y013970D02*
X017240Y013970D01*
X017240Y014128D02*
X014452Y014128D01*
X014320Y014287D02*
X015354Y014287D01*
X015348Y014291D02*
X015413Y014244D01*
X015484Y014207D01*
X015561Y014183D01*
X015640Y014170D01*
X015680Y014170D01*
X015720Y014170D01*
X015799Y014183D01*
X015876Y014207D01*
X015947Y014244D01*
X016012Y014291D01*
X016069Y014348D01*
X016116Y014413D01*
X016153Y014484D01*
X016177Y014561D01*
X016183Y014593D01*
X016187Y014562D01*
X016212Y014486D01*
X016248Y014415D01*
X016295Y014351D01*
X016351Y014295D01*
X016415Y014248D01*
X016486Y014212D01*
X016562Y014187D01*
X016640Y014175D01*
X016680Y014175D01*
X016720Y014175D01*
X016798Y014187D01*
X016874Y014212D01*
X016945Y014248D01*
X017009Y014295D01*
X017065Y014351D01*
X017112Y014415D01*
X017148Y014486D01*
X017173Y014562D01*
X017185Y014640D01*
X017185Y014680D01*
X017185Y014720D01*
X017173Y014798D01*
X017148Y014874D01*
X017112Y014945D01*
X017065Y015009D01*
X017009Y015065D01*
X016945Y015112D01*
X016874Y015148D01*
X016798Y015173D01*
X016720Y015185D01*
X016680Y015185D01*
X016680Y014680D01*
X016680Y014680D01*
X017185Y014680D01*
X016680Y014680D01*
X016680Y014680D01*
X016680Y015185D01*
X016640Y015185D01*
X016562Y015173D01*
X016486Y015148D01*
X016415Y015112D01*
X016351Y015065D01*
X016295Y015009D01*
X016248Y014945D01*
X016212Y014874D01*
X016187Y014798D01*
X016183Y014767D01*
X016177Y014799D01*
X016153Y014876D01*
X016116Y014947D01*
X016069Y015012D01*
X016012Y015069D01*
X015947Y015116D01*
X015876Y015153D01*
X015799Y015177D01*
X015720Y015190D01*
X015680Y015190D01*
X015680Y014680D01*
X015680Y014680D01*
X016680Y014680D01*
X016680Y014175D01*
X016680Y014680D01*
X016680Y014680D01*
X016680Y014680D01*
X016190Y014680D01*
X015680Y014680D01*
X015680Y014680D01*
X015680Y014170D01*
X015680Y014680D01*
X015680Y014680D01*
X015680Y014680D01*
X015170Y014680D01*
X015170Y014720D01*
X015183Y014799D01*
X015207Y014876D01*
X015244Y014947D01*
X015291Y015012D01*
X015348Y015069D01*
X015413Y015116D01*
X015484Y015153D01*
X015561Y015177D01*
X015640Y015190D01*
X015680Y015190D01*
X015680Y014680D01*
X015170Y014680D01*
X015170Y014640D01*
X015183Y014561D01*
X015207Y014484D01*
X015244Y014413D01*
X015291Y014348D01*
X015348Y014291D01*
X015227Y014445D02*
X014188Y014445D01*
X014056Y014604D02*
X015176Y014604D01*
X015177Y014762D02*
X013924Y014762D01*
X013685Y014921D02*
X015230Y014921D01*
X015362Y015079D02*
X012974Y015079D01*
X012892Y015238D02*
X015468Y015238D01*
X015680Y015079D02*
X015680Y015079D01*
X015680Y014921D02*
X015680Y014921D01*
X015680Y014762D02*
X015680Y014762D01*
X015680Y014604D02*
X015680Y014604D01*
X015680Y014445D02*
X015680Y014445D01*
X015680Y014287D02*
X015680Y014287D01*
X016006Y014287D02*
X016362Y014287D01*
X016233Y014445D02*
X016133Y014445D01*
X016130Y014921D02*
X016236Y014921D01*
X016370Y015079D02*
X015998Y015079D01*
X015892Y015238D02*
X016481Y015238D01*
X016680Y015079D02*
X016680Y015079D01*
X016680Y014921D02*
X016680Y014921D01*
X016680Y014762D02*
X016680Y014762D01*
X016680Y014604D02*
X016680Y014604D01*
X016680Y014445D02*
X016680Y014445D01*
X016680Y014287D02*
X016680Y014287D01*
X016765Y013811D02*
X017240Y013811D01*
X017240Y013653D02*
X016765Y013653D01*
X016765Y013494D02*
X017240Y013494D01*
X017240Y013336D02*
X016765Y013336D01*
X016765Y013177D02*
X017240Y013177D01*
X017240Y013019D02*
X016695Y013019D01*
X016614Y012860D02*
X017240Y012860D01*
X017240Y012702D02*
X016734Y012702D01*
X016781Y012543D02*
X017240Y012543D01*
X017240Y012385D02*
X016776Y012385D01*
X016717Y012226D02*
X017240Y012226D01*
X017240Y012068D02*
X016571Y012068D01*
X016998Y014287D02*
X017240Y014287D01*
X017240Y014445D02*
X017127Y014445D01*
X017179Y014604D02*
X017240Y014604D01*
X017240Y014762D02*
X017178Y014762D01*
X017124Y014921D02*
X017240Y014921D01*
X017240Y015079D02*
X016990Y015079D01*
X016879Y015238D02*
X017240Y015238D01*
X017240Y015396D02*
X017082Y015396D01*
X017153Y015555D02*
X017240Y015555D01*
X017240Y015713D02*
X017165Y015713D01*
X017126Y015872D02*
X017240Y015872D01*
X017240Y016030D02*
X017016Y016030D01*
X016278Y015396D02*
X016089Y015396D01*
X013645Y014921D02*
X013111Y014921D01*
X011680Y015680D02*
X011630Y015680D01*
X011440Y016189D02*
X010420Y016189D01*
X010420Y016347D02*
X011440Y016347D01*
X011440Y016506D02*
X010420Y016506D01*
X010420Y016664D02*
X011440Y016664D01*
X011440Y016823D02*
X010420Y016823D01*
X010420Y016981D02*
X011440Y016981D01*
X011440Y017140D02*
X010420Y017140D01*
X010391Y017298D02*
X011440Y017298D01*
X009750Y023321D02*
X009710Y023321D01*
X009710Y023480D02*
X009750Y023480D01*
X009750Y023638D02*
X009710Y023638D01*
X009710Y023797D02*
X009750Y023797D01*
X009750Y023955D02*
X009710Y023955D01*
X009250Y024114D02*
X009090Y024114D01*
X009090Y024272D02*
X009250Y024272D01*
X009274Y024431D02*
X009066Y024431D01*
X008971Y024589D02*
X009361Y024589D01*
X010099Y024589D02*
X013012Y024589D01*
X008289Y024589D02*
X000740Y024589D01*
X000740Y024431D02*
X008194Y024431D01*
X008170Y024272D02*
X000740Y024272D01*
X000740Y024114D02*
X007976Y024114D01*
X007940Y023638D02*
X005598Y023638D01*
X005625Y023480D02*
X007940Y023480D01*
X007940Y023321D02*
X005625Y023321D01*
X002280Y008430D02*
X001530Y008430D01*
D23*
X002880Y005594D03*
X003280Y011430D03*
X003280Y012930D03*
X002780Y013930D03*
X009280Y013280D03*
X010680Y013280D03*
X010680Y012680D03*
D24*
X004530Y009380D02*
X003780Y009380D01*
X003780Y007730D01*
X003580Y007930D02*
X003580Y009580D01*
X003580Y007930D02*
X003280Y007830D01*
D25*
X007635Y010150D02*
X007680Y010180D01*
X009180Y009180D02*
X009285Y009210D01*
M02*
